999
DXF generated by OpenJsCad
  0
SECTION
  2
HEADER
  0
ENDSEC
  0
SECTION
  2
TABLES
  0
TABLE
  2
LTYPE
  70
1
  0
LTYPE
  2
CONTINUOUS
  3
Solid Line
  72
65
  73
0
  40
0.0
  0
ENDTAB
  0
TABLE
  2
LAYER
  70
1
  0
LAYER
  2
OpenJsCad
  62
7
  6
continuous
  0
ENDTAB
  0
TABLE
  2
STYLE
  70
0
  0
ENDTAB
  0
TABLE
  2
VIEW
  70
0
  0
ENDTAB
  0
ENDSEC
  0
SECTION
  2
BLOCKS
  0
ENDSEC
  0
SECTION
  2
ENTITIES
  0
LWPOLYLINE
  8
OpenJsCad
  90
286
  70
1
 10
19.360075733583702
 20
-9.581866171233962
 30
0.0
 10
19.773757443923596
 20
-8.803844030367985
 30
0.0
 10
20.07513347833569
 20
-7.975820181055981
 30
0.0
 10
19.632069987741993
 20
-7.345831917193029
 30
0.0
 10
18.74217699790905
 20
-6.395479420835498
 30
0.0
 10
18.00337366858501
 20
-5.79972934024856
 30
0.0
 10
17.491694897940715
 20
-5.493717579131049
 30
0.0
 10
17.267513708698417
 20
-5.399104006811407
 30
0.0
 10
16.913371959910997
 20
-5.304995141813697
 30
0.0
 10
16.196476825502472
 20
-4.947082916425733
 30
0.0
 10
15.904784131736111
 20
-4.54465854803008
 30
0.0
 10
16.378222460085137
 20
-2.3173063334982213
 30
0.0
 10
16.808377732196096
 20
-2.0683154867773155
 30
0.0
 10
17.608870042911153
 20
-2.0329339194466245
 30
0.0
 10
17.970672152710375
 20
-2.091003619378821
 30
0.0
 10
18.21395466662628
 20
-2.095752524508132
 30
0.0
 10
18.80586267977918
 20
-2.024315375659025
 30
0.0
 10
19.72310649326439
 20
-1.7805689817112318
 30
0.0
 10
20.922607376020515
 20
-1.2743308628861931
 30
0.0
 10
21.583605326921408
 20
-0.8790181028989938
 30
0.0
 10
21.645072260497766
 20
-4.509784163436628e-16
 30
0.0
 10
21.583605326921408
 20
0.8790181028989932
 30
0.0
 10
20.922607376021492
 20
1.274330862885615
 30
0.0
 10
19.723106493264442
 20
1.7805689817110049
 30
0.0
 10
18.805862679779167
 20
2.0243153756589307
 30
0.0
 10
18.21395466662627
 20
2.095752524508033
 30
0.0
 10
17.970672152710353
 20
2.091003619378829
 30
0.0
 10
17.608870042911157
 20
2.0329339194465987
 30
0.0
 10
16.808377732196078
 20
2.0683154867778306
 30
0.0
 10
16.378222460085137
 20
2.317306333498104
 30
0.0
 10
15.90478413173616
 20
4.544658548029973
 30
0.0
 10
16.19647682550228
 20
4.9470829164262105
 30
0.0
 10
16.913371959911004
 20
5.304995141813672
 30
0.0
 10
17.267513708698434
 20
5.399104006811422
 30
0.0
 10
17.49169489794076
 20
5.49371757913096
 30
0.0
 10
18.00337366858506
 20
5.799729340248478
 30
0.0
 10
18.74217699790909
 20
6.395479420835268
 30
0.0
 10
19.63206998774134
 20
7.345831917192102
 30
0.0
 10
20.07513347833569
 20
7.975820181055981
 30
0.0
 10
19.7737574439236
 20
8.803844030367982
 30
0.0
 10
19.360075733583702
 20
9.581866171233967
 30
0.0
 10
18.59543587306603
 20
9.674150259838887
 30
0.0
 10
17.29373169713699
 20
9.648740831358298
 30
0.0
 10
16.356647187740528
 20
9.498337572787143
 30
0.0
 10
15.786856204868656
 20
9.322847977345704
 30
0.0
 10
15.566538123087433
 20
9.219557723606941
 30
0.0
 10
15.25963452392972
 20
9.019350237409716
 30
0.0
 10
14.513957429675063
 20
8.726083352261197
 30
0.0
 10
14.019717333605493
 20
8.778587897897324
 30
0.0
 10
12.681264136582236
 20
10.62081067967702
 30
0.0
 10
12.784057935306425
 20
11.107085740542264
 30
0.0
 10
13.293398211881712
 20
11.725642348686513
 30
0.0
 10
13.578645274015216
 20
11.955657500903902
 30
0.0
 10
13.744962174341802
 20
12.133274004480922
 30
0.0
 10
14.0879377945774
 20
12.620948164340057
 30
0.0
 10
14.52055483228259
 20
13.465691330412815
 30
0.0
 10
14.946969346824945
 20
14.695833623999961
 30
0.0
 10
15.095488674483548
 20
15.45156669765475
 30
0.0
 10
14.483380326348174
 20
16.085423447473197
 30
0.0
 10
13.78901316514286
 20
16.62792253004118
 30
0.0
 10
13.052944573425991
 20
16.401221189969988
 30
0.0
 10
11.874113581954285
 20
15.848557735205123
 30
0.0
 10
11.079218801466794
 20
15.33001091389255
 30
0.0
 10
10.630066886203062
 20
14.937938319485319
 30
0.0
 10
10.470808234423446
 20
14.753966540370925
 30
0.0
 10
10.271869566333258
 20
14.44623896110012
 30
0.0
 10
9.70994203239939
 20
13.875032132160039
 30
0.0
 10
9.23707571501193
 20
13.721971863782716
 30
0.0
 10
7.265038366545281
 20
14.86052815777196
 30
0.0
 10
7.161159288575781
 20
15.346572535412369
 30
0.0
 10
7.374875146286615
 20
16.118819469354897
 30
0.0
 10
7.5419057133351055
 20
16.444969199351476
 30
0.0
 10
7.621600621737878
 20
16.67487712712223
 30
0.0
 10
7.7365694909903455
 20
17.259890393102683
 30
0.0
 10
7.788196821055064
 20
18.207562876996683
 30
0.0
 10
7.677401916888906
 20
19.50479218976103
 30
0.0
 10
7.505696740603851
 20
20.255596959152374
 30
0.0
 10
6.688695172967569
 20
20.58568701902587
 30
0.0
 10
5.8337049511968635
 20
20.798860023470407
 30
0.0
 10
5.253480574761875
 20
20.29237197593843
 30
0.0
 10
4.401353355516309
 20
19.308015027007997
 30
0.0
 10
3.8860928328764532
 20
18.51098609920893
 30
0.0
 10
3.6352424317870136
 20
17.970123419276618
 30
0.0
 10
3.5645804777211323
 20
17.737280506726616
 30
0.0
 10
3.5080050437123216
 20
17.375241728455446
 30
0.0
 10
3.2269894456677872
 20
16.62486180569868
 30
0.0
 10
2.857259789094363
 20
16.292702234219224
 30
0.0
 10
0.5926214621310874
 20
16.530725313728063
 30
0.0
 10
0.30003114376062295
 20
16.932497519675064
 30
0.0
 10
0.1811691692611859
 20
17.724906268894053
 30
0.0
 10
0.20110213875691296
 20
18.09079632537614
 30
0.0
 10
0.1803950815675195
 20
18.333242507981115
 30
0.0
 10
0.04747803788371669
 20
18.914440771716187
 30
0.0
 10
-0.29081117407979573
 20
19.801181391631925
 30
0.0
 10
-0.919658051484034
 20
20.941194990438174
 30
0.0
 10
-1.3818983468405046
 20
21.557250490091118
 30
0.0
 10
-2.26252614070714
 20
21.526498289893475
 30
0.0
 10
-3.13030384635676
 20
21.373485667130158
 30
0.0
 10
-3.4543579416512835
 20
20.674787296855133
 30
0.0
 10
-3.8324408511303907
 20
19.428941112831353
 30
0.0
 10
-3.9789738905632865
 20
18.491243620942743
 30
0.0
 10
-3.988148464225718
 20
17.895110926428835
 30
0.0
 10
-3.9579956267761753
 20
17.653657535334577
 30
0.0
 10
-3.8624254201918022
 20
17.29990735184517
 30
0.0
 10
-3.813938932498539
 20
16.500101840903948
 30
0.0
 10
-4.016602311747901
 20
16.04627637380614
 30
0.0
 10
-6.182265076882531
 20
15.342609886015705
 30
0.0
 10
-6.612975111508112
 20
15.59063985587515
 30
0.0
 10
-7.043862602999728
 20
16.26619574882315
 30
0.0
 10
-7.174473822567918
 20
16.608560417018182
 30
0.0
 10
-7.292002407043724
 20
16.821623706930552
 30
0.0
 10
-7.649822799297432
 20
17.298512508599984
 30
0.0
 10
-8.319535275279675
 20
17.970995755568396
 30
0.0
 10
-9.357700787924266
 20
18.75667493248454
 30
0.0
 10
-10.030550655963767
 20
19.13145956982057
 30
0.0
 10
-10.822536130248881
 20
18.745182444340934
 30
0.0
 10
-11.553054670957636
 20
18.25244146692158
 30
0.0
 10
-11.564906588096234
 20
17.48234406959948
 30
0.0
 10
-11.403571217984542
 20
16.190426773857325
 30
0.0
 10
-11.156039880481659
 20
15.274197132940998
 30
0.0
 10
-10.921952259582463
 20
14.725871182422464
 30
0.0
 10
-10.79619833014245
 20
14.51755679763934
 30
0.0
 10
-10.565007439911401
 20
14.233261829376545
 30
0.0
 10
-10.195402620688416
 20
13.522324369097564
 30
0.0
 10
-10.1959573832025
 20
13.025303552517544
 30
0.0
 10
-11.888181819988137
 20
11.501617825776156
 30
0.0
 10
-12.382537893004246
 20
11.553018924477811
 30
0.0
 10
-13.050946539719172
 20
11.994912210031497
 30
0.0
 10
-13.309518081922258
 20
12.254553528523182
 30
0.0
 10
-13.503546433714938
 20
12.401393347297876
 30
0.0
 10
-14.024399778021676
 20
12.691514280694271
 30
0.0
 10
-14.909736146778476
 20
13.033461691996008
 30
0.0
 10
-16.177712046089578
 20
13.328955379662002
 30
0.0
 10
-16.944829631978926
 20
13.39766548607418
 30
0.0
 10
-17.51123130321645
 20
12.722654259525493
 30
0.0
 10
-17.978177386743198
 20
11.975384318857154
 30
0.0
 10
-17.675777821581317
 20
11.267044730600198
 30
0.0
 10
-17.002920523056964
 20
10.152440560273657
 30
0.0
 10
-16.404125225624153
 20
9.416103198929022
 30
0.0
 10
-15.967251286436076
 20
9.010394530635393
 30
0.0
 10
-15.767640261844356
 20
8.871238601769178
 30
0.0
 10
-15.44080369319088
 20
8.705556031484337
 30
0.0
 10
-14.813988573436202
 20
8.206414167413902
 30
0.0
 10
-14.612338795736466
 20
7.752137415830727
 30
0.0
 10
-15.538523925676488
 20
5.671891554542239
 30
0.0
 10
-16.011047380974706
 20
5.517776065156269
 30
0.0
 10
-16.801403255594007
 20
5.649599379768936
 30
0.0
 10
-17.143225751736363
 20
5.781623005822734
 30
0.0
 10
-17.380204606128725
 20
5.836849414795734
 30
0.0
 10
-17.974030627453768
 20
5.890037934868916
 30
0.0
 10
-18.921908187798667
 20
5.842323696595203
 30
0.0
 10
-20.20044992158597
 20
5.596538351937718
 30
0.0
 10
-20.929193625680416
 20
5.347293325815659
 30
0.0
 10
-21.17207549931574
 20
4.5002635715526695
 30
0.0
 10
-21.29470990574671
 20
3.6276744291111904
 30
0.0
 10
-20.73034649031465
 20
3.1035709997921432
 30
0.0
 10
-19.662310403009148
 20
2.35900514179168
 30
0.0
 10
-18.815788292457047
 20
1.929879479210147
 30
0.0
 10
-18.251667507940844
 20
1.7369388076369348
 30
0.0
 10
-18.012713947758552
 20
1.6910026589805247
 30
0.0
 10
-17.64674471261985
 20
1.6725805082547833
 30
0.0
 10
-16.871101320975654
 20
1.471540403252151
 30
0.0
 10
-16.5021140815571
 20
1.138556293989277
 30
0.0
 10
-16.502114081557124
 20
-1.1385562939891687
 30
0.0
 10
-16.871101320975566
 20
-1.4715404032526644
 30
0.0
 10
-17.646744712619853
 20
-1.6725805082547642
 30
0.0
 10
-18.01271394775857
 20
-1.691002658980543
 30
0.0
 10
-18.251667507940873
 20
-1.7369388076368455
 30
0.0
 10
-18.81578829245708
 20
-1.9298794792100638
 30
0.0
 10
-19.662310403009144
 20
-2.3590051417914544
 30
0.0
 10
-20.730346490313817
 20
-3.103570999791382
 30
0.0
 10
-21.29470990574671
 20
-3.6276744291111984
 30
0.0
 10
-21.172075499315742
 20
-4.500263571552666
 30
0.0
 10
-20.929193625680412
 20
-5.347293325815657
 30
0.0
 10
-20.200449921587044
 20
-5.596538351937353
 30
0.0
 10
-18.921908187798767
 20
-5.842323696594991
 30
0.0
 10
-17.974030627453775
 20
-5.890037934868819
 30
0.0
 10
-17.38020460612874
 20
-5.8368494147956325
 30
0.0
 10
-17.143225751736342
 20
-5.781623005822735
 30
0.0
 10
-16.801403255594018
 20
-5.64959937976891
 30
0.0
 10
-16.011047380974585
 20
-5.517776065156768
 30
0.0
 10
-15.538523925676513
 20
-5.671891554542124
 30
0.0
 10
-14.612338795736534
 20
-7.752137415830631
 30
0.0
 10
-14.813988573435914
 20
-8.206414167414328
 30
0.0
 10
-15.440803693190894
 20
-8.705556031484313
 30
0.0
 10
-15.767640261844369
 20
-8.871238601769198
 30
0.0
 10
-15.96725128643614
 20
-9.010394530635317
 30
0.0
 10
-16.404125225624224
 20
-9.416103198928953
 30
0.0
 10
-17.002920523057053
 20
-10.15244056027344
 30
0.0
 10
-17.67577782158087
 20
-11.267044730599155
 30
0.0
 10
-17.978177386743198
 20
-11.975384318857154
 30
0.0
 10
-17.511231303216462
 20
-12.72265425952548
 30
0.0
 10
-16.944829631978934
 20
-13.397665486074173
 30
0.0
 10
-16.177712046090715
 20
-13.328955379662098
 30
0.0
 10
-14.909736146778663
 20
-13.033461691995846
 30
0.0
 10
-14.024399778021728
 20
-12.691514280694175
 30
0.0
 10
-13.503546433714998
 20
-12.40139334729778
 30
0.0
 10
-13.309518081922244
 20
-12.254553528523164
 30
0.0
 10
-13.050946539719197
 20
-11.994912210031467
 30
0.0
 10
-12.382537893003935
 20
-11.553018924478208
 30
0.0
 10
-11.888181819988212
 20
-11.501617825776052
 30
0.0
 10
-10.195957383202611
 20
-13.025303552517476
 30
0.0
 10
-10.195402620687988
 20
-13.522324369097827
 30
0.0
 10
-10.565007439911428
 20
-14.233261829376518
 30
0.0
 10
-10.79619833014246
 20
-14.517556797639353
 30
0.0
 10
-10.921952259582559
 20
-14.725871182422411
 30
0.0
 10
-11.156039880481753
 20
-15.274197132940952
 30
0.0
 10
-11.403571217984718
 20
-16.190426773857155
 30
0.0
 10
-11.564906588096253
 20
-17.482344069598337
 30
0.0
 10
-11.553054670957644
 20
-18.252441466921567
 30
0.0
 10
-10.822536130248883
 20
-18.745182444340934
 30
0.0
 10
-10.030550655963768
 20
-19.13145956982057
 30
0.0
 10
-9.357700787925257
 20
-18.756674932485097
 30
0.0
 10
-8.3195352752799
 20
-17.970995755568328
 30
0.0
 10
-7.649822799297509
 20
-17.298512508599924
 30
0.0
 10
-7.292002407043809
 20
-16.821623706930495
 30
0.0
 10
-7.1744738225679034
 20
-16.608560417018168
 30
0.0
 10
-7.043862602999755
 20
-16.26619574882314
 30
0.0
 10
-6.61297511150766
 20
-15.590639855875391
 30
0.0
 10
-6.182265076882635
 20
-15.342609886015646
 30
0.0
 10
-4.01660231174802
 20
-16.046276373806126
 30
0.0
 10
-3.813938932498031
 20
-16.50010184090402
 30
0.0
 10
-3.8624254201918298
 20
-17.299907351845164
 30
0.0
 10
-3.9579956267761722
 20
-17.653657535334602
 30
0.0
 10
-3.9881484642258203
 20
-17.895110926428835
 30
0.0
 10
-3.9789738905633834
 20
-18.49124362094275
 30
0.0
 10
-3.8324408511306127
 20
-19.428941112831275
 30
0.0
 10
-3.454357941651758
 20
-20.674787296854106
 30
0.0
 10
-3.1303038463567634
 20
-21.37348566713016
 30
0.0
 10
-2.2625261407071515
 20
-21.526498289893475
 30
0.0
 10
-1.3818983468405066
 20
-21.557250490091118
 30
0.0
 10
-0.919658051484713
 20
-20.941194990439087
 30
0.0
 10
-0.29081117408002977
 20
-19.801181391631957
 30
0.0
 10
0.04747803788362175
 20
-18.914440771716166
 30
0.0
 10
0.18039508156741868
 20
-18.333242507981097
 30
0.0
 10
0.2011021387569205
 20
-18.09079632537612
 30
0.0
 10
0.18116916926115786
 20
-17.724906268894053
 30
0.0
 10
0.3000311437611353
 20
-16.9324975196751
 30
0.0
 10
0.5926214621309686
 20
-16.530725313728052
 30
0.0
 10
2.8572597890942495
 20
-16.29270223421926
 30
0.0
 10
3.2269894456682806
 20
-16.624861805698536
 30
0.0
 10
3.5080050437122936
 20
-17.37524172845545
 30
0.0
 10
3.564580477721144
 20
-17.737280506726638
 30
0.0
 10
3.6352424317869185
 20
-17.970123419276657
 30
0.0
 10
3.8860928328763653
 20
-18.510986099208978
 30
0.0
 10
4.401353355516073
 20
-19.308015027008018
 30
0.0
 10
5.25348057476102
 20
-20.292371975937684
 30
0.0
 10
5.833704951196862
 20
-20.79886002347041
 30
0.0
 10
6.688695172967555
 20
-20.585687019025876
 30
0.0
 10
7.505696740603839
 20
-20.25559695915238
 30
0.0
 10
7.6774019168886465
 20
-19.504792189762142
 30
0.0
 10
7.7881968210548544
 20
-18.20756287699681
 30
0.0
 10
7.736569490990241
 20
-17.259890393102705
 30
0.0
 10
7.621600621737771
 20
-16.67487712712226
 30
0.0
 10
7.541905713335096
 20
-16.44496919935146
 30
0.0
 10
7.374875146286583
 20
-16.11881946935491
 30
0.0
 10
7.161159288576256
 20
-15.3465725354122
 30
0.0
 10
7.26503836654516
 20
-14.860528157772002
 30
0.0
 10
9.237075715011834
 20
-13.7219718637828
 30
0.0
 10
9.709942032399777
 20
-13.875032132159713
 30
0.0
 10
10.271869566333228
 20
-14.446238961100141
 30
0.0
 10
10.47080823442346
 20
-14.753966540370945
 30
0.0
 10
10.630066886202986
 20
-14.937938319485397
 30
0.0
 10
11.079218801466727
 20
-15.33001091389263
 30
0.0
 10
11.874113581954072
 20
-15.848557735205244
 30
0.0
 10
13.0529445734249
 20
-16.40122118996966
 30
0.0
 10
13.789013165142851
 20
-16.62792253004119
 30
0.0
 10
14.483380326348174
 20
-16.085423447473204
 30
0.0
 10
15.09548867448355
 20
-15.451566697654748
 30
0.0
 10
14.946969346825169
 20
-14.695833624001073
 30
0.0
 10
14.520554832282457
 20
-13.465691330413003
 30
0.0
 10
14.08793779457732
 20
-12.620948164340112
 30
0.0
 10
13.744962174341724
 20
-12.133274004480985
 30
0.0
 10
13.578645274015207
 20
-11.955657500903882
 30
0.0
 10
13.293398211881696
 20
-11.725642348686534
 30
0.0
 10
12.784057935306794
 20
-11.107085740541908
 30
0.0
 10
12.681264136582149
 20
-10.6208106796771
 30
0.0
 10
14.019717333605445
 20
-8.778587897897433
 30
0.0
 10
14.51395742967529
 20
-8.726083352260732
 30
0.0
 10
15.259634523929709
 20
-9.019350237409736
 30
0.0
 10
15.566538123087456
 20
-9.21955772360694
 30
0.0
 10
15.786856204868618
 20
-9.322847977345795
 30
0.0
 10
16.356647187740506
 20
-9.498337572787232
 30
0.0
 10
17.29373169713685
 20
-9.64874083135848
 30
0.0
 10
18.5954358730649
 20
-9.674150259839019
 30
0.0
 10
19.360075733583702
 20
-9.581866171233962
 30
0.0
  0
LWPOLYLINE
  8
OpenJsCad
  90
31
  70
1
 10
0.41582338163551874
 20
-1.9562952014676114
 30
0.0
 10
1.2246467991473532e-16
 20
-2
 30
0.0
 10
-0.41582338163551785
 20
-1.9562952014676114
 30
0.0
 10
-0.8134732861516002
 20
-1.827090915285202
 30
0.0
 10
-1.1755705045849467
 20
-1.6180339887498945
 30
0.0
 10
-1.486289650954788
 20
-1.338261212717717
 30
0.0
 10
-1.7320508075688772
 20
-1.0000000000000002
 30
0.0
 10
-1.9021130325903073
 20
-0.6180339887498946
 30
0.0
 10
-1.9890437907365468
 20
-0.20905692653530608
 30
0.0
 10
-1.9890437907365466
 20
0.20905692653530836
 30
0.0
 10
-1.902113032590307
 20
0.618033988749895
 30
0.0
 10
-1.7320508075688767
 20
1.0000000000000009
 30
0.0
 10
-1.486289650954788
 20
1.338261212717717
 30
0.0
 10
-1.175570504584946
 20
1.618033988749895
 30
0.0
 10
-0.8134732861516005
 20
1.8270909152852017
 30
0.0
 10
-0.41582338163551824
 20
1.9562952014676114
 30
0.0
 10
1.0106430996148606e-15
 20
2
 30
0.0
 10
0.4158233816355185
 20
1.9562952014676114
 30
0.0
 10
0.8134732861516
 20
1.827090915285202
 30
0.0
 10
1.1755705045849465
 20
1.618033988749895
 30
0.0
 10
1.486289650954789
 20
1.3382612127177158
 30
0.0
 10
1.7320508075688774
 20
0.9999999999999997
 30
0.0
 10
1.9021130325903073
 20
0.6180339887498948
 30
0.0
 10
1.9890437907365468
 20
0.20905692653530678
 30
0.0
 10
1.9890437907365466
 20
-0.2090569265353068
 30
0.0
 10
1.902113032590307
 20
-0.6180339887498948
 30
0.0
 10
1.7320508075688772
 20
-1.0000000000000002
 30
0.0
 10
1.4862896509547885
 20
-1.3382612127177165
 30
0.0
 10
1.1755705045849463
 20
-1.618033988749895
 30
0.0
 10
0.8134732861516004
 20
-1.8270909152852017
 30
0.0
 10
0.41582338163551874
 20
-1.9562952014676114
 30
0.0
  0
LWPOLYLINE
  8
OpenJsCad
  90
571
  70
1
 10
16.929356901269088
 20
5.23147305579815
 30
0.0
 10
16.77531214387107
 20
4.258872735448755
 30
0.0
 10
16.723775676631824
 20
3.275498359653869
 30
0.0
 10
17.546970599858575
 20
2.7831829800604853
 30
0.0
 10
18.5119134080808
 20
2.2940265637427117
 30
0.0
 10
19.346272435818605
 20
1.9418931466692464
 30
0.0
 10
20.036423282458237
 20
1.7058476551852335
 30
0.0
 10
20.571047429802995
 20
1.5637777866106544
 30
0.0
 10
21.140822947725695
 20
1.4542448176439806
 30
0.0
 10
21.51635485853422
 20
1.3125738280363484
 30
0.0
 10
21.69507226049774
 20
1.1385562939891973
 30
0.0
 10
21.695072260497753
 20
-1.1385562939891312
 30
0.0
 10
21.51635485853422
 20
-1.3125738280363044
 30
0.0
 10
21.140822947725617
 20
-1.4542448176435472
 30
0.0
 10
20.5710474298031
 20
-1.563777786610582
 30
0.0
 10
20.036423282458152
 20
-1.7058476551852135
 30
0.0
 10
19.34627243581859
 20
-1.9418931466692095
 30
0.0
 10
18.511913408080076
 20
-2.2940265637422486
 30
0.0
 10
17.54697059986607
 20
-2.783182980055968
 30
0.0
 10
16.723775676631824
 20
-3.275498359653834
 30
0.0
 10
16.775312143871062
 20
-4.258872735448737
 30
0.0
 10
16.929356901269074
 20
-5.2314730557980935
 30
0.0
 10
17.836921163346425
 20
-5.541878314791044
 30
0.0
 10
18.882478993645314
 20
-5.819722598995903
 30
0.0
 10
19.771817928914807
 20
-5.99068805983848
 30
0.0
 10
20.495963940944122
 20
-6.078084961553446
 30
0.0
 10
21.048443254553355
 20
-6.105895652209785
 30
0.0
 10
21.628540995144462
 20
-6.0945720716879155
 30
0.0
 10
22.025321687689953
 20
-6.15506973573398
 30
0.0
 10
22.23631396536561
 20
-6.288127131927023
 30
0.0
 10
22.709752293714615
 20
-8.515479346458768
 30
0.0
 10
22.571120575510278
 20
-8.72285161709342
 30
0.0
 10
22.233249992942937
 20
-8.939504230203568
 30
0.0
 10
21.69869862190839
 20
-9.165106632317759
 30
0.0
 10
21.20529528147818
 20
-9.415226543827092
 30
0.0
 10
20.579302503937647
 20
-9.789604304430334
 30
0.0
 10
19.83638887694171
 20
-10.307515757684701
 30
0.0
 10
18.99423372183199
 20
-10.986605823483721
 30
0.0
 10
18.29138570572193
 20
-11.639314779203955
 30
0.0
 10
18.54625100668067
 20
-12.590485031468354
 30
0.0
 10
18.89914449362889
 20
-13.50980399531878
 30
0.0
 10
19.851413181327544
 20
-13.624732934403617
 30
0.0
 10
20.931890139375923
 20
-13.679121958031013
 30
0.0
 10
21.837340603184167
 20
-13.661447451620582
 30
0.0
 10
22.563833125039373
 20
-13.596376099584692
 30
0.0
 10
23.11002160781849
 20
-13.508712151690608
 30
0.0
 10
23.67508851619636
 20
-13.377026916485566
 30
0.0
 10
24.07577677024957
 20
-13.35370721675125
 30
0.0
 10
24.30982254864969
 20
-13.439989228396325
 30
0.0
 10
25.23600767858965
 20
-15.520235089684707
 30
0.0
 10
25.143520515458846
 20
-15.751898933597547
 30
0.0
 10
24.85807782687388
 20
-16.034064411403108
 30
0.0
 10
24.382113062703596
 20
-16.365876339131624
 30
0.0
 10
23.951494622776835
 20
-16.713114853234206
 30
0.0
 10
23.417018802560456
 20
-17.20946277835452
 30
0.0
 10
22.79801946670193
 20
-17.87051705206812
 30
0.0
 10
22.11545818608355
 20
-18.70986127284135
 30
0.0
 10
21.563674908040674
 20
-19.49443729127391
 30
0.0
 10
22.010730206087622
 20
-20.371832715762597
 30
0.0
 10
22.547049283835577
 20
-21.197691673012002
 30
0.0
 10
23.502403686010958
 20
-21.112121346060484
 30
0.0
 10
24.570577744038438
 20
-20.940678047790403
 30
0.0
 10
25.45256720628363
 20
-20.73513603486879
 30
0.0
 10
26.149655028661776
 20
-20.520440359413005
 30
0.0
 10
26.66568162301017
 20
-20.32113310814976
 30
0.0
 10
27.191021563786844
 20
-20.07484149493588
 30
0.0
 10
27.578105379930086
 20
-19.96872361419991
 30
0.0
 10
27.82497573546232
 20
-20.00445930336109
 30
0.0
 10
29.163428932485544
 20
-21.84668208514067
 30
0.0
 10
29.121128457259736
 20
-22.092512680706243
 30
0.0
 10
28.9005888778543
 20
-22.427859037846932
 30
0.0
 10
28.504012664674832
 20
-22.851378717737763
 30
0.0
 10
28.15499921741285
 20
-23.280559845132057
 30
0.0
 10
27.735399512563614
 20
-23.87718514870009
 30
0.0
 10
27.26736770910788
 20
-24.652490999021285
 30
0.0
 10
26.774231506236305
 20
-25.61540600470051
 30
0.0
 10
26.39762854326101
 20
-26.49755934902646
 30
0.0
 10
27.017335376662167
 20
-27.262833555478913
 30
0.0
 10
27.713640327967806
 20
-27.95913850678454
 30
0.0
 10
28.630326872945822
 20
-27.676808747696423
 30
0.0
 10
29.6395136989488
 20
-27.2870260223395
 30
0.0
 10
30.4594949878758
 20
-26.90259967517138
 30
0.0
 10
31.09671202794047
 20
-26.54766290753727
 30
0.0
 10
31.560023895514814
 20
-26.24542303616737
 30
0.0
 10
32.02267699241762
 20
-25.895289170280375
 30
0.0
 10
32.37923895045121
 20
-25.711010969140997
 30
0.0
 10
32.628144463963395
 20
-25.694638514723096
 30
0.0
 10
34.320368900748946
 20
-27.2183242414644
 30
0.0
 10
34.33010384717569
 20
-27.467577612030425
 30
0.0
 10
34.18410601483612
 20
-27.841448603528832
 30
0.0
 10
33.88425063614723
 20
-28.338166193297848
 30
0.0
 10
33.6320957439477
 20
-28.830532659277175
 30
0.0
 10
33.345710675030304
 20
-29.501359952601167
 30
0.0
 10
33.04910163965414
 20
-30.357032793540693
 30
0.0
 10
32.76694293292489
 20
-31.401434577798888
 30
0.0
 10
32.581979641640714
 20
-32.34261091382979
 30
0.0
 10
33.34725384809315
 20
-32.96231774723096
 30
0.0
 10
34.173112805342555
 20
-33.4986368249789
 30
0.0
 10
35.01106789235759
 20
-33.03188679899484
 30
0.0
 10
35.91716117942404
 20
-32.44080002203419
 30
0.0
 10
36.63929717799999
 20
-31.8942906166731
 30
0.0
 10
37.188793993393745
 20
-31.41462519678185
 30
0.0
 10
37.57914218236402
 20
-31.022662037991978
 30
0.0
 10
37.95888827500245
 20
-30.58398844949982
 30
0.0
 10
38.2693449063862
 20
-30.32960376961174
 30
0.0
 10
38.50940721255672
 20
-30.261838726436558
 30
0.0
 10
40.48144456102328
 20
-31.400395020425712
 30
0.0
 10
40.5427894652303
 20
-31.64217759764807
 30
0.0
 10
40.47771418580515
 20
-32.03823326714366
 30
0.0
 10
40.28768476052127
 20
-32.5864398246025
 30
0.0
 10
40.143408802146745
 20
-33.120472851967136
 30
0.0
 10
40.00275477090089
 20
-33.836183763342326
 30
0.0
 10
39.8905317417383
 20
-34.73482658577729
 30
0.0
 10
39.83168222058314
 20
-35.81506977904658
 30
0.0
 10
39.84644238437155
 20
-36.77413518463275
 30
0.0
 10
40.723837808860225
 20
-37.22119048267971
 30
0.0
 10
41.643156772710654
 20
-37.574083969627914
 30
0.0
 10
42.36575774350551
 20
-36.94331289259853
 30
0.0
 10
43.129156867072666
 20
-36.17675539253638
 30
0.0
 10
43.721886766966804
 20
-35.49204801243967
 30
0.0
 10
44.15964771007867
 20
-34.908617620830576
 30
0.0
 10
44.45997213148847
 20
-34.44406184550776
 30
0.0
 10
44.74021449339028
 20
-33.93602067521697
 30
0.0
 10
44.99099735359653
 20
-33.62264734776443
 30
0.0
 10
45.21172457769895
 20
-33.506451373391485
 30
0.0
 10
47.37738734283347
 20
-34.210117861181885
 30
0.0
 10
47.48766113814138
 20
-34.43386258623444
 30
0.0
 10
47.50635251360737
 20
-34.83479340048429
 30
0.0
 10
47.434454239475784
 20
-35.4105296684851
 30
0.0
 10
47.404362766620075
 20
-35.96288945136444
 30
0.0
 10
47.41558702914414
 20
-36.692203979601736
 30
0.0
 10
47.49265469107537
 20
-37.59454178002504
 30
0.0
 10
47.65968636196011
 20
-38.6634145711776
 30
0.0
 10
47.87352489083642
 20
-39.598453285988505
 30
0.0
 10
48.82469514310081
 20
-39.85331858694728
 30
0.0
 10
49.797295463450176
 20
-40.007363344345265
 30
0.0
 10
50.372961188176966
 20
-39.24013893911218
 30
0.0
 10
50.96030194334951
 20
-38.33161295705225
 30
0.0
 10
51.39772060370285
 20
-37.538632600320696
 30
0.0
 10
51.704613420708775
 20
-36.87693594471671
 30
0.0
 10
51.901788456226015
 20
-36.36009086942849
 30
0.0
 10
52.07027915142406
 20
-35.804885954332796
 30
0.0
 10
52.25042782607212
 20
-35.44621989745752
 30
0.0
 10
52.442173129246434
 20
-35.286671313537056
 30
0.0
 10
54.7068114562096
 20
-35.52469439304584
 30
0.0
 10
54.86119464861107
 20
-35.72062254779749
 30
0.0
 10
54.96283577616918
 20
-36.10890590633938
 30
0.0
 10
55.01221095277562
 20
-36.687009447281376
 30
0.0
 10
55.09761910719743
 20
-37.23355521264727
 30
0.0
 10
55.260231109359125
 20
-37.94459881322334
 30
0.0
 10
55.523221235746114
 20
-38.81119509985931
 30
0.0
 10
55.908834013146205
 20
-39.82198261890108
 30
0.0
 10
56.31240513728741
 20
-40.692128964285935
 30
0.0
 10
57.295779513082316
 20
-40.74366543152521
 30
0.0
 10
58.279153888877204
 20
-40.69212896428595
 30
0.0
 10
58.68272501301474
 20
-39.821982618909004
 30
0.0
 10
59.068337790418
 20
-38.81119509985865
 30
0.0
 10
59.331327916805485
 20
-37.94459881322334
 30
0.0
 10
59.493939918967186
 20
-37.233555212647204
 30
0.0
 10
59.57934807338897
 20
-36.6870094472815
 30
0.0
 10
59.62872324999503
 20
-36.10890590633934
 30
0.0
 10
59.730364377553535
 20
-35.720622547797475
 30
0.0
 10
59.88474756995498
 20
-35.52469439304587
 30
0.0
 10
62.14938589691815
 20
-35.28667131353704
 30
0.0
 10
62.34113120009249
 20
-35.44621989745754
 30
0.0
 10
62.52127987474017
 20
-35.804885954332924
 30
0.0
 10
62.68977056993855
 20
-36.36009086942839
 30
0.0
 10
62.886945605455864
 20
-36.87693594471679
 30
0.0
 10
63.193838422461766
 20
-37.5386326003207
 30
0.0
 10
63.63125708281475
 20
-38.33161295705301
 30
0.0
 10
64.2185978379824
 20
-39.2401389391052
 30
0.0
 10
64.79426356271443
 20
-40.007363344345265
 30
0.0
 10
65.7668638830638
 20
-39.85331858694728
 30
0.0
 10
66.7180341353282
 20
-39.59845328598853
 30
0.0
 10
66.93187266420256
 20
-38.663414571186124
 30
0.0
 10
67.0989043350886
 20
-37.5945417800245
 30
0.0
 10
67.17597199702047
 20
-36.69220397960175
 30
0.0
 10
67.18719625954452
 20
-35.96288945136437
 30
0.0
 10
67.15710478668882
 20
-35.41052966848523
 30
0.0
 10
67.08520651255682
 20
-34.83479340048436
 30
0.0
 10
67.10389788802323
 20
-34.43386258623446
 30
0.0
 10
67.21417168333112
 20
-34.210117861181935
 30
0.0
 10
69.37983444846562
 20
-33.5064513733915
 30
0.0
 10
69.60056167256806
 20
-33.622647347764456
 30
0.0
 10
69.85134453277398
 20
-33.9360206752172
 30
0.0
 10
70.13158689467608
 20
-34.44406184550769
 30
0.0
 10
70.43191131608597
 20
-34.90861762083067
 30
0.0
 10
70.8696722591978
 20
-35.49204801243969
 30
0.0
 10
71.46240215909175
 20
-36.1767553925372
 30
0.0
 10
72.22580128265253
 20
-36.94331289259279
 30
0.0
 10
72.94840225345395
 20
-37.57408396962793
 30
0.0
 10
73.86772121730439
 20
-37.22119048267973
 30
0.0
 10
74.74511664179306
 20
-36.77413518463277
 30
0.0
 10
74.75987680558133
 20
-35.81506977905532
 30
0.0
 10
74.70102728442556
 20
-34.73482658577691
 30
0.0
 10
74.58880425526371
 20
-33.83618376334235
 30
0.0
 10
74.44815022401784
 20
-33.12047285196709
 30
0.0
 10
74.30387426564334
 20
-32.58643982460264
 30
0.0
 10
74.11384484035908
 20
-32.0382332671438
 30
0.0
 10
74.0487695609343
 20
-31.642177597648093
 30
0.0
 10
74.1101144651413
 20
-31.40039502042576
 30
0.0
 10
76.08215181360785
 20
-30.261838726436583
 30
0.0
 10
76.3222141197784
 20
-30.329603769611772
 30
0.0
 10
76.63267075116185
 20
-30.58398844950012
 30
0.0
 10
77.0124168438005
 20
-31.022662037991932
 30
0.0
 10
77.40276503277092
 20
-31.414625196781937
 30
0.0
 10
77.95226184816461
 20
-31.894290616673132
 30
0.0
 10
78.67439784674055
 20
-32.440800022035056
 30
0.0
 10
79.58049113379938
 20
-33.03188679899062
 30
0.0
 10
80.41844622082203
 20
-33.49863682497893
 30
0.0
 10
81.24430517807147
 20
-32.962317747230976
 30
0.0
 10
82.0095793845239
 20
-32.34261091382982
 30
0.0
 10
81.82461609324142
 20
-31.401434577807475
 30
0.0
 10
81.54245738650968
 20
-30.357032793540476
 30
0.0
 10
81.24584835113431
 20
-29.50135995260119
 30
0.0
 10
80.95946328221687
 20
-28.830532659277132
 30
0.0
 10
80.70730839001743
 20
-28.33816619329798
 30
0.0
 10
80.40745301132814
 20
-27.841448603529063
 30
0.0
 10
80.26145517898891
 20
-27.467577612030453
 30
0.0
 10
80.27119012541567
 20
-27.218324241464465
 30
0.0
 10
81.96341456220118
 20
-25.694638514723128
 30
0.0
 10
82.21232007571342
 20
-25.711010969141032
 30
0.0
 10
82.56888203374675
 20
-25.895289170280723
 30
0.0
 10
83.0315351306497
 20
-26.245423036167345
 30
0.0
 10
83.49484699822422
 20
-26.547662907537344
 30
0.0
 10
84.13206403828882
 20
-26.902599675171412
 30
0.0
 10
84.95204532721598
 20
-27.287026022340342
 30
0.0
 10
85.96123215321045
 20
-27.67680874769388
 30
0.0
 10
86.87791869819681
 20
-27.959138506784562
 30
0.0
 10
87.57422364950247
 20
-27.262833555478927
 30
0.0
 10
88.19393048290361
 20
-26.497559349026496
 30
0.0
 10
87.81732751993175
 20
-25.615406004708575
 30
0.0
 10
87.3241913170559
 20
-24.652490999021243
 30
0.0
 10
86.856159513601
 20
-23.87718514870012
 30
0.0
 10
86.43655980875172
 20
-23.280559845132025
 30
0.0
 10
86.08754636148986
 20
-22.851378717737887
 30
0.0
 10
85.69097014831002
 20
-22.427859037847238
 30
0.0
 10
85.47043056890487
 20
-22.092512680706278
 30
0.0
 10
85.42813009367907
 20
-21.846682085140735
 30
0.0
 10
86.76658329070227
 20
-20.00445930336114
 30
0.0
 10
87.01345364623454
 20
-19.968723614199952
 30
0.0
 10
87.40053746237761
 20
-20.07484149493628
 30
0.0
 10
87.92587740315435
 20
-20.321133108149763
 30
0.0
 10
88.44190399750292
 20
-20.520440359413072
 30
0.0
 10
89.138991819881
 20
-20.735136034868823
 30
0.0
 10
90.02098128212651
 20
-20.940678047791202
 30
0.0
 10
91.08915534014497
 20
-21.112121346059734
 30
0.0
 10
92.04450974232905
 20
-21.19769167301203
 30
0.0
 10
92.580828820077
 20
-20.371832715762622
 30
0.0
 10
93.02788411812395
 20
-19.494437291273954
 30
0.0
 10
92.47610084008608
 20
-18.70986127284853
 30
0.0
 10
91.79353955946186
 20
-17.870517052068255
 30
0.0
 10
91.17454022360417
 20
-17.209462778354563
 30
0.0
 10
90.64006440338773
 20
-16.713114853234202
 30
0.0
 10
90.20944596346112
 20
-16.36587633913174
 30
0.0
 10
89.73348119929051
 20
-16.034064411403474
 30
0.0
 10
89.44803851070576
 20
-15.75189893359759
 30
0.0
 10
89.35555134757497
 20
-15.520235089684782
 30
0.0
 10
90.28173647751491
 20
-13.439989228396382
 30
0.0
 10
90.51578225591507
 20
-13.353707216751301
 30
0.0
 10
90.91647050996818
 20
-13.377026916486003
 30
0.0
 10
91.48153741834604
 20
-13.508712151690638
 30
0.0
 10
92.02772590112532
 20
-13.596376099584747
 30
0.0
 10
92.75421842298047
 20
-13.661447451620624
 30
0.0
 10
93.65966888678918
 20
-13.679121958031734
 30
0.0
 10
94.74014584482842
 20
-13.624732934404701
 30
0.0
 10
95.69241453253574
 20
-13.509803995318823
 30
0.0
 10
96.04530801948397
 20
-12.590485031468372
 30
0.0
 10
96.30017332044271
 20
-11.63931477920399
 30
0.0
 10
95.59732530433905
 20
-10.9866058234897
 30
0.0
 10
94.75517014922212
 20
-10.307515757685005
 30
0.0
 10
94.01225652222698
 20
-9.789604304430368
 30
0.0
 10
93.38626374468639
 20
-9.415226543827096
 30
0.0
 10
92.89286040425634
 20
-9.165106632317851
 30
0.0
 10
92.35830903322153
 20
-8.939504230203974
 30
0.0
 10
92.02043845065435
 20
-8.722851617093461
 30
0.0
 10
91.88180673245003
 20
-8.515479346458838
 30
0.0
 10
92.355245060799
 20
-6.288127131927083
 30
0.0
 10
92.56623733847469
 20
-6.155069735734025
 30
0.0
 10
92.96301803102018
 20
-6.094572071688354
 30
0.0
 10
93.54311577161117
 20
-6.105895652209832
 30
0.0
 10
94.0955950852206
 20
-6.078084961553483
 30
0.0
 10
94.81974109724983
 20
-5.990688059838517
 30
0.0
 10
95.70908003251995
 20
-5.819722598996506
 30
0.0
 10
96.75463786280996
 20
-5.541878314793907
 30
0.0
 10
97.66220212489557
 20
-5.231473055798129
 30
0.0
 10
97.81624688229357
 20
-4.258872735448761
 30
0.0
 10
97.86778334953283
 20
-3.2754983596538745
 30
0.0
 10
97.04458842630606
 20
-2.7831829800604897
 30
0.0
 10
96.07964561808384
 20
-2.294026563742716
 30
0.0
 10
95.24528659034604
 20
-1.9418931466692508
 30
0.0
 10
94.55513574370642
 20
-1.705847655185238
 30
0.0
 10
94.02051159636164
 20
-1.5637777866106588
 30
0.0
 10
93.45073607843895
 20
-1.454244817643985
 30
0.0
 10
93.07520416763043
 20
-1.3125738280363528
 30
0.0
 10
92.8964867656669
 20
-1.1385562939892018
 30
0.0
 10
92.89648676566689
 20
1.1385562939891267
 30
0.0
 10
93.07520416763043
 20
1.3125738280363
 30
0.0
 10
93.45073607843904
 20
1.4542448176435427
 30
0.0
 10
94.02051159636154
 20
1.5637777866105775
 30
0.0
 10
94.5551357437065
 20
1.705847655185209
 30
0.0
 10
95.24528659034605
 20
1.941893146669205
 30
0.0
 10
96.07964561808457
 20
2.2940265637422437
 30
0.0
 10
97.04458842629857
 20
2.783182980055963
 30
0.0
 10
97.86778334953283
 20
3.275498359653829
 30
0.0
 10
97.81624688229357
 20
4.258872735448743
 30
0.0
 10
97.66220212489557
 20
5.2314730557981
 30
0.0
 10
96.75463786281821
 20
5.541878314791052
 30
0.0
 10
95.70908003251932
 20
5.81972259899591
 30
0.0
 10
94.81974109724983
 20
5.9906880598384875
 30
0.0
 10
94.09559508522052
 20
6.078084961553453
 30
0.0
 10
93.5431157716113
 20
6.105895652209791
 30
0.0
 10
92.96301803102018
 20
6.094572071687922
 30
0.0
 10
92.56623733847469
 20
6.155069735733985
 30
0.0
 10
92.35524506079904
 20
6.288127131927029
 30
0.0
 10
91.88180673245003
 20
8.515479346458772
 30
0.0
 10
92.02043845065435
 20
8.722851617093426
 30
0.0
 10
92.35830903322172
 20
8.939504230203575
 30
0.0
 10
92.89286040425625
 20
9.165106632317764
 30
0.0
 10
93.38626374468646
 20
9.4152265438271
 30
0.0
 10
94.01225652222699
 20
9.78960430443034
 30
0.0
 10
94.75517014922293
 20
10.307515757684707
 30
0.0
 10
95.59732530433266
 20
10.986605823483728
 30
0.0
 10
96.30017332044271
 20
11.639314779203962
 30
0.0
 10
96.04530801948397
 20
12.590485031468354
 30
0.0
 10
95.69241453253576
 20
13.50980399531878
 30
0.0
 10
94.7401458448371
 20
13.624732934403617
 30
0.0
 10
93.65966888678872
 20
13.679121958031013
 30
0.0
 10
92.75421842298047
 20
13.661447451620582
 30
0.0
 10
92.02772590112528
 20
13.596376099584692
 30
0.0
 10
91.48153741834616
 20
13.508712151690608
 30
0.0
 10
90.91647050996829
 20
13.377026916485566
 30
0.0
 10
90.51578225591507
 20
13.35370721675125
 30
0.0
 10
90.28173647751495
 20
13.439989228396325
 30
0.0
 10
89.35555134757499
 20
15.520235089684707
 30
0.0
 10
89.4480385107058
 20
15.751898933597547
 30
0.0
 10
89.73348119929076
 20
16.034064411403108
 30
0.0
 10
90.20944596346105
 20
16.365876339131624
 30
0.0
 10
90.64006440338781
 20
16.713114853234206
 30
0.0
 10
91.1745402236042
 20
17.20946277835452
 30
0.0
 10
91.79353955946272
 20
17.87051705206812
 30
0.0
 10
92.4761008400811
 20
18.70986127284135
 30
0.0
 10
93.02788411812398
 20
19.49443729127391
 30
0.0
 10
92.58082882007702
 20
20.371832715762597
 30
0.0
 10
92.04450974232907
 20
21.197691673011995
 30
0.0
 10
91.0891553401537
 20
21.112121346060476
 30
0.0
 10
90.0209812821262
 20
20.940678047790396
 30
0.0
 10
89.13899181988101
 20
20.735136034868784
 30
0.0
 10
88.44190399750288
 20
20.520440359413
 30
0.0
 10
87.92587740315449
 20
20.32113310814976
 30
0.0
 10
87.4005374623778
 20
20.074841494935875
 30
0.0
 10
87.01345364623455
 20
19.968723614199902
 30
0.0
 10
86.76658329070233
 20
20.004459303361088
 30
0.0
 10
85.4281300936791
 20
21.846682085140667
 30
0.0
 10
85.4704305689049
 20
22.09251268070624
 30
0.0
 10
85.69097014831034
 20
22.427859037846925
 30
0.0
 10
86.08754636148981
 20
22.85137871773776
 30
0.0
 10
86.4365598087518
 20
23.280559845132053
 30
0.0
 10
86.85615951360103
 20
23.87718514870009
 30
0.0
 10
87.32419131705677
 20
24.652490999021282
 30
0.0
 10
87.81732751992834
 20
25.615406004700503
 30
0.0
 10
88.19393048290364
 20
26.49755934902646
 30
0.0
 10
87.57422364950249
 20
27.2628335554789
 30
0.0
 10
86.87791869819685
 20
27.95913850678453
 30
0.0
 10
85.96123215321883
 20
27.67680874769642
 30
0.0
 10
84.95204532721586
 20
27.287026022339493
 30
0.0
 10
84.13206403828886
 20
26.902599675171377
 30
0.0
 10
83.49484699822418
 20
26.54766290753726
 30
0.0
 10
83.03153513064984
 20
26.245423036167367
 30
0.0
 10
82.56888203374703
 20
25.895289170280364
 30
0.0
 10
82.21232007571345
 20
25.71101096914099
 30
0.0
 10
81.96341456220125
 20
25.694638514723085
 30
0.0
 10
80.27119012541571
 20
27.218324241464394
 30
0.0
 10
80.26145517898895
 20
27.46757761203042
 30
0.0
 10
80.40745301132853
 20
27.841448603528825
 30
0.0
 10
80.70730839001743
 20
28.33816619329784
 30
0.0
 10
80.95946328221694
 20
28.83053265927717
 30
0.0
 10
81.24584835113436
 20
29.501359952601156
 30
0.0
 10
81.54245738651052
 20
30.35703279354069
 30
0.0
 10
81.82461609323977
 20
31.40143457779888
 30
0.0
 10
82.00957938452393
 20
32.34261091382978
 30
0.0
 10
81.2443051780715
 20
32.962317747230955
 30
0.0
 10
80.4184462208221
 20
33.49863682497889
 30
0.0
 10
79.58049113380707
 20
33.03188679899483
 30
0.0
 10
78.67439784674062
 20
32.44080002203418
 30
0.0
 10
77.95226184816467
 20
31.894290616673093
 30
0.0
 10
77.40276503277092
 20
31.414625196781838
 30
0.0
 10
77.01241684380064
 20
31.02266203799197
 30
0.0
 10
76.63267075116221
 20
30.583988449499813
 30
0.0
 10
76.32221411977845
 20
30.32960376961173
 30
0.0
 10
76.08215181360794
 20
30.261838726436554
 30
0.0
 10
74.11011446514138
 20
31.4003950204257
 30
0.0
 10
74.04876956093436
 20
31.642177597648065
 30
0.0
 10
74.11384484035952
 20
32.038233267143646
 30
0.0
 10
74.30387426564339
 20
32.58643982460249
 30
0.0
 10
74.44815022401792
 20
33.120472851967136
 30
0.0
 10
74.58880425526377
 20
33.836183763342326
 30
0.0
 10
74.70102728442636
 20
34.73482658577729
 30
0.0
 10
74.75987680558151
 20
35.815069779046574
 30
0.0
 10
74.74511664179312
 20
36.77413518463274
 30
0.0
 10
73.86772121730442
 20
37.22119048267971
 30
0.0
 10
72.94840225345399
 20
37.57408396962791
 30
0.0
 10
72.22580128265913
 20
36.94331289259853
 30
0.0
 10
71.46240215909198
 20
36.17675539253638
 30
0.0
 10
70.86967225919784
 20
35.49204801243967
 30
0.0
 10
70.43191131608597
 20
34.908617620830576
 30
0.0
 10
70.13158689467618
 20
34.44406184550776
 30
0.0
 10
69.85134453277436
 20
33.93602067521697
 30
0.0
 10
69.60056167256812
 20
33.62264734776443
 30
0.0
 10
69.3798344484657
 20
33.506451373391485
 30
0.0
 10
67.21417168333119
 20
34.210117861181885
 30
0.0
 10
67.10389788802328
 20
34.43386258623444
 30
0.0
 10
67.08520651255728
 20
34.83479340048429
 30
0.0
 10
67.15710478668888
 20
35.4105296684851
 30
0.0
 10
67.18719625954458
 20
35.96288945136444
 30
0.0
 10
67.17597199702051
 20
36.692203979601736
 30
0.0
 10
67.09890433508927
 20
37.59454178002504
 30
0.0
 10
66.93187266420455
 20
38.6634145711776
 30
0.0
 10
66.71803413532824
 20
39.598453285988505
 30
0.0
 10
65.76686388306382
 20
39.85331858694729
 30
0.0
 10
64.79426356271446
 20
40.00736334434527
 30
0.0
 10
64.21859783798767
 20
39.240138939112185
 30
0.0
 10
63.63125708281513
 20
38.33161295705226
 30
0.0
 10
63.193838422461795
 20
37.538632600320696
 30
0.0
 10
62.886945605455864
 20
36.87693594471671
 30
0.0
 10
62.68977056993863
 20
36.3600908694285
 30
0.0
 10
62.521279874740586
 20
35.8048859543328
 30
0.0
 10
62.341131200092526
 20
35.446219897457524
 30
0.0
 10
62.149385896918204
 20
35.286671313537056
 30
0.0
 10
59.884747569955046
 20
35.52469439304584
 30
0.0
 10
59.73036437755357
 20
35.72062254779749
 30
0.0
 10
59.62872324999547
 20
36.10890590633938
 30
0.0
 10
59.57934807338903
 20
36.68700944728138
 30
0.0
 10
59.49393991896721
 20
37.233555212647275
 30
0.0
 10
59.33132791680551
 20
37.944598813223344
 30
0.0
 10
59.068337790418525
 20
38.81119509985932
 30
0.0
 10
58.68272501301844
 20
39.82198261890109
 30
0.0
 10
58.27915388887723
 20
40.69212896428594
 30
0.0
 10
57.295779513082316
 20
40.74366543152521
 30
0.0
 10
56.312405137287435
 20
40.69212896428594
 30
0.0
 10
55.9088340131499
 20
39.821982618909004
 30
0.0
 10
55.52322123574663
 20
38.81119509985865
 30
0.0
 10
55.260231109359154
 20
37.944598813223344
 30
0.0
 10
55.097619107197445
 20
37.233555212647204
 30
0.0
 10
55.01221095277566
 20
36.687009447281504
 30
0.0
 10
54.9628357761696
 20
36.108905906339345
 30
0.0
 10
54.861194648611104
 20
35.720622547797475
 30
0.0
 10
54.70681145620965
 20
35.52469439304587
 30
0.0
 10
52.44217312924649
 20
35.28667131353704
 30
0.0
 10
52.25042782607215
 20
35.44621989745754
 30
0.0
 10
52.070279151424465
 20
35.804885954332924
 30
0.0
 10
51.901788456226086
 20
36.36009086942839
 30
0.0
 10
51.70461342070877
 20
36.87693594471679
 30
0.0
 10
51.397720603702865
 20
37.5386326003207
 30
0.0
 10
50.96030194334988
 20
38.33161295705301
 30
0.0
 10
50.372961188182224
 20
39.2401389391052
 30
0.0
 10
49.7972954634502
 20
40.007363344345265
 30
0.0
 10
48.82469514310084
 20
39.85331858694729
 30
0.0
 10
47.873524890836464
 20
39.59845328598853
 30
0.0
 10
47.6596863619621
 20
38.663414571186124
 30
0.0
 10
47.49265469107604
 20
37.5945417800245
 30
0.0
 10
47.41558702914419
 20
36.69220397960174
 30
0.0
 10
47.404362766620125
 20
35.96288945136437
 30
0.0
 10
47.434454239475826
 20
35.41052966848523
 30
0.0
 10
47.50635251360782
 20
34.83479340048436
 30
0.0
 10
47.48766113814143
 20
34.43386258623446
 30
0.0
 10
47.377387342833536
 20
34.210117861181935
 30
0.0
 10
45.21172457769903
 20
33.5064513733915
 30
0.0
 10
44.99099735359658
 20
33.622647347764456
 30
0.0
 10
44.740214493390674
 20
33.9360206752172
 30
0.0
 10
44.45997213148858
 20
34.44406184550769
 30
0.0
 10
44.15964771007867
 20
34.90861762083067
 30
0.0
 10
43.72188676696685
 20
35.49204801243969
 30
0.0
 10
43.12915686707289
 20
36.1767553925372
 30
0.0
 10
42.365757743512134
 20
36.94331289259279
 30
0.0
 10
41.6431567727107
 20
37.57408396962793
 30
0.0
 10
40.72383780886024
 20
37.221190482679724
 30
0.0
 10
39.84644238437158
 20
36.774135184632776
 30
0.0
 10
39.8316822205833
 20
35.81506977905533
 30
0.0
 10
39.89053174173907
 20
34.73482658577691
 30
0.0
 10
40.00275477090093
 20
33.83618376334234
 30
0.0
 10
40.14340880214681
 20
33.12047285196709
 30
0.0
 10
40.28768476052129
 20
32.58643982460263
 30
0.0
 10
40.47771418580556
 20
32.0382332671438
 30
0.0
 10
40.542789465230335
 20
31.642177597648086
 30
0.0
 10
40.48144456102334
 20
31.40039502042576
 30
0.0
 10
38.50940721255678
 20
30.261838726436583
 30
0.0
 10
38.26934490638624
 20
30.329603769611772
 30
0.0
 10
37.958888275002785
 20
30.58398844950011
 30
0.0
 10
37.579142182364144
 20
31.022662037991925
 30
0.0
 10
37.18879399339372
 20
31.41462519678193
 30
0.0
 10
36.63929717800002
 20
31.894290616673125
 30
0.0
 10
35.917161179424085
 20
32.440800022035056
 30
0.0
 10
35.01106789236525
 20
33.03188679899061
 30
0.0
 10
34.17311280534259
 20
33.49863682497892
 30
0.0
 10
33.34725384809319
 20
32.96231774723099
 30
0.0
 10
32.581979641640764
 20
32.34261091382983
 30
0.0
 10
32.76694293292325
 20
31.40143457780749
 30
0.0
 10
33.04910163965498
 20
30.35703279354049
 30
0.0
 10
33.34571067503035
 20
29.501359952601202
 30
0.0
 10
33.63209574394779
 20
28.830532659277146
 30
0.0
 10
33.88425063614723
 20
28.33816619329799
 30
0.0
 10
34.184106014836516
 20
27.841448603529077
 30
0.0
 10
34.33010384717576
 20
27.467577612030468
 30
0.0
 10
34.320368900749
 20
27.218324241464476
 30
0.0
 10
32.62814446396348
 20
25.694638514723135
 30
0.0
 10
32.37923895045125
 20
25.711010969141043
 30
0.0
 10
32.02267699241791
 20
25.89528917028074
 30
0.0
 10
31.560023895514956
 20
26.245423036167356
 30
0.0
 10
31.096712027940445
 20
26.547662907537358
 30
0.0
 10
30.45949498787584
 20
26.902599675171427
 30
0.0
 10
29.639513698948676
 20
27.287026022340356
 30
0.0
 10
28.630326872954214
 20
27.676808747693894
 30
0.0
 10
27.713640327967852
 20
27.959138506784573
 30
0.0
 10
27.01733537666219
 20
27.262833555478934
 30
0.0
 10
26.397628543261042
 20
26.497559349026496
 30
0.0
 10
26.774231506232905
 20
25.61540600470858
 30
0.0
 10
27.267367709108743
 20
24.652490999021243
 30
0.0
 10
27.735399512563646
 20
23.87718514870012
 30
0.0
 10
28.154999217412936
 20
23.280559845132032
 30
0.0
 10
28.5040126646748
 20
22.85137871773789
 30
0.0
 10
28.90058887785463
 20
22.42785903784724
 30
0.0
 10
29.12112845725978
 20
22.09251268070628
 30
0.0
 10
29.16342893248558
 20
21.846682085140735
 30
0.0
 10
27.824975735462385
 20
20.004459303361145
 30
0.0
 10
27.57810537993011
 20
19.968723614199956
 30
0.0
 10
27.19102156378704
 20
20.074841494936287
 30
0.0
 10
26.66568162301031
 20
20.321133108149766
 30
0.0
 10
26.149655028661734
 20
20.520440359413076
 30
0.0
 10
25.45256720628365
 20
20.735136034868827
 30
0.0
 10
24.570577744038147
 20
20.940678047791202
 30
0.0
 10
23.50240368601969
 20
21.112121346059737
 30
0.0
 10
22.547049283835605
 20
21.197691673012038
 30
0.0
 10
22.010730206087622
 20
20.37183271576261
 30
0.0
 10
21.563674908040696
 20
19.494437291273947
 30
0.0
 10
22.11545818607855
 20
18.70986127284852
 30
0.0
 10
22.798019466702762
 20
17.870517052068244
 30
0.0
 10
23.417018802560463
 20
17.209462778354553
 30
0.0
 10
23.95149462277692
 20
16.71311485323419
 30
0.0
 10
24.382113062703517
 20
16.365876339131734
 30
0.0
 10
24.858077826874137
 20
16.034064411403467
 30
0.0
 10
25.14352051545888
 20
15.751898933597579
 30
0.0
 10
25.236007678589665
 20
15.520235089684775
 30
0.0
 10
24.309822548649727
 20
13.439989228396374
 30
0.0
 10
24.07577677024957
 20
13.353707216751294
 30
0.0
 10
23.675088516196453
 20
13.377026916485992
 30
0.0
 10
23.110021607818602
 20
13.50871215169063
 30
0.0
 10
22.56383312503931
 20
13.596376099584738
 30
0.0
 10
21.837340603184174
 20
13.661447451620614
 30
0.0
 10
20.931890139375454
 20
13.679121958031725
 30
0.0
 10
19.851413181336227
 20
13.624732934404694
 30
0.0
 10
18.899144493628903
 20
13.50980399531881
 30
0.0
 10
18.54625100668069
 20
12.590485031468395
 30
0.0
 10
18.291385705721943
 20
11.639314779204014
 30
0.0
 10
18.994233721825594
 20
10.986605823489722
 30
0.0
 10
19.836388876942515
 20
10.307515757685026
 30
0.0
 10
20.57930250393766
 20
9.789604304430389
 30
0.0
 10
21.20529528147827
 20
9.415226543827114
 30
0.0
 10
21.698698621908314
 20
9.165106632317869
 30
0.0
 10
22.233249992943108
 20
8.939504230203994
 30
0.0
 10
22.5711205755103
 20
8.72285161709348
 30
0.0
 10
22.709752293714615
 20
8.515479346458855
 30
0.0
 10
22.23631396536566
 20
6.288127131927103
 30
0.0
 10
22.025321687689953
 20
6.155069735734045
 30
0.0
 10
21.62854099514447
 20
6.094572071688375
 30
0.0
 10
21.048443254553483
 20
6.105895652209854
 30
0.0
 10
20.49596394094405
 20
6.078084961553502
 30
0.0
 10
19.77181792891482
 20
5.990688059838539
 30
0.0
 10
18.882478993644703
 20
5.8197225989965276
 30
0.0
 10
17.83692116335469
 20
5.541878314793928
 30
0.0
 10
16.929356901269088
 20
5.23147305579815
 30
0.0
  0
LWPOLYLINE
  8
OpenJsCad
  90
31
  70
1
 10
56.67774552433243
 20
1.9021130325903075
 30
0.0
 10
57.08672258654702
 20
1.9890437907365468
 30
0.0
 10
57.50483643961763
 20
1.9890437907365466
 30
0.0
 10
57.913813501832216
 20
1.902113032590307
 30
0.0
 10
58.29577951308232
 20
1.7320508075688765
 30
0.0
 10
58.63404072580004
 20
1.4862896509547885
 30
0.0
 10
58.913813501832216
 20
1.1755705045849458
 30
0.0
 10
59.12287042836753
 20
0.8134732861515994
 30
0.0
 10
59.252074714549934
 20
0.415823381635517
 30
0.0
 10
59.29577951308232
 20
-2.248201624865942e-15
 30
0.0
 10
59.252074714549934
 20
-0.4158233816355197
 30
0.0
 10
59.12287042836753
 20
-0.8134732861516021
 30
0.0
 10
58.913813501832216
 20
-1.1755705045849476
 30
0.0
 10
58.63404072580004
 20
-1.4862896509547892
 30
0.0
 10
58.29577951308232
 20
-1.7320508075688776
 30
0.0
 10
57.913813501832216
 20
-1.9021130325903075
 30
0.0
 10
57.50483643961763
 20
-1.9890437907365468
 30
0.0
 10
57.08672258654701
 20
-1.9890437907365468
 30
0.0
 10
56.67774552433243
 20
-1.902113032590307
 30
0.0
 10
56.29577951308232
 20
-1.732050807568877
 30
0.0
 10
55.957518300364605
 20
-1.4862896509547874
 30
0.0
 10
55.67774552433243
 20
-1.1755705045849454
 30
0.0
 10
55.46868859779712
 20
-0.8134732861515996
 30
0.0
 10
55.33948431161471
 20
-0.4158233816355177
 30
0.0
 10
55.29577951308232
 20
6.938893903907228e-16
 30
0.0
 10
55.33948431161471
 20
0.41582338163551946
 30
0.0
 10
55.46868859779712
 20
0.8134732861516014
 30
0.0
 10
55.67774552433243
 20
1.1755705045849472
 30
0.0
 10
55.957518300364605
 20
1.4862896509547892
 30
0.0
 10
56.29577951308232
 20
1.7320508075688776
 30
0.0
 10
56.67774552433243
 20
1.9021130325903075
 30
0.0
  0
ENDSEC
  0
EOF
