<?xml version="1.0" encoding="utf-8"?><!-- Generator: Iparigrafika Gear Generator by Abel Vincze http://geargenerator.com/ --><svg version="1.2" class="svggear" xmlns="http://www.w3.org/2000/svg" xmlns:xlink="http://www.w3.org/1999/xlink" x="0px" y="0px" width="376px" height="376px" viewBox="-188 -188 376 376" overflow="scroll" xml:space="preserve"><polygon id="gearpoly1" data-id="1" class="gear" fill="#ddd" stroke="#444" stroke-width="1" stroke-miterlimit="10" points="133.75,0 144.8106,-0.0003 144.9306,-0.0042 145.1546,-0.0174 145.4823,-0.0454 145.9128,-0.0938 146.4452,-0.1681 147.0784,-0.2739 147.811,-0.4165 148.6414,-0.6015 149.5678,-0.834 150.5882,-1.1194 151.7003,-1.4629 152.9016,-1.8696 154.1896,-2.3445 155.5612,-2.8926 157.0135,-3.5185 158.5433,-4.2271 160.1469,-5.0229 161.8209,-5.9103 163.5613,-6.8937 165.3641,-7.9773 167.2252,-9.165 169.1403,-10.4607 171.1047,-11.8681 173.1138,-13.3909 175.1628,-15.0323 177.2466,-16.7955 179.3603,-18.6836 181.4984,-20.6993 183.6556,-22.8454 185.8094,-25.1218 184.461,-33.6214 181.7084,-35.1194 178.9928,-36.4924 176.3358,-37.7474 173.7416,-38.8886 171.2143,-39.9202 168.7579,-40.8469 166.3761,-41.673 164.0726,-42.4033 161.8506,-43.0427 159.7132,-43.5961 157.6635,-44.0684 155.7042,-44.4648 153.8378,-44.7906 152.0666,-45.051 150.3927,-45.2513 148.8179,-45.397 147.344,-45.4936 145.9723,-45.5465 144.7041,-45.5614 143.5403,-45.5439 142.4817,-45.4995 141.5288,-45.4339 140.6819,-45.3527 139.9411,-45.2616 139.3063,-45.1662 138.777,-45.0721 138.3526,-44.9849 138.0324,-44.9101 137.8153,-44.8533 137.7,-44.8199 127.1824,-41.3968 118.4297,-62.1567 128.2233,-67.2971 128.3277,-67.3563 128.52,-67.4721 128.7971,-67.6492 129.1557,-67.8921 129.5926,-68.2053 130.1042,-68.5933 130.6866,-69.06 131.3359,-69.6097 132.0482,-70.2461 132.819,-70.973 133.6441,-71.794 134.5188,-72.7124 135.4385,-73.7314 136.3984,-74.8541 137.3934,-76.0833 138.4187,-77.4216 139.4688,-78.8715 140.5386,-80.4352 141.6226,-82.1148 142.7154,-83.9121 143.8114,-85.8286 144.9049,-87.8659 145.9903,-90.025 147.0616,-92.307 148.1131,-94.7126 149.1388,-97.2423 150.1329,-99.8963 151.0894,-102.6748 152.0022,-105.5776 152.8514,-108.5942 147.7074,-115.4936 144.574,-115.5408 141.5314,-115.4945 138.5955,-115.371 135.7681,-115.1759 133.0509,-114.9149 130.4452,-114.5938 127.9524,-114.2185 125.5732,-113.7946 123.3086,-113.3281 121.1589,-112.8248 119.1245,-112.2905 117.2054,-111.731 115.4014,-111.1521 113.712,-110.5595 112.1368,-109.959 110.6747,-109.3562 109.3247,-108.7567 108.0855,-108.1662 106.9556,-107.59 105.9333,-107.0336 105.0166,-106.5023 104.2034,-106.0014 103.4912,-105.536 102.8776,-105.111 102.3598,-104.7315 101.9349,-104.4022 101.5997,-104.1278 101.3509,-103.9128 101.185,-103.7616 101.0985,-103.6784 93.3764,-95.7596 75.9787,-110.0741 82.2616,-119.1769 82.3265,-119.2779 82.4429,-119.4698 82.606,-119.7553 82.8107,-120.1371 83.052,-120.6175 83.3246,-121.1987 83.6234,-121.8827 83.943,-122.6712 84.2778,-123.5657 84.6226,-124.5676 84.9716,-125.6779 85.3193,-126.8976 85.6601,-128.2274 85.9883,-129.6675 86.2982,-131.2184 86.584,-132.8798 86.8401,-134.6517 87.0606,-136.5334 87.24,-138.5244 87.3724,-140.6236 87.4522,-142.83 87.4736,-145.1421 87.4312,-147.5583 87.3194,-150.0767 87.1325,-152.6954 86.8651,-155.412 86.512,-158.2241 86.0676,-161.1288 85.5269,-164.1233 84.877,-167.189 77.1159,-170.9075 74.3194,-169.4932 71.6469,-168.0383 69.1046,-166.5645 66.6918,-165.0777 64.4071,-163.5839 62.2491,-162.0887 60.2162,-160.5978 58.3066,-159.1169 56.5181,-157.6514 54.8486,-156.2068 53.2955,-154.7882 51.8562,-153.401 50.5279,-152.05 49.3074,-150.7402 48.1917,-149.4764 47.1772,-148.2632 46.2604,-147.105 45.4377,-146.0062 44.705,-144.971 44.0583,-144.0032 43.4935,-143.1068 43.0062,-142.2853 42.5919,-141.5422 42.2461,-140.8808 41.964,-140.3041 41.7407,-139.8151 41.5715,-139.4163 41.4511,-139.1103 41.3745,-138.8993 41.3365,-138.7855 38.179,-128.1851 16.1218,-132.7748 17.4547,-143.7548 17.4653,-143.8744 17.4792,-144.0984 17.4909,-144.427 17.4947,-144.8602 17.4851,-145.3977 17.4564,-146.0391 17.4031,-146.7835 17.3197,-147.6302 17.2005,-148.5779 17.0401,-149.6252 16.8332,-150.7706 16.5742,-152.0122 16.2581,-153.3479 15.8794,-154.7757 15.433,-156.2928 14.914,-157.8968 14.3173,-159.5847 13.6381,-161.3534 12.8717,-163.1997 12.0133,-165.12 11.0586,-167.1107 10.0032,-169.1679 8.8428,-171.2877 7.5733,-173.4657 6.1909,-175.6976 4.6917,-177.9788 3.0721,-180.3046 1.3288,-182.6701 -0.5415,-185.0703 -2.5418,-187.4828 -11.1419,-187.1687 -12.9609,-184.6167 -14.6511,-182.0864 -16.2172,-179.6 -17.6628,-177.1623 -18.9916,-174.7778 -20.2075,-172.451 -21.3147,-170.1862 -22.3174,-167.9875 -23.22,-165.8587 -24.0269,-163.8037 -24.7429,-161.8258 -25.3726,-159.9286 -25.9209,-158.115 -26.3929,-156.3881 -26.7935,-154.7506 -27.128,-153.2049 -27.4015,-151.7533 -27.6194,-150.398 -27.7871,-149.1409 -27.9099,-147.9834 -27.9935,-146.9272 -28.0432,-145.9733 -28.0647,-145.1229 -28.0635,-144.3765 -28.0453,-143.7348 -28.0157,-143.198 -27.9803,-142.7662 -27.9447,-142.4393 -27.9144,-142.2169 -27.8952,-142.0985 -25.7648,-131.245 -47.4284,-125.0584 -51.3508,-135.4002 -51.397,-135.511 -51.4888,-135.7158 -51.6312,-136.0122 -51.8291,-136.3975 -52.0874,-136.869 -52.4108,-137.4236 -52.804,-138.058 -53.2714,-138.7689 -53.8173,-139.5526 -54.446,-140.4055 -55.1615,-141.3235 -55.9678,-142.3025 -56.8686,-143.3384 -57.8674,-144.4265 -58.9676,-145.5625 -60.1726,-146.7416 -61.4854,-147.9588 -62.9087,-149.2093 -64.4454,-150.4879 -66.0978,-151.7894 -67.8683,-153.1084 -69.7589,-154.4395 -71.7715,-155.7771 -73.9077,-157.1157 -76.169,-158.4495 -78.5566,-159.7727 -81.0715,-161.0795 -83.7144,-162.3639 -86.486,-163.6199 -89.3782,-164.8265 -96.8473,-160.5517 -97.2719,-157.4468 -97.5927,-154.4208 -97.824,-151.4914 -97.9711,-148.6611 -98.0395,-145.9322 -98.0349,-143.3069 -97.9627,-140.787 -97.8288,-138.3741 -97.6386,-136.0697 -97.3981,-133.8751 -97.1129,-131.7911 -96.7888,-129.8185 -96.4316,-127.9579 -96.0469,-126.2094 -95.6407,-124.5732 -95.2185,-123.0492 -94.7861,-121.6368 -94.3492,-120.3355 -93.9135,-119.1444 -93.4844,-118.0624 -93.0675,-117.0884 -92.6682,-116.2207 -92.292,-115.4576 -91.9441,-114.7973 -91.6298,-114.2375 -91.3541,-113.776 -91.1221,-113.4101 -90.9386,-113.1372 -90.8085,-112.9544 -90.7364,-112.8584 -83.8062,-104.2381 -100.1133,-88.6927 -108.3925,-96.027 -108.4849,-96.1036 -108.6613,-96.2423 -108.9251,-96.4386 -109.2795,-96.6878 -109.7273,-96.9853 -110.2714,-97.326 -110.9144,-97.7051 -111.6586,-98.1173 -112.5062,-98.5576 -113.4592,-99.0205 -114.5194,-99.5009 -115.6883,-99.9931 -116.9673,-100.4917 -118.3574,-100.9911 -119.8595,-101.4856 -121.4744,-101.9696 -123.2025,-102.4374 -125.0439,-102.8831 -126.9988,-103.3012 -129.0667,-103.6856 -131.2474,-104.0308 -133.54,-104.3308 -135.9437,-104.5799 -138.4573,-104.7724 -141.0794,-104.9026 -143.8085,-104.9646 -146.6426,-104.953 -149.5797,-104.862 -152.6175,-104.6862 -155.7392,-104.4105 -160.3661,-97.1543 -159.2992,-94.2077 -158.177,-91.3792 -157.0204,-88.6779 -155.8353,-86.1035 -154.6278,-83.6553 -153.4036,-81.3329 -152.1686,-79.1351 -150.9287,-77.0609 -149.6895,-75.1088 -148.4566,-73.2773 -147.2356,-71.5646 -146.0319,-69.9686 -144.8509,-68.4871 -143.6978,-67.1177 -142.5777,-65.8577 -141.4956,-64.7044 -140.4564,-63.6547 -139.4648,-62.7055 -138.5254,-61.8533 -137.6426,-61.0947 -136.8208,-60.426 -136.0641,-59.8432 -135.3763,-59.3424 -134.7614,-58.9194 -134.223,-58.5698 -133.7644,-58.2892 -133.3889,-58.0731 -133.0997,-57.9168 -132.8995,-57.8153 -132.791,-57.7638 -122.6486,-53.3516 -129.8635,-32.0085 -140.6027,-34.6552 -140.7202,-34.6801 -140.9409,-34.7209 -141.2657,-34.7721 -141.6952,-34.8281 -142.23,-34.8834 -142.8701,-34.9322 -143.6156,-34.9691 -144.4661,-34.9882 -145.4213,-34.9842 -146.4803,-34.9512 -147.6423,-34.8838 -148.906,-34.7764 -150.2702,-34.6236 -151.7331,-34.4197 -153.293,-34.1595 -154.9479,-33.8376 -156.6954,-33.4487 -158.5331,-32.9877 -160.4583,-32.4494 -162.468,-31.8288 -164.5593,-31.121 -166.7288,-30.3212 -168.9729,-29.4248 -171.2881,-28.4271 -173.6703,-27.3237 -176.1156,-26.1104 -178.6196,-24.7831 -181.178,-23.3376 -183.7862,-21.7702 -186.4222,-20.0753 -187.147,-11.5 -184.8329,-9.3867 -182.5248,-7.4038 -180.2453,-5.5494 -177.9996,-3.8205 -175.7927,-2.214 -173.6294,-0.7265 -171.5146,0.6456 -169.4527,1.906 -167.4483,3.0586 -165.5055,4.1074 -163.6284,5.0565 -161.8209,5.9103 -160.0866,6.6733 -158.4292,7.35 -156.8519,7.9451 -155.3577,8.4634 -153.9498,8.9099 -152.6306,9.2896 -151.4028,9.6076 -150.2686,9.869 -149.2302,10.0793 -148.2893,10.2436 -147.4476,10.3674 -146.7065,10.4563 -146.0673,10.5156 -145.5308,10.5508 -145.0979,10.5677 -144.7692,10.5718 -144.5447,10.5686 -144.4248,10.5637 -133.3936,9.7571 -129.8635,32.0085 -140.6026,34.6557 -140.7182,34.6882 -140.9325,34.7547 -141.244,34.8603 -141.6504,35.0103 -142.1495,35.2099 -142.739,35.4641 -143.4162,35.7779 -144.1782,36.1562 -145.0221,36.6037 -145.9445,37.125 -146.942,37.7247 -148.0111,38.4071 -149.148,39.1764 -150.3487,40.0367 -151.609,40.9921 -152.9247,42.0462 -154.2913,43.2026 -155.7042,44.4648 -157.1587,45.8362 -158.6499,47.3197 -160.1727,48.9183 -161.7219,50.6346 -163.2924,52.4713 -164.8788,54.4306 -166.4754,56.5147 -168.0767,58.7253 -169.6771,61.0644 -171.2707,63.5332 -172.8517,66.1332 -174.3981,68.8589 -171.0548,76.7888 -168.0236,77.5846 -165.0584,78.2678 -162.1782,78.8504 -159.3863,79.3376 -156.6856,79.7345 -154.0788,80.0463 -151.5686,80.2785 -149.1571,80.4363 -146.8467,80.5254 -144.639,80.5511 -142.5359,80.5192 -140.5386,80.4352 -138.6484,80.3049 -136.8664,80.1338 -135.1932,79.9277 -133.6293,79.6923 -132.1751,79.4333 -130.8306,79.1565 -129.5957,78.8675 -128.4699,78.5719 -127.4527,78.2755 -126.5432,77.9837 -125.7404,77.7022 -125.0429,77.4365 -124.4493,77.1919 -123.9579,76.9739 -123.5668,76.7876 -123.2738,76.6384 -123.0766,76.5313 -122.9726,76.4713 -113.5798,70.6306 -100.1133,88.6927 -108.3921,96.0274 -108.4793,96.1099 -108.6383,96.2683 -108.8649,96.5066 -109.1551,96.8283 -109.5043,97.237 -109.9081,97.736 -110.3619,98.3286 -110.8609,99.0177 -111.4001,99.8061 -111.9746,100.6964 -112.5792,101.6909 -113.2087,102.792 -113.8578,104.0015 -114.5211,105.3213 -115.1931,106.7529 -115.8682,108.2977 -116.5409,109.9567 -117.2054,111.731 -117.856,113.6212 -118.4869,115.6278 -119.0924,117.7509 -119.6666,119.9907 -120.2036,122.3468 -120.6977,124.8189 -121.143,127.4062 -121.5335,130.1079 -121.8636,132.9227 -122.1273,135.8494 -122.319,138.8862 -122.4215,142.0184 -115.7759,147.4862 -112.7222,146.7822 -109.7791,146.0092 -106.9581,145.1866 -104.2595,144.3205 -101.6837,143.4168 -99.2306,142.4815 -96.9,141.5205 -94.6915,140.5396 -92.6043,139.5447 -90.6375,138.5416 -88.7901,137.5359 -87.0606,136.5334 -85.4476,135.5396 -83.9491,134.5599 -82.5634,133.5999 -81.288,132.6647 -80.1207,131.7596 -79.0589,130.8896 -78.0997,130.0598 -77.2403,129.2749 -76.4773,128.5397 -75.8076,127.8587 -75.2275,127.2364 -74.7335,126.6769 -74.3215,126.1845 -73.9878,125.7631 -73.728,125.4164 -73.5379,125.1481 -73.413,124.9616 -73.3488,124.8602 -67.7463,115.3235 -47.4284,125.0584 -51.3503,135.4004 -51.3892,135.5139 -51.4563,135.7281 -51.5463,136.0444 -51.6537,136.4641 -51.773,136.9883 -51.8986,137.6178 -52.025,138.3534 -52.1466,139.1954 -52.2577,140.1441 -52.3526,141.1994 -52.4258,142.361 -52.4715,143.6285 -52.4842,145.0011 -52.4582,146.478 -52.3879,148.0579 -52.2678,149.7395 -52.0924,151.5211 -51.8562,153.401 -51.5539,155.377 -51.1801,157.4469 -50.7295,159.6083 -50.1971,161.8583 -49.5776,164.1941 -48.8663,166.6127 -48.0582,169.1105 -47.1485,171.6842 -46.1326,174.33 -45.006,177.044 -43.7644,179.8221 -42.3996,182.6432 -33.9742,184.3963 -31.5974,182.3538 -29.3507,180.3016 -27.2351,178.2622 -25.2482,176.2413 -23.3873,174.2441 -21.6499,172.2759 -20.0329,170.3418 -18.5331,168.447 -17.1473,166.5961 -15.8721,164.7938 -14.7036,163.0448 -13.6381,161.3534 -12.6717,159.7238 -11.8002,158.16 -11.0193,156.6659 -10.3246,155.2452 -9.7117,153.9013 -9.1757,152.6375 -8.7121,151.457 -8.3158,150.3626 -7.9819,149.357 -7.7054,148.4428 -7.481,147.6222 -7.3035,146.8972 -7.1676,146.2698 -7.0679,145.7415 -6.999,145.3138 -6.9553,144.9879 -6.9314,144.7647 -6.9218,144.6451 -6.3928,133.5971 16.1218,132.7748 17.4552,143.7547 17.4736,143.8734 17.5137,144.0942 17.581,144.4161 17.681,144.8376 17.8189,145.3572 18.0002,145.973 18.2302,146.6831 18.5138,147.4852 18.8563,148.3768 19.2627,149.3553 19.7377,150.4179 20.2863,151.5614 20.9129,152.7827 21.6223,154.0783 22.4188,155.4446 23.3066,156.8778 24.2898,158.3738 25.3726,159.9286 26.5586,161.5378 27.8515,163.1969 29.2549,164.9013 30.772,166.6461 32.406,168.4266 34.1598,170.2375 36.0362,172.0737 38.0378,173.9298 40.1668,175.8005 42.4256,177.68 44.816,179.5629 47.3355,181.4266 55.6106,179.0634 56.7659,176.1503 57.8015,173.2891 58.7271,170.5002 59.5473,167.7873 60.2668,165.1541 60.8906,162.6039 61.4236,160.14 61.8709,157.7651 62.2378,155.4823 62.5295,153.2938 62.7513,151.2021 62.9087,149.2093 63.0071,147.3172 63.0521,145.5275 63.0492,143.8417 63.004,142.2609 62.9222,140.786 62.8095,139.418 62.6714,138.1572 62.5137,137.004 62.342,135.9585 62.162,135.0204 61.9794,134.1895 61.7996,133.4651 61.6284,132.8464 61.4712,132.3323 61.3334,131.9216 61.2206,131.6127 61.138,131.404 61.091,131.2936 56.4251,121.2653 75.9787,110.0741 82.262,119.1767 82.3334,119.2732 82.4715,119.4501 82.6807,119.7038 82.9651,120.0306 83.3287,120.4265 83.7755,120.8876 84.309,121.4095 84.933,121.9878 85.6506,122.6182 86.4651,123.2958 87.3796,124.0158 88.3967,124.7735 89.5192,125.5637 90.7494,126.3812 92.0895,127.2209 93.5417,128.0773 95.1076,128.945 96.7888,129.8185 98.5868,130.6922 100.5027,131.5604 102.5374,132.4174 104.6916,133.2574 106.9658,134.0745 109.3603,134.863 111.8751,135.6168 114.51,136.3302 117.2645,136.9971 120.138,137.6117 123.1297,138.168 126.2266,138.6474 132.4556,132.7093 132.1249,129.5929 131.7122,126.5782 131.2356,123.6785 130.7011,120.8953 130.1145,118.2293 129.4817,115.6814 128.8086,113.2519 128.1011,110.9412 127.3651,108.7493 126.6063,106.676 125.8307,104.7208 125.0439,102.8831 124.2518,101.1621 123.4599,99.5565 122.6739,98.0651 121.8992,96.6863 121.1414,95.4184 120.4058,94.2595 119.6976,93.2073 119.0221,92.2595 118.3842,91.4135 117.7889,90.6665 117.241,90.0157 116.7452,89.4578 116.306,88.9895 115.9279,88.6074 115.6151,88.3077 115.3716,88.0866 115.2015,87.9402 115.1086,87.8643 106.3167,81.153 118.4297,62.1567 128.2235,67.2966 128.3316,67.3489 128.5361,67.4413 128.8392,67.5688 129.2429,67.726 129.7489,67.9076 130.3587,68.1082 131.0737,68.3224 131.895,68.5446 132.8233,68.7692 133.8595,68.9906 135.0038,69.2033 136.2565,69.4014 137.6176,69.5795 139.0869,69.7317 140.6637,69.8523 142.3475,69.9358 144.1373,69.9764 146.0319,69.9686 148.03,69.9066 150.1299,69.785 152.3298,69.5983 154.6276,69.3409 157.0211,69.0076 159.5077,68.5929 162.0848,68.0918 164.7493,67.4989 167.4983,66.8094 170.3283,66.0182 173.2358,65.1205 176.2008,64.1057 178.9567,55.953 177.2156,53.3474 175.4491,50.8697 173.6797,48.5237 171.9129,46.3076 170.1546,44.2196 168.4102,42.2576 166.6852,40.4192 164.9849,38.702 163.3145,37.1033 161.6791,35.62 160.0837,34.2493 158.5331,32.9877 157.0318,31.8319 155.5845,30.7782 154.1954,29.8229 152.8688,28.9621 151.6085,28.1916 150.4186,27.5073 149.3026,26.9047 148.2639,26.3794 147.3059,25.9268 146.4317,25.542 145.6441,25.2203 144.9458,24.9567 144.3394,24.7462 143.827,24.5835 143.4107,24.4636 143.0924,24.381 142.8738,24.3304 142.7561,24.3063 131.8525,22.4496 "/><g class="guides"><polyline fill="none" stroke="#444" stroke-width="0.5" stroke-miterlimit="10" points="10,0 -10,0"/><polyline fill="none" stroke="#444" stroke-width="0.5" stroke-miterlimit="10" points="0,10 0,-10"/></g><circle fill="#c00" class="firstmarker" stroke="none" stroke-miterlimit="10" cx="160.4928" cy="-25.4621" r="9.8125"/><g class="geartext"><g class="text"><polyline fill="none" stroke="#444" stroke-width="0.5" stroke-linecap="square" stroke-miterlimit="1"  points="-63.26 -82.23 -65.61 -80.37 -67.91 -78.44 -70.15 -76.44 -72.33 -74.38 "/><polyline fill="none" stroke="#444" stroke-width="0.5" stroke-linecap="square" stroke-miterlimit="1"  points="-63.98 -73.9 -71.83 -82.98 "/><polyline fill="none" stroke="#444" stroke-width="0.5" stroke-linecap="square" stroke-miterlimit="1"  points="-66.92 -86.99 -67.51 -82.69 -67.91 -78.44 -68.12 -74.23 -68.14 -70.08 "/><polyline fill="none" stroke="#444" stroke-width="0.5" stroke-linecap="square" stroke-miterlimit="1"  points="-59.6 -77.48 -63.71 -78.05 -67.91 -78.44 -72.17 -78.65 -76.51 -78.69 "/><polyline fill="none" stroke="#444" stroke-width="0.5" stroke-linecap="square" stroke-miterlimit="1"  points="-61.78 -90.71 -60.75 -94.99 -51.05 -79.82 "/><polyline fill="none" stroke="#444" stroke-width="0.5" stroke-linecap="square" stroke-miterlimit="1"  points="-48.72 -81.27 -51.05 -79.82 -53.33 -78.31 "/><polyline fill="none" stroke="#444" stroke-width="0.5" stroke-linecap="square" stroke-miterlimit="1"  points="-24.82 -109.98 -20.86 -92.43 -24.64 -96.14 -28.65 -99.72 -32.89 -103.13 -37.35 -106.38 -31.39 -89.4 "/><polyline fill="none" stroke="#444" stroke-width="0.5" stroke-linecap="square" stroke-miterlimit="1"  points="-5.17 -106.62 -8.25 -106.43 -11.33 -106.15 -14.39 -105.78 -17.44 -105.32 "/><polyline fill="none" stroke="#444" stroke-width="0.5" stroke-linecap="square" stroke-miterlimit="1"  points="-4.88 -100.63 -7.79 -100.45 -10.69 -100.18 -13.58 -99.83 -16.46 -99.4 "/><polyline fill="none" stroke="#444" stroke-width="0.5" stroke-linecap="square" stroke-miterlimit="1"  points="1.03 -109.75 4.31 -112.67 3.62 -94.68 "/><polyline fill="none" stroke="#444" stroke-width="0.5" stroke-linecap="square" stroke-miterlimit="1"  points="6.36 -94.54 3.62 -94.68 0.89 -94.75 "/><polyline fill="none" stroke="#444" stroke-width="0.5" stroke-linecap="square" stroke-miterlimit="1"  points="13.68 -108.89 17.29 -111.42 20.5 -110.87 23.7 -110.23 26.16 -106.59 25.44 -103.67 21.81 -101.43 24.01 -97.85 23.3 -94.93 19.91 -92.63 17.23 -93.17 14.53 -93.63 12.19 -96.99 "/><polyline fill="none" stroke="#444" stroke-width="0.5" stroke-linecap="square" stroke-miterlimit="1"  points="18.86 -102.02 21.81 -101.43 "/><polyline fill="none" stroke="#444" stroke-width="0.5" stroke-linecap="square" stroke-miterlimit="1"  points="44.48 -93.73 47.17 -92.41 49.82 -91 52.43 -89.53 56.59 -90.52 58.18 -93.06 56.98 -97.29 54.15 -98.9 51.26 -100.42 48.34 -101.86 40.62 -85.6 "/><polyline fill="none" stroke="#444" stroke-width="0.5" stroke-linecap="square" stroke-miterlimit="1"  points="54.79 -77.3 61.73 -87.09 "/><polyline fill="none" stroke="#444" stroke-width="0.5" stroke-linecap="square" stroke-miterlimit="1"  points="63.46 -89.54 65.2 -91.99 "/><polyline fill="none" stroke="#444" stroke-width="0.5" stroke-linecap="square" stroke-miterlimit="1"  points="69.44 -68.8 65.35 -68.6 65.35 -72.69 75.38 -83.85 "/><polyline fill="none" stroke="#444" stroke-width="0.5" stroke-linecap="square" stroke-miterlimit="1"  points="75.84 -75.13 73.63 -77.29 71.37 -79.39 69.04 -81.42 66.66 -83.38 "/><polyline fill="none" stroke="#444" stroke-width="0.5" stroke-linecap="square" stroke-miterlimit="1"  points="77.81 -54.06 76.22 -56.29 74.56 -58.47 72.84 -60.6 73.3 -64.67 77.8 -68.64 82.06 -68.28 84 -65.88 85.87 -63.42 87.67 -60.91 "/><polyline fill="none" stroke="#444" stroke-width="0.5" stroke-linecap="square" stroke-miterlimit="1"  points="85.92 -52.61 90.01 -51.59 94.11 -50.39 95.53 -47.64 94.14 -43.6 85.98 -39.82 "/><polyline fill="none" stroke="#444" stroke-width="0.5" stroke-linecap="square" stroke-miterlimit="1"  points="80.81 -49.48 96.16 -58.88 "/><polyline fill="none" stroke="#444" stroke-width="0.5" stroke-linecap="square" stroke-miterlimit="1"  points="92.23 -21.72 92.82 -19.05 93.33 -16.36 93.76 -13.65 97.1 -11.28 109.02 -12.67 111.57 -16.24 111.06 -19.46 110.45 -22.67 109.75 -25.85 "/><polyline fill="none" stroke="#444" stroke-width="0.5" stroke-linecap="square" stroke-miterlimit="1"  points="110.45 -22.67 92.82 -19.05 "/><polyline fill="none" stroke="#444" stroke-width="0.5" stroke-linecap="square" stroke-miterlimit="1"  points="106.57 6.17 106.71 3.09 106.75 0 106.71 -3.09 106.57 -6.17 "/><polyline fill="none" stroke="#444" stroke-width="0.5" stroke-linecap="square" stroke-miterlimit="1"  points="100.58 5.82 100.71 2.91 100.75 0 100.71 -2.91 100.58 -5.82 "/><polyline fill="none" stroke="#444" stroke-width="0.5" stroke-linecap="square" stroke-miterlimit="1"  points="109.02 12.67 111.57 16.24 111.06 19.46 110.45 22.67 106.83 25.16 103.91 24.47 101.63 20.86 98.07 23.1 95.15 22.41 92.82 19.05 93.33 16.36 93.76 13.65 97.1 11.28 "/><polyline fill="none" stroke="#444" stroke-width="0.5" stroke-linecap="square" stroke-miterlimit="1"  points="102.19 17.91 101.63 20.86 "/><polyline fill="none" stroke="#444" stroke-width="0.5" stroke-linecap="square" stroke-miterlimit="1"  points="93.69 27.87 90.82 27.02 "/><polyline fill="none" stroke="#444" stroke-width="0.5" stroke-linecap="square" stroke-miterlimit="1"  points="84.79 42.29 85.98 39.82 87.09 37.32 88.13 34.78 89.1 32.22 94.75 34.26 96.51 38.09 95.36 40.86 94.14 43.6 95.53 47.64 98.21 48.98 102.31 47.38 103.64 44.41 104.88 41.39 103.21 37.32 "/><polyline fill="none" stroke="#444" stroke-width="0.5" stroke-linecap="square" stroke-miterlimit="1"  points="90.7 66.98 92.59 64.33 94.42 61.63 96.16 58.88 97.82 56.07 92.61 53.09 91.04 55.74 89.39 58.35 87.67 60.91 83.46 61.64 78.63 58.07 77.81 54.06 79.34 51.79 80.81 49.48 84.81 48.61 "/><polyline fill="none" stroke="#444" stroke-width="0.5" stroke-linecap="square" stroke-miterlimit="1"  points="69.36 77.16 67.1 79.13 64.79 81.04 62.42 82.88 61.73 87.09 63.46 89.54 67.83 90.06 70.41 88.07 72.92 85.99 75.38 83.85 63.34 70.46 "/><polyline fill="none" stroke="#444" stroke-width="0.5" stroke-linecap="square" stroke-miterlimit="1"  points="45.77 96.44 48.54 95.08 51.26 93.63 53.95 92.11 56.59 90.52 "/><polyline fill="none" stroke="#444" stroke-width="0.5" stroke-linecap="square" stroke-miterlimit="1"  points="43.19 91.02 45.81 89.73 48.38 88.37 50.92 86.94 53.41 85.43 "/><polyline fill="none" stroke="#444" stroke-width="0.5" stroke-linecap="square" stroke-miterlimit="1"  points="26.83 97.11 29.63 96.29 32.4 95.4 35.15 94.42 37.86 93.37 36.54 98.17 34.97 102.97 33.16 107.76 27.87 90.56 "/><polyline fill="none" stroke="#444" stroke-width="0.5" stroke-linecap="square" stroke-miterlimit="1"  points="6.96 103.52 3.97 103.67 0.97 103.75 -2.03 103.73 -5.17 106.62 -5.32 109.62 -2.21 112.73 1.05 112.75 4.31 112.67 7.57 112.5 6.36 94.54 "/><polyline fill="none" stroke="#444" stroke-width="0.5" stroke-linecap="square" stroke-miterlimit="1"  points="-10.05 94.22 -10.69 100.18 -14.39 105.78 -18.42 111.23 -20.48 104.77 -22.18 98.28 -20.86 92.43 "/><polyline fill="none" stroke="#444" stroke-width="0.5" stroke-linecap="square" stroke-miterlimit="1"  points="-10.69 100.18 -13.58 99.83 -16.46 99.4 -19.33 98.88 -22.18 98.28 "/><polyline fill="none" stroke="#444" stroke-width="0.5" stroke-linecap="square" stroke-miterlimit="1"  points="-41.12 98.51 -38.26 99.66 -35.36 100.72 -32.44 101.7 -29.48 102.6 "/><polyline fill="none" stroke="#444" stroke-width="0.5" stroke-linecap="square" stroke-miterlimit="1"  points="-38.81 92.97 -36.11 94.06 -33.37 95.06 -30.61 95.99 -27.82 96.83 "/><polyline fill="none" stroke="#444" stroke-width="0.5" stroke-linecap="square" stroke-miterlimit="1"  points="-51.05 79.82 -48.72 81.27 -46.35 82.64 -43.94 83.95 -41.49 85.18 -44.12 90.57 -48.11 91.92 -50.75 90.49 -53.35 88.98 -57.51 89.93 -59.13 92.46 -57.97 96.7 -55.15 98.34 -52.29 99.89 -48.06 98.67 "/><polyline fill="none" stroke="#444" stroke-width="0.5" stroke-linecap="square" stroke-miterlimit="1"  points="-66.13 91.32 -68.75 89.37 -71.3 87.34 -73.8 85.24 -76.23 83.08 -67.91 78.44 -59.92 73.4 "/></g></g><g class="guides gearguides" opacity="0.2"><circle class="pitch" fill="none" stroke="#f00" stroke-miterlimit="10" cx="0" cy="0" r="162.5"/><circle class="outer" fill="none" stroke="#ccc" stroke-miterlimit="10" stroke-dasharray="2,2" cx="0" cy="0" r="187.5"/><circle class="base" fill="none" stroke="#00f" stroke-miterlimit="10" stroke-dasharray="2,2" cx="0" cy="0" r="144.79"/></g></svg>