  0
SECTION
  2
HEADER
  9
$ACADVER
  1
AC1009
  9
$EXTMIN
 10
0.0
 20
0.0
 30
0.0
  9
$EXTMAX
 10
1000.0
 20
1000.0
 30
0.0
  9
$FILLMODE
 70
 0
  9
$SPLFRAME
 70
 1
  0
ENDSEC
  0
SECTION
  2
TABLES
  0
TABLE
  2
LAYER
 70
1
  0
LAYER
  2
0
 70
     0
 62
     7
  6
CONTINUOUS
  0
ENDTAB
  0
ENDSEC
  0
SECTION
  2
ENTITIES
  0
POLYLINE
  8
0
 62
     254
 66
     1
 10
0
 20
0
 30
0.0
 70
     1
 40
0
 41
0
  0
VERTEX
  8
0
 10
2.04428
 20
1.30208
 30
0.0
 40
0
 41
0
  0
VERTEX
  8
0
 10
2.23036
 20
1.30208
 30
0.0
 40
0
 41
0
  0
VERTEX
  8
0
 10
2.23193
 20
1.30214
 30
0.0
 40
0
 41
0
  0
VERTEX
  8
0
 10
2.23529
 20
1.30246
 30
0.0
 40
0
 41
0
  0
VERTEX
  8
0
 10
2.2404
 20
1.30311
 30
0.0
 40
0
 41
0
  0
VERTEX
  8
0
 10
2.24718
 20
1.30425
 30
0.0
 40
0
 41
0
  0
VERTEX
  8
0
 10
2.25564
 20
1.3061
 30
0.0
 40
0
 41
0
  0
VERTEX
  8
0
 10
2.26568
 20
1.30876
 30
0.0
 40
0
 41
0
  0
VERTEX
  8
0
 10
2.27735
 20
1.31239
 30
0.0
 40
0
 41
0
  0
VERTEX
  8
0
 10
2.29047
 20
1.31711
 30
0.0
 40
0
 41
0
  0
VERTEX
  8
0
 10
2.30501
 20
1.32308
 30
0.0
 40
0
 41
0
  0
VERTEX
  8
0
 10
2.3209
 20
1.3304
 30
0.0
 40
0
 41
0
  0
VERTEX
  8
0
 10
2.33806
 20
1.33925
 30
0.0
 40
0
 41
0
  0
VERTEX
  8
0
 10
2.35628
 20
1.34966
 30
0.0
 40
0
 41
0
  0
VERTEX
  8
0
 10
2.37554
 20
1.36182
 30
0.0
 40
0
 41
0
  0
VERTEX
  8
0
 10
2.39572
 20
1.37581
 30
0.0
 40
0
 41
0
  0
VERTEX
  8
0
 10
2.41667
 20
1.39176
 30
0.0
 40
0
 41
0
  0
VERTEX
  8
0
 10
2.43826
 20
1.40972
 30
0.0
 40
0
 41
0
  0
VERTEX
  8
0
 10
2.46039
 20
1.42985
 30
0.0
 40
0
 41
0
  0
VERTEX
  8
0
 10
2.48286
 20
1.4521
 30
0.0
 40
0
 41
0
  0
VERTEX
  8
0
 10
2.50549
 20
1.47661
 30
0.0
 40
0
 41
0
  0
VERTEX
  8
0
 10
2.52821
 20
1.50347
 30
0.0
 40
0
 41
0
  0
VERTEX
  8
0
 10
2.55083
 20
1.53267
 30
0.0
 40
0
 41
0
  0
VERTEX
  8
0
 10
2.57314
 20
1.56429
 30
0.0
 40
0
 41
0
  0
VERTEX
  8
0
 10
2.57129
 20
1.59289
 30
0.0
 40
0
 41
0
  0
VERTEX
  8
0
 10
2.56711
 20
1.61051
 30
0.0
 40
0
 41
0
  0
VERTEX
  8
0
 10
2.55599
 20
1.63693
 30
0.0
 40
0
 41
0
  0
VERTEX
  8
0
 10
2.52186
 20
1.65517
 30
0.0
 40
0
 41
0
  0
VERTEX
  8
0
 10
2.48856
 20
1.67117
 30
0.0
 40
0
 41
0
  0
VERTEX
  8
0
 10
2.45622
 20
1.685
 30
0.0
 40
0
 41
0
  0
VERTEX
  8
0
 10
2.42497
 20
1.69678
 30
0.0
 40
0
 41
0
  0
VERTEX
  8
0
 10
2.39492
 20
1.70665
 30
0.0
 40
0
 41
0
  0
VERTEX
  8
0
 10
2.36615
 20
1.71468
 30
0.0
 40
0
 41
0
  0
VERTEX
  8
0
 10
2.33882
 20
1.72108
 30
0.0
 40
0
 41
0
  0
VERTEX
  8
0
 10
2.31293
 20
1.72597
 30
0.0
 40
0
 41
0
  0
VERTEX
  8
0
 10
2.28863
 20
1.72944
 30
0.0
 40
0
 41
0
  0
VERTEX
  8
0
 10
2.26594
 20
1.73167
 30
0.0
 40
0
 41
0
  0
VERTEX
  8
0
 10
2.24496
 20
1.73286
 30
0.0
 40
0
 41
0
  0
VERTEX
  8
0
 10
2.22569
 20
1.73307
 30
0.0
 40
0
 41
0
  0
VERTEX
  8
0
 10
2.20822
 20
1.73247
 30
0.0
 40
0
 41
0
  0
VERTEX
  8
0
 10
2.19254
 20
1.73133
 30
0.0
 40
0
 41
0
  0
VERTEX
  8
0
 10
2.17865
 20
1.72965
 30
0.0
 40
0
 41
0
  0
VERTEX
  8
0
 10
2.16667
 20
1.72771
 30
0.0
 40
0
 41
0
  0
VERTEX
  8
0
 10
2.15647
 20
1.72553
 30
0.0
 40
0
 41
0
  0
VERTEX
  8
0
 10
2.14806
 20
1.72342
 30
0.0
 40
0
 41
0
  0
VERTEX
  8
0
 10
2.14144
 20
1.7214
 30
0.0
 40
0
 41
0
  0
VERTEX
  8
0
 10
2.13661
 20
1.71972
 30
0.0
 40
0
 41
0
  0
VERTEX
  8
0
 10
2.13351
 20
1.71847
 30
0.0
 40
0
 41
0
  0
VERTEX
  8
0
 10
2.13206
 20
1.71783
 30
0.0
 40
0
 41
0
  0
VERTEX
  8
0
 10
1.96565
 20
1.6345
 30
0.0
 40
0
 41
0
  0
VERTEX
  8
0
 10
1.82688
 20
1.82688
 30
0.0
 40
0
 41
0
  0
VERTEX
  8
0
 10
1.9585
 20
1.9585
 30
0.0
 40
0
 41
0
  0
VERTEX
  8
0
 10
1.95953
 20
1.95964
 30
0.0
 40
0
 41
0
  0
VERTEX
  8
0
 10
1.96169
 20
1.96218
 30
0.0
 40
0
 41
0
  0
VERTEX
  8
0
 10
1.96485
 20
1.96625
 30
0.0
 40
0
 41
0
  0
VERTEX
  8
0
 10
1.96881
 20
1.9719
 30
0.0
 40
0
 41
0
  0
VERTEX
  8
0
 10
1.97347
 20
1.97917
 30
0.0
 40
0
 41
0
  0
VERTEX
  8
0
 10
1.97874
 20
1.98817
 30
0.0
 40
0
 41
0
  0
VERTEX
  8
0
 10
1.98443
 20
1.99897
 30
0.0
 40
0
 41
0
  0
VERTEX
  8
0
 10
1.99035
 20
2.01161
 30
0.0
 40
0
 41
0
  0
VERTEX
  8
0
 10
1.99642
 20
2.0261
 30
0.0
 40
0
 41
0
  0
VERTEX
  8
0
 10
2.0025
 20
2.04253
 30
0.0
 40
0
 41
0
  0
VERTEX
  8
0
 10
2.00836
 20
2.06087
 30
0.0
 40
0
 41
0
  0
VERTEX
  8
0
 10
2.01389
 20
2.08117
 30
0.0
 40
0
 41
0
  0
VERTEX
  8
0
 10
2.01887
 20
2.1034
 30
0.0
 40
0
 41
0
  0
VERTEX
  8
0
 10
2.02328
 20
2.12756
 30
0.0
 40
0
 41
0
  0
VERTEX
  8
0
 10
2.02681
 20
2.15364
 30
0.0
 40
0
 41
0
  0
VERTEX
  8
0
 10
2.02935
 20
2.18164
 30
0.0
 40
0
 41
0
  0
VERTEX
  8
0
 10
2.03082
 20
2.21143
 30
0.0
 40
0
 41
0
  0
VERTEX
  8
0
 10
2.03093
 20
2.24306
 30
0.0
 40
0
 41
0
  0
VERTEX
  8
0
 10
2.02962
 20
2.27642
 30
0.0
 40
0
 41
0
  0
VERTEX
  8
0
 10
2.02669
 20
2.31147
 30
0.0
 40
0
 41
0
  0
VERTEX
  8
0
 10
2.02203
 20
2.34814
 30
0.0
 40
0
 41
0
  0
VERTEX
  8
0
 10
2.01546
 20
2.38624
 30
0.0
 40
0
 41
0
  0
VERTEX
  8
0
 10
1.99392
 20
2.40517
 30
0.0
 40
0
 41
0
  0
VERTEX
  8
0
 10
1.97851
 20
2.41471
 30
0.0
 40
0
 41
0
  0
VERTEX
  8
0
 10
1.95193
 20
2.42546
 30
0.0
 40
0
 41
0
  0
VERTEX
  8
0
 10
1.91493
 20
2.41428
 30
0.0
 40
0
 41
0
  0
VERTEX
  8
0
 10
1.88004
 20
2.40201
 30
0.0
 40
0
 41
0
  0
VERTEX
  8
0
 10
1.84744
 20
2.38894
 30
0.0
 40
0
 41
0
  0
VERTEX
  8
0
 10
1.817
 20
2.37517
 30
0.0
 40
0
 41
0
  0
VERTEX
  8
0
 10
1.78879
 20
2.36089
 30
0.0
 40
0
 41
0
  0
VERTEX
  8
0
 10
1.76275
 20
2.34625
 30
0.0
 40
0
 41
0
  0
VERTEX
  8
0
 10
1.73887
 20
2.33143
 30
0.0
 40
0
 41
0
  0
VERTEX
  8
0
 10
1.71718
 20
2.31657
 30
0.0
 40
0
 41
0
  0
VERTEX
  8
0
 10
1.69749
 20
2.30186
 30
0.0
 40
0
 41
0
  0
VERTEX
  8
0
 10
1.67985
 20
2.28743
 30
0.0
 40
0
 41
0
  0
VERTEX
  8
0
 10
1.66422
 20
2.27339
 30
0.0
 40
0
 41
0
  0
VERTEX
  8
0
 10
1.65044
 20
2.25993
 30
0.0
 40
0
 41
0
  0
VERTEX
  8
0
 10
1.63846
 20
2.24718
 30
0.0
 40
0
 41
0
  0
VERTEX
  8
0
 10
1.62819
 20
2.23525
 30
0.0
 40
0
 41
0
  0
VERTEX
  8
0
 10
1.61957
 20
2.22428
 30
0.0
 40
0
 41
0
  0
VERTEX
  8
0
 10
1.61247
 20
2.21436
 30
0.0
 40
0
 41
0
  0
VERTEX
  8
0
 10
1.60678
 20
2.20562
 30
0.0
 40
0
 41
0
  0
VERTEX
  8
0
 10
1.60238
 20
2.19819
 30
0.0
 40
0
 41
0
  0
VERTEX
  8
0
 10
1.59913
 20
2.19211
 30
0.0
 40
0
 41
0
  0
VERTEX
  8
0
 10
1.5969
 20
2.1875
 30
0.0
 40
0
 41
0
  0
VERTEX
  8
0
 10
1.59554
 20
2.1844
 30
0.0
 40
0
 41
0
  0
VERTEX
  8
0
 10
1.595
 20
2.18294
 30
0.0
 40
0
 41
0
  0
VERTEX
  8
0
 10
1.53629
 20
2.00635
 30
0.0
 40
0
 41
0
  0
VERTEX
  8
0
 10
1.30208
 20
2.04428
 30
0.0
 40
0
 41
0
  0
VERTEX
  8
0
 10
1.30208
 20
2.23036
 30
0.0
 40
0
 41
0
  0
VERTEX
  8
0
 10
1.30203
 20
2.23193
 30
0.0
 40
0
 41
0
  0
VERTEX
  8
0
 10
1.3017
 20
2.23529
 30
0.0
 40
0
 41
0
  0
VERTEX
  8
0
 10
1.30105
 20
2.2404
 30
0.0
 40
0
 41
0
  0
VERTEX
  8
0
 10
1.29991
 20
2.24718
 30
0.0
 40
0
 41
0
  0
VERTEX
  8
0
 10
1.29807
 20
2.25564
 30
0.0
 40
0
 41
0
  0
VERTEX
  8
0
 10
1.29541
 20
2.26568
 30
0.0
 40
0
 41
0
  0
VERTEX
  8
0
 10
1.29177
 20
2.27735
 30
0.0
 40
0
 41
0
  0
VERTEX
  8
0
 10
1.28706
 20
2.29047
 30
0.0
 40
0
 41
0
  0
VERTEX
  8
0
 10
1.28109
 20
2.30501
 30
0.0
 40
0
 41
0
  0
VERTEX
  8
0
 10
1.27376
 20
2.3209
 30
0.0
 40
0
 41
0
  0
VERTEX
  8
0
 10
1.26492
 20
2.33806
 30
0.0
 40
0
 41
0
  0
VERTEX
  8
0
 10
1.2545
 20
2.35628
 30
0.0
 40
0
 41
0
  0
VERTEX
  8
0
 10
1.24235
 20
2.37554
 30
0.0
 40
0
 41
0
  0
VERTEX
  8
0
 10
1.22835
 20
2.39572
 30
0.0
 40
0
 41
0
  0
VERTEX
  8
0
 10
1.2124
 20
2.41667
 30
0.0
 40
0
 41
0
  0
VERTEX
  8
0
 10
1.19444
 20
2.43826
 30
0.0
 40
0
 41
0
  0
VERTEX
  8
0
 10
1.17432
 20
2.46039
 30
0.0
 40
0
 41
0
  0
VERTEX
  8
0
 10
1.15207
 20
2.48286
 30
0.0
 40
0
 41
0
  0
VERTEX
  8
0
 10
1.12755
 20
2.50549
 30
0.0
 40
0
 41
0
  0
VERTEX
  8
0
 10
1.10069
 20
2.52821
 30
0.0
 40
0
 41
0
  0
VERTEX
  8
0
 10
1.07151
 20
2.55083
 30
0.0
 40
0
 41
0
  0
VERTEX
  8
0
 10
1.03988
 20
2.57314
 30
0.0
 40
0
 41
0
  0
VERTEX
  8
0
 10
1.01128
 20
2.57129
 30
0.0
 40
0
 41
0
  0
VERTEX
  8
0
 10
0.993653
 20
2.56711
 30
0.0
 40
0
 41
0
  0
VERTEX
  8
0
 10
0.967231
 20
2.55599
 30
0.0
 40
0
 41
0
  0
VERTEX
  8
0
 10
0.949001
 20
2.52186
 30
0.0
 40
0
 41
0
  0
VERTEX
  8
0
 10
0.932997
 20
2.48856
 30
0.0
 40
0
 41
0
  0
VERTEX
  8
0
 10
0.919163
 20
2.45622
 30
0.0
 40
0
 41
0
  0
VERTEX
  8
0
 10
0.907389
 20
2.42497
 30
0.0
 40
0
 41
0
  0
VERTEX
  8
0
 10
0.897515
 20
2.39492
 30
0.0
 40
0
 41
0
  0
VERTEX
  8
0
 10
0.889486
 20
2.36615
 30
0.0
 40
0
 41
0
  0
VERTEX
  8
0
 10
0.883083
 20
2.33882
 30
0.0
 40
0
 41
0
  0
VERTEX
  8
0
 10
0.878201
 20
2.31293
 30
0.0
 40
0
 41
0
  0
VERTEX
  8
0
 10
0.874729
 20
2.28863
 30
0.0
 40
0
 41
0
  0
VERTEX
  8
0
 10
0.872504
 20
2.26594
 30
0.0
 40
0
 41
0
  0
VERTEX
  8
0
 10
0.871311
 20
2.24496
 30
0.0
 40
0
 41
0
  0
VERTEX
  8
0
 10
0.871094
 20
2.22569
 30
0.0
 40
0
 41
0
  0
VERTEX
  8
0
 10
0.87169
 20
2.20822
 30
0.0
 40
0
 41
0
  0
VERTEX
  8
0
 10
0.872831
 20
2.19254
 30
0.0
 40
0
 41
0
  0
VERTEX
  8
0
 10
0.874511
 20
2.17865
 30
0.0
 40
0
 41
0
  0
VERTEX
  8
0
 10
0.876465
 20
2.16667
 30
0.0
 40
0
 41
0
  0
VERTEX
  8
0
 10
0.878635
 20
2.15647
 30
0.0
 40
0
 41
0
  0
VERTEX
  8
0
 10
0.880751
 20
2.14806
 30
0.0
 40
0
 41
0
  0
VERTEX
  8
0
 10
0.882758
 20
2.14144
 30
0.0
 40
0
 41
0
  0
VERTEX
  8
0
 10
0.88444
 20
2.13661
 30
0.0
 40
0
 41
0
  0
VERTEX
  8
0
 10
0.885688
 20
2.13351
 30
0.0
 40
0
 41
0
  0
VERTEX
  8
0
 10
0.886339
 20
2.13206
 30
0.0
 40
0
 41
0
  0
VERTEX
  8
0
 10
0.969672
 20
1.96565
 30
0.0
 40
0
 41
0
  0
VERTEX
  8
0
 10
0.777289
 20
1.82688
 30
0.0
 40
0
 41
0
  0
VERTEX
  8
0
 10
0.645671
 20
1.9585
 30
0.0
 40
0
 41
0
  0
VERTEX
  8
0
 10
0.644531
 20
1.95953
 30
0.0
 40
0
 41
0
  0
VERTEX
  8
0
 10
0.641982
 20
1.96169
 30
0.0
 40
0
 41
0
  0
VERTEX
  8
0
 10
0.637912
 20
1.96485
 30
0.0
 40
0
 41
0
  0
VERTEX
  8
0
 10
0.632269
 20
1.96881
 30
0.0
 40
0
 41
0
  0
VERTEX
  8
0
 10
0.625
 20
1.97347
 30
0.0
 40
0
 41
0
  0
VERTEX
  8
0
 10
0.615994
 20
1.97874
 30
0.0
 40
0
 41
0
  0
VERTEX
  8
0
 10
0.605197
 20
1.98443
 30
0.0
 40
0
 41
0
  0
VERTEX
  8
0
 10
0.592557
 20
1.99035
 30
0.0
 40
0
 41
0
  0
VERTEX
  8
0
 10
0.578071
 20
1.99642
 30
0.0
 40
0
 41
0
  0
VERTEX
  8
0
 10
0.561632
 20
2.0025
 30
0.0
 40
0
 41
0
  0
VERTEX
  8
0
 10
0.543294
 20
2.00836
 30
0.0
 40
0
 41
0
  0
VERTEX
  8
0
 10
0.523003
 20
2.01389
 30
0.0
 40
0
 41
0
  0
VERTEX
  8
0
 10
0.50076
 20
2.01887
 30
0.0
 40
0
 41
0
  0
VERTEX
  8
0
 10
0.476617
 20
2.02328
 30
0.0
 40
0
 41
0
  0
VERTEX
  8
0
 10
0.450521
 20
2.02681
 30
0.0
 40
0
 41
0
  0
VERTEX
  8
0
 10
0.422526
 20
2.02935
 30
0.0
 40
0
 41
0
  0
VERTEX
  8
0
 10
0.39274
 20
2.03082
 30
0.0
 40
0
 41
0
  0
VERTEX
  8
0
 10
0.361111
 20
2.03093
 30
0.0
 40
0
 41
0
  0
VERTEX
  8
0
 10
0.327746
 20
2.02962
 30
0.0
 40
0
 41
0
  0
VERTEX
  8
0
 10
0.292697
 20
2.02669
 30
0.0
 40
0
 41
0
  0
VERTEX
  8
0
 10
0.256022
 20
2.02203
 30
0.0
 40
0
 41
0
  0
VERTEX
  8
0
 10
0.217936
 20
2.01546
 30
0.0
 40
0
 41
0
  0
VERTEX
  8
0
 10
0.199001
 20
1.99392
 30
0.0
 40
0
 41
0
  0
VERTEX
  8
0
 10
0.189453
 20
1.97851
 30
0.0
 40
0
 41
0
  0
VERTEX
  8
0
 10
0.178711
 20
1.95193
 30
0.0
 40
0
 41
0
  0
VERTEX
  8
0
 10
0.189887
 20
1.91493
 30
0.0
 40
0
 41
0
  0
VERTEX
  8
0
 10
0.202149
 20
1.88004
 30
0.0
 40
0
 41
0
  0
VERTEX
  8
0
 10
0.215224
 20
1.84744
 30
0.0
 40
0
 41
0
  0
VERTEX
  8
0
 10
0.229004
 20
1.817
 30
0.0
 40
0
 41
0
  0
VERTEX
  8
0
 10
0.243272
 20
1.78879
 30
0.0
 40
0
 41
0
  0
VERTEX
  8
0
 10
0.257921
 20
1.76275
 30
0.0
 40
0
 41
0
  0
VERTEX
  8
0
 10
0.272732
 20
1.73887
 30
0.0
 40
0
 41
0
  0
VERTEX
  8
0
 10
0.287597
 20
1.71718
 30
0.0
 40
0
 41
0
  0
VERTEX
  8
0
 10
0.3023
 20
1.69749
 30
0.0
 40
0
 41
0
  0
VERTEX
  8
0
 10
0.316732
 20
1.67985
 30
0.0
 40
0
 41
0
  0
VERTEX
  8
0
 10
0.330783
 20
1.66422
 30
0.0
 40
0
 41
0
  0
VERTEX
  8
0
 10
0.344239
 20
1.65044
 30
0.0
 40
0
 41
0
  0
VERTEX
  8
0
 10
0.356988
 20
1.63846
 30
0.0
 40
0
 41
0
  0
VERTEX
  8
0
 10
0.368924
 20
1.62819
 30
0.0
 40
0
 41
0
  0
VERTEX
  8
0
 10
0.379883
 20
1.61957
 30
0.0
 40
0
 41
0
  0
VERTEX
  8
0
 10
0.389811
 20
1.61247
 30
0.0
 40
0
 41
0
  0
VERTEX
  8
0
 10
0.398546
 20
1.60678
 30
0.0
 40
0
 41
0
  0
VERTEX
  8
0
 10
0.405979
 20
1.60238
 30
0.0
 40
0
 41
0
  0
VERTEX
  8
0
 10
0.412056
 20
1.59913
 30
0.0
 40
0
 41
0
  0
VERTEX
  8
0
 10
0.416667
 20
1.5969
 30
0.0
 40
0
 41
0
  0
VERTEX
  8
0
 10
0.41976
 20
1.59554
 30
0.0
 40
0
 41
0
  0
VERTEX
  8
0
 10
0.421224
 20
1.595
 30
0.0
 40
0
 41
0
  0
VERTEX
  8
0
 10
0.597819
 20
1.53629
 30
0.0
 40
0
 41
0
  0
VERTEX
  8
0
 10
0.559896
 20
1.30208
 30
0.0
 40
0
 41
0
  0
VERTEX
  8
0
 10
0.373807
 20
1.30208
 30
0.0
 40
0
 41
0
  0
VERTEX
  8
0
 10
0.372233
 20
1.30203
 30
0.0
 40
0
 41
0
  0
VERTEX
  8
0
 10
0.368869
 20
1.3017
 30
0.0
 40
0
 41
0
  0
VERTEX
  8
0
 10
0.363769
 20
1.30105
 30
0.0
 40
0
 41
0
  0
VERTEX
  8
0
 10
0.356988
 20
1.29991
 30
0.0
 40
0
 41
0
  0
VERTEX
  8
0
 10
0.348525
 20
1.29807
 30
0.0
 40
0
 41
0
  0
VERTEX
  8
0
 10
0.338487
 20
1.29541
 30
0.0
 40
0
 41
0
  0
VERTEX
  8
0
 10
0.326822
 20
1.29177
 30
0.0
 40
0
 41
0
  0
VERTEX
  8
0
 10
0.313693
 20
1.28706
 30
0.0
 40
0
 41
0
  0
VERTEX
  8
0
 10
0.299154
 20
1.28109
 30
0.0
 40
0
 41
0
  0
VERTEX
  8
0
 10
0.283257
 20
1.27376
 30
0.0
 40
0
 41
0
  0
VERTEX
  8
0
 10
0.266114
 20
1.26492
 30
0.0
 40
0
 41
0
  0
VERTEX
  8
0
 10
0.247885
 20
1.2545
 30
0.0
 40
0
 41
0
  0
VERTEX
  8
0
 10
0.228624
 20
1.24235
 30
0.0
 40
0
 41
0
  0
VERTEX
  8
0
 10
0.208442
 20
1.22835
 30
0.0
 40
0
 41
0
  0
VERTEX
  8
0
 10
0.1875
 20
1.2124
 30
0.0
 40
0
 41
0
  0
VERTEX
  8
0
 10
0.165907
 20
1.19444
 30
0.0
 40
0
 41
0
  0
VERTEX
  8
0
 10
0.143772
 20
1.17432
 30
0.0
 40
0
 41
0
  0
VERTEX
  8
0
 10
0.121311
 20
1.15207
 30
0.0
 40
0
 41
0
  0
VERTEX
  8
0
 10
0.0986871
 20
1.12755
 30
0.0
 40
0
 41
0
  0
VERTEX
  8
0
 10
0.0759549
 20
1.10069
 30
0.0
 40
0
 41
0
  0
VERTEX
  8
0
 10
0.0533311
 20
1.07151
 30
0.0
 40
0
 41
0
  0
VERTEX
  8
0
 10
0.0310331
 20
1.03988
 30
0.0
 40
0
 41
0
  0
VERTEX
  8
0
 10
0.0328776
 20
1.01128
 30
0.0
 40
0
 41
0
  0
VERTEX
  8
0
 10
0.0370551
 20
0.993653
 30
0.0
 40
0
 41
0
  0
VERTEX
  8
0
 10
0.0481771
 20
0.967231
 30
0.0
 40
0
 41
0
  0
VERTEX
  8
0
 10
0.0823025
 20
0.949001
 30
0.0
 40
0
 41
0
  0
VERTEX
  8
0
 10
0.115614
 20
0.932997
 30
0.0
 40
0
 41
0
  0
VERTEX
  8
0
 10
0.147949
 20
0.919163
 30
0.0
 40
0
 41
0
  0
VERTEX
  8
0
 10
0.179199
 20
0.907389
 30
0.0
 40
0
 41
0
  0
VERTEX
  8
0
 10
0.209256
 20
0.897515
 30
0.0
 40
0
 41
0
  0
VERTEX
  8
0
 10
0.23801
 20
0.889486
 30
0.0
 40
0
 41
0
  0
VERTEX
  8
0
 10
0.265354
 20
0.883083
 30
0.0
 40
0
 41
0
  0
VERTEX
  8
0
 10
0.291233
 20
0.878201
 30
0.0
 40
0
 41
0
  0
VERTEX
  8
0
 10
0.315539
 20
0.874729
 30
0.0
 40
0
 41
0
  0
VERTEX
  8
0
 10
0.338217
 20
0.872504
 30
0.0
 40
0
 41
0
  0
VERTEX
  8
0
 10
0.359213
 20
0.871311
 30
0.0
 40
0
 41
0
  0
VERTEX
  8
0
 10
0.378472
 20
0.871094
 30
0.0
 40
0
 41
0
  0
VERTEX
  8
0
 10
0.395942
 20
0.87169
 30
0.0
 40
0
 41
0
  0
VERTEX
  8
0
 10
0.411621
 20
0.872831
 30
0.0
 40
0
 41
0
  0
VERTEX
  8
0
 10
0.42551
 20
0.874511
 30
0.0
 40
0
 41
0
  0
VERTEX
  8
0
 10
0.4375
 20
0.876465
 30
0.0
 40
0
 41
0
  0
VERTEX
  8
0
 10
0.4477
 20
0.878635
 30
0.0
 40
0
 41
0
  0
VERTEX
  8
0
 10
0.456108
 20
0.880751
 30
0.0
 40
0
 41
0
  0
VERTEX
  8
0
 10
0.462728
 20
0.882758
 30
0.0
 40
0
 41
0
  0
VERTEX
  8
0
 10
0.467557
 20
0.88444
 30
0.0
 40
0
 41
0
  0
VERTEX
  8
0
 10
0.470649
 20
0.885688
 30
0.0
 40
0
 41
0
  0
VERTEX
  8
0
 10
0.472114
 20
0.886339
 30
0.0
 40
0
 41
0
  0
VERTEX
  8
0
 10
0.63851
 20
0.969672
 30
0.0
 40
0
 41
0
  0
VERTEX
  8
0
 10
0.777289
 20
0.777289
 30
0.0
 40
0
 41
0
  0
VERTEX
  8
0
 10
0.645671
 20
0.645671
 30
0.0
 40
0
 41
0
  0
VERTEX
  8
0
 10
0.64464
 20
0.644531
 30
0.0
 40
0
 41
0
  0
VERTEX
  8
0
 10
0.642469
 20
0.641982
 30
0.0
 40
0
 41
0
  0
VERTEX
  8
0
 10
0.639322
 20
0.637912
 30
0.0
 40
0
 41
0
  0
VERTEX
  8
0
 10
0.635363
 20
0.632269
 30
0.0
 40
0
 41
0
  0
VERTEX
  8
0
 10
0.630697
 20
0.625
 30
0.0
 40
0
 41
0
  0
VERTEX
  8
0
 10
0.625433
 20
0.615994
 30
0.0
 40
0
 41
0
  0
VERTEX
  8
0
 10
0.619738
 20
0.605197
 30
0.0
 40
0
 41
0
  0
VERTEX
  8
0
 10
0.613824
 20
0.592557
 30
0.0
 40
0
 41
0
  0
VERTEX
  8
0
 10
0.607747
 20
0.578071
 30
0.0
 40
0
 41
0
  0
VERTEX
  8
0
 10
0.601671
 20
0.561632
 30
0.0
 40
0
 41
0
  0
VERTEX
  8
0
 10
0.595811
 20
0.543294
 30
0.0
 40
0
 41
0
  0
VERTEX
  8
0
 10
0.590278
 20
0.523003
 30
0.0
 40
0
 41
0
  0
VERTEX
  8
0
 10
0.585286
 20
0.50076
 30
0.0
 40
0
 41
0
  0
VERTEX
  8
0
 10
0.580892
 20
0.476617
 30
0.0
 40
0
 41
0
  0
VERTEX
  8
0
 10
0.577365
 20
0.450521
 30
0.0
 40
0
 41
0
  0
VERTEX
  8
0
 10
0.574815
 20
0.422526
 30
0.0
 40
0
 41
0
  0
VERTEX
  8
0
 10
0.57335
 20
0.39274
 30
0.0
 40
0
 41
0
  0
VERTEX
  8
0
 10
0.573242
 20
0.361111
 30
0.0
 40
0
 41
0
  0
VERTEX
  8
0
 10
0.574544
 20
0.327746
 30
0.0
 40
0
 41
0
  0
VERTEX
  8
0
 10
0.577474
 20
0.292697
 30
0.0
 40
0
 41
0
  0
VERTEX
  8
0
 10
0.58214
 20
0.256022
 30
0.0
 40
0
 41
0
  0
VERTEX
  8
0
 10
0.588704
 20
0.217936
 30
0.0
 40
0
 41
0
  0
VERTEX
  8
0
 10
0.610243
 20
0.199001
 30
0.0
 40
0
 41
0
  0
VERTEX
  8
0
 10
0.625651
 20
0.189453
 30
0.0
 40
0
 41
0
  0
VERTEX
  8
0
 10
0.652235
 20
0.178711
 30
0.0
 40
0
 41
0
  0
VERTEX
  8
0
 10
0.689236
 20
0.189887
 30
0.0
 40
0
 41
0
  0
VERTEX
  8
0
 10
0.724121
 20
0.202149
 30
0.0
 40
0
 41
0
  0
VERTEX
  8
0
 10
0.756728
 20
0.215224
 30
0.0
 40
0
 41
0
  0
VERTEX
  8
0
 10
0.787164
 20
0.229004
 30
0.0
 40
0
 41
0
  0
VERTEX
  8
0
 10
0.815375
 20
0.243272
 30
0.0
 40
0
 41
0
  0
VERTEX
  8
0
 10
0.841417
 20
0.257921
 30
0.0
 40
0
 41
0
  0
VERTEX
  8
0
 10
0.865289
 20
0.272732
 30
0.0
 40
0
 41
0
  0
VERTEX
  8
0
 10
0.88699
 20
0.287597
 30
0.0
 40
0
 41
0
  0
VERTEX
  8
0
 10
0.906683
 20
0.3023
 30
0.0
 40
0
 41
0
  0
VERTEX
  8
0
 10
0.924317
 20
0.316732
 30
0.0
 40
0
 41
0
  0
VERTEX
  8
0
 10
0.939942
 20
0.330783
 30
0.0
 40
0
 41
0
  0
VERTEX
  8
0
 10
0.953722
 20
0.344239
 30
0.0
 40
0
 41
0
  0
VERTEX
  8
0
 10
0.965711
 20
0.356988
 30
0.0
 40
0
 41
0
  0
VERTEX
  8
0
 10
0.975965
 20
0.368924
 30
0.0
 40
0
 41
0
  0
VERTEX
  8
0
 10
0.984592
 20
0.379883
 30
0.0
 40
0
 41
0
  0
VERTEX
  8
0
 10
0.991699
 20
0.389811
 30
0.0
 40
0
 41
0
  0
VERTEX
  8
0
 10
0.997396
 20
0.398546
 30
0.0
 40
0
 41
0
  0
VERTEX
  8
0
 10
1.00179
 20
0.405979
 30
0.0
 40
0
 41
0
  0
VERTEX
  8
0
 10
1.00505
 20
0.412056
 30
0.0
 40
0
 41
0
  0
VERTEX
  8
0
 10
1.00727
 20
0.416667
 30
0.0
 40
0
 41
0
  0
VERTEX
  8
0
 10
1.00863
 20
0.41976
 30
0.0
 40
0
 41
0
  0
VERTEX
  8
0
 10
1.00917
 20
0.421224
 30
0.0
 40
0
 41
0
  0
VERTEX
  8
0
 10
1.06787
 20
0.597819
 30
0.0
 40
0
 41
0
  0
VERTEX
  8
0
 10
1.30208
 20
0.559896
 30
0.0
 40
0
 41
0
  0
VERTEX
  8
0
 10
1.30208
 20
0.373807
 30
0.0
 40
0
 41
0
  0
VERTEX
  8
0
 10
1.30214
 20
0.372233
 30
0.0
 40
0
 41
0
  0
VERTEX
  8
0
 10
1.30246
 20
0.368869
 30
0.0
 40
0
 41
0
  0
VERTEX
  8
0
 10
1.30311
 20
0.363769
 30
0.0
 40
0
 41
0
  0
VERTEX
  8
0
 10
1.30425
 20
0.356988
 30
0.0
 40
0
 41
0
  0
VERTEX
  8
0
 10
1.3061
 20
0.348525
 30
0.0
 40
0
 41
0
  0
VERTEX
  8
0
 10
1.30876
 20
0.338487
 30
0.0
 40
0
 41
0
  0
VERTEX
  8
0
 10
1.31239
 20
0.326822
 30
0.0
 40
0
 41
0
  0
VERTEX
  8
0
 10
1.31711
 20
0.313693
 30
0.0
 40
0
 41
0
  0
VERTEX
  8
0
 10
1.32308
 20
0.299154
 30
0.0
 40
0
 41
0
  0
VERTEX
  8
0
 10
1.3304
 20
0.283257
 30
0.0
 40
0
 41
0
  0
VERTEX
  8
0
 10
1.33925
 20
0.266114
 30
0.0
 40
0
 41
0
  0
VERTEX
  8
0
 10
1.34966
 20
0.247885
 30
0.0
 40
0
 41
0
  0
VERTEX
  8
0
 10
1.36182
 20
0.228624
 30
0.0
 40
0
 41
0
  0
VERTEX
  8
0
 10
1.37581
 20
0.208442
 30
0.0
 40
0
 41
0
  0
VERTEX
  8
0
 10
1.39176
 20
0.1875
 30
0.0
 40
0
 41
0
  0
VERTEX
  8
0
 10
1.40972
 20
0.165907
 30
0.0
 40
0
 41
0
  0
VERTEX
  8
0
 10
1.42985
 20
0.143772
 30
0.0
 40
0
 41
0
  0
VERTEX
  8
0
 10
1.4521
 20
0.121311
 30
0.0
 40
0
 41
0
  0
VERTEX
  8
0
 10
1.47661
 20
0.0986871
 30
0.0
 40
0
 41
0
  0
VERTEX
  8
0
 10
1.50347
 20
0.0759549
 30
0.0
 40
0
 41
0
  0
VERTEX
  8
0
 10
1.53267
 20
0.0533311
 30
0.0
 40
0
 41
0
  0
VERTEX
  8
0
 10
1.56429
 20
0.0310331
 30
0.0
 40
0
 41
0
  0
VERTEX
  8
0
 10
1.59289
 20
0.0328776
 30
0.0
 40
0
 41
0
  0
VERTEX
  8
0
 10
1.61051
 20
0.0370551
 30
0.0
 40
0
 41
0
  0
VERTEX
  8
0
 10
1.63693
 20
0.0481771
 30
0.0
 40
0
 41
0
  0
VERTEX
  8
0
 10
1.65517
 20
0.0823025
 30
0.0
 40
0
 41
0
  0
VERTEX
  8
0
 10
1.67117
 20
0.115614
 30
0.0
 40
0
 41
0
  0
VERTEX
  8
0
 10
1.685
 20
0.147949
 30
0.0
 40
0
 41
0
  0
VERTEX
  8
0
 10
1.69678
 20
0.179199
 30
0.0
 40
0
 41
0
  0
VERTEX
  8
0
 10
1.70665
 20
0.209256
 30
0.0
 40
0
 41
0
  0
VERTEX
  8
0
 10
1.71468
 20
0.23801
 30
0.0
 40
0
 41
0
  0
VERTEX
  8
0
 10
1.72108
 20
0.265354
 30
0.0
 40
0
 41
0
  0
VERTEX
  8
0
 10
1.72597
 20
0.291233
 30
0.0
 40
0
 41
0
  0
VERTEX
  8
0
 10
1.72944
 20
0.315539
 30
0.0
 40
0
 41
0
  0
VERTEX
  8
0
 10
1.73167
 20
0.338217
 30
0.0
 40
0
 41
0
  0
VERTEX
  8
0
 10
1.73286
 20
0.359213
 30
0.0
 40
0
 41
0
  0
VERTEX
  8
0
 10
1.73307
 20
0.378472
 30
0.0
 40
0
 41
0
  0
VERTEX
  8
0
 10
1.73247
 20
0.395942
 30
0.0
 40
0
 41
0
  0
VERTEX
  8
0
 10
1.73133
 20
0.411621
 30
0.0
 40
0
 41
0
  0
VERTEX
  8
0
 10
1.72965
 20
0.42551
 30
0.0
 40
0
 41
0
  0
VERTEX
  8
0
 10
1.72771
 20
0.4375
 30
0.0
 40
0
 41
0
  0
VERTEX
  8
0
 10
1.72553
 20
0.4477
 30
0.0
 40
0
 41
0
  0
VERTEX
  8
0
 10
1.72342
 20
0.456108
 30
0.0
 40
0
 41
0
  0
VERTEX
  8
0
 10
1.7214
 20
0.462728
 30
0.0
 40
0
 41
0
  0
VERTEX
  8
0
 10
1.71972
 20
0.467557
 30
0.0
 40
0
 41
0
  0
VERTEX
  8
0
 10
1.71847
 20
0.470649
 30
0.0
 40
0
 41
0
  0
VERTEX
  8
0
 10
1.71783
 20
0.472114
 30
0.0
 40
0
 41
0
  0
VERTEX
  8
0
 10
1.6345
 20
0.63851
 30
0.0
 40
0
 41
0
  0
VERTEX
  8
0
 10
1.82688
 20
0.777289
 30
0.0
 40
0
 41
0
  0
VERTEX
  8
0
 10
1.9585
 20
0.645671
 30
0.0
 40
0
 41
0
  0
VERTEX
  8
0
 10
1.95964
 20
0.64464
 30
0.0
 40
0
 41
0
  0
VERTEX
  8
0
 10
1.96218
 20
0.642469
 30
0.0
 40
0
 41
0
  0
VERTEX
  8
0
 10
1.96625
 20
0.639322
 30
0.0
 40
0
 41
0
  0
VERTEX
  8
0
 10
1.9719
 20
0.635363
 30
0.0
 40
0
 41
0
  0
VERTEX
  8
0
 10
1.97917
 20
0.630697
 30
0.0
 40
0
 41
0
  0
VERTEX
  8
0
 10
1.98817
 20
0.625433
 30
0.0
 40
0
 41
0
  0
VERTEX
  8
0
 10
1.99897
 20
0.619738
 30
0.0
 40
0
 41
0
  0
VERTEX
  8
0
 10
2.01161
 20
0.613824
 30
0.0
 40
0
 41
0
  0
VERTEX
  8
0
 10
2.0261
 20
0.607747
 30
0.0
 40
0
 41
0
  0
VERTEX
  8
0
 10
2.04253
 20
0.601671
 30
0.0
 40
0
 41
0
  0
VERTEX
  8
0
 10
2.06087
 20
0.595811
 30
0.0
 40
0
 41
0
  0
VERTEX
  8
0
 10
2.08117
 20
0.590278
 30
0.0
 40
0
 41
0
  0
VERTEX
  8
0
 10
2.1034
 20
0.585286
 30
0.0
 40
0
 41
0
  0
VERTEX
  8
0
 10
2.12756
 20
0.580892
 30
0.0
 40
0
 41
0
  0
VERTEX
  8
0
 10
2.15364
 20
0.577365
 30
0.0
 40
0
 41
0
  0
VERTEX
  8
0
 10
2.18164
 20
0.574815
 30
0.0
 40
0
 41
0
  0
VERTEX
  8
0
 10
2.21143
 20
0.57335
 30
0.0
 40
0
 41
0
  0
VERTEX
  8
0
 10
2.24306
 20
0.573242
 30
0.0
 40
0
 41
0
  0
VERTEX
  8
0
 10
2.27642
 20
0.574544
 30
0.0
 40
0
 41
0
  0
VERTEX
  8
0
 10
2.31147
 20
0.577474
 30
0.0
 40
0
 41
0
  0
VERTEX
  8
0
 10
2.34814
 20
0.58214
 30
0.0
 40
0
 41
0
  0
VERTEX
  8
0
 10
2.38624
 20
0.588704
 30
0.0
 40
0
 41
0
  0
VERTEX
  8
0
 10
2.40517
 20
0.610243
 30
0.0
 40
0
 41
0
  0
VERTEX
  8
0
 10
2.41471
 20
0.625651
 30
0.0
 40
0
 41
0
  0
VERTEX
  8
0
 10
2.42546
 20
0.652235
 30
0.0
 40
0
 41
0
  0
VERTEX
  8
0
 10
2.41428
 20
0.689236
 30
0.0
 40
0
 41
0
  0
VERTEX
  8
0
 10
2.40201
 20
0.724121
 30
0.0
 40
0
 41
0
  0
VERTEX
  8
0
 10
2.38894
 20
0.756728
 30
0.0
 40
0
 41
0
  0
VERTEX
  8
0
 10
2.37517
 20
0.787164
 30
0.0
 40
0
 41
0
  0
VERTEX
  8
0
 10
2.36089
 20
0.815375
 30
0.0
 40
0
 41
0
  0
VERTEX
  8
0
 10
2.34625
 20
0.841417
 30
0.0
 40
0
 41
0
  0
VERTEX
  8
0
 10
2.33143
 20
0.865289
 30
0.0
 40
0
 41
0
  0
VERTEX
  8
0
 10
2.31657
 20
0.88699
 30
0.0
 40
0
 41
0
  0
VERTEX
  8
0
 10
2.30186
 20
0.906683
 30
0.0
 40
0
 41
0
  0
VERTEX
  8
0
 10
2.28743
 20
0.924317
 30
0.0
 40
0
 41
0
  0
VERTEX
  8
0
 10
2.27339
 20
0.939942
 30
0.0
 40
0
 41
0
  0
VERTEX
  8
0
 10
2.25993
 20
0.953722
 30
0.0
 40
0
 41
0
  0
VERTEX
  8
0
 10
2.24718
 20
0.965711
 30
0.0
 40
0
 41
0
  0
VERTEX
  8
0
 10
2.23525
 20
0.975965
 30
0.0
 40
0
 41
0
  0
VERTEX
  8
0
 10
2.22428
 20
0.984592
 30
0.0
 40
0
 41
0
  0
VERTEX
  8
0
 10
2.21436
 20
0.991699
 30
0.0
 40
0
 41
0
  0
VERTEX
  8
0
 10
2.20562
 20
0.997396
 30
0.0
 40
0
 41
0
  0
VERTEX
  8
0
 10
2.19819
 20
1.00179
 30
0.0
 40
0
 41
0
  0
VERTEX
  8
0
 10
2.19211
 20
1.00505
 30
0.0
 40
0
 41
0
  0
VERTEX
  8
0
 10
2.1875
 20
1.00727
 30
0.0
 40
0
 41
0
  0
VERTEX
  8
0
 10
2.1844
 20
1.00863
 30
0.0
 40
0
 41
0
  0
VERTEX
  8
0
 10
2.18294
 20
1.00917
 30
0.0
 40
0
 41
0
  0
VERTEX
  8
0
 10
2.00635
 20
1.06787
 30
0.0
 40
0
 41
0
  0
VERTEX
  8
0
 10
2.04428
 20
1.30208
 30
0.0
 40
0
 41
0
  0
SEQEND
 8
0
  0
POLYLINE
  8
0
 62
     8
 66
     1
 10
0
 20
0
 30
0.0
 70
     1
 40
0.75
 41
0.75
  0
VERTEX
  8
0
 10
2.04428
 20
1.30208
 30
0.0
 40
0.0104167
 41
0.0104167
  0
VERTEX
  8
0
 10
2.23036
 20
1.30208
 30
0.0
 40
0.0104167
 41
0.0104167
  0
VERTEX
  8
0
 10
2.23193
 20
1.30214
 30
0.0
 40
0.0104167
 41
0.0104167
  0
VERTEX
  8
0
 10
2.23529
 20
1.30246
 30
0.0
 40
0.0104167
 41
0.0104167
  0
VERTEX
  8
0
 10
2.2404
 20
1.30311
 30
0.0
 40
0.0104167
 41
0.0104167
  0
VERTEX
  8
0
 10
2.24718
 20
1.30425
 30
0.0
 40
0.0104167
 41
0.0104167
  0
VERTEX
  8
0
 10
2.25564
 20
1.3061
 30
0.0
 40
0.0104167
 41
0.0104167
  0
VERTEX
  8
0
 10
2.26568
 20
1.30876
 30
0.0
 40
0.0104167
 41
0.0104167
  0
VERTEX
  8
0
 10
2.27735
 20
1.31239
 30
0.0
 40
0.0104167
 41
0.0104167
  0
VERTEX
  8
0
 10
2.29047
 20
1.31711
 30
0.0
 40
0.0104167
 41
0.0104167
  0
VERTEX
  8
0
 10
2.30501
 20
1.32308
 30
0.0
 40
0.0104167
 41
0.0104167
  0
VERTEX
  8
0
 10
2.3209
 20
1.3304
 30
0.0
 40
0.0104167
 41
0.0104167
  0
VERTEX
  8
0
 10
2.33806
 20
1.33925
 30
0.0
 40
0.0104167
 41
0.0104167
  0
VERTEX
  8
0
 10
2.35628
 20
1.34966
 30
0.0
 40
0.0104167
 41
0.0104167
  0
VERTEX
  8
0
 10
2.37554
 20
1.36182
 30
0.0
 40
0.0104167
 41
0.0104167
  0
VERTEX
  8
0
 10
2.39572
 20
1.37581
 30
0.0
 40
0.0104167
 41
0.0104167
  0
VERTEX
  8
0
 10
2.41667
 20
1.39176
 30
0.0
 40
0.0104167
 41
0.0104167
  0
VERTEX
  8
0
 10
2.43826
 20
1.40972
 30
0.0
 40
0.0104167
 41
0.0104167
  0
VERTEX
  8
0
 10
2.46039
 20
1.42985
 30
0.0
 40
0.0104167
 41
0.0104167
  0
VERTEX
  8
0
 10
2.48286
 20
1.4521
 30
0.0
 40
0.0104167
 41
0.0104167
  0
VERTEX
  8
0
 10
2.50549
 20
1.47661
 30
0.0
 40
0.0104167
 41
0.0104167
  0
VERTEX
  8
0
 10
2.52821
 20
1.50347
 30
0.0
 40
0.0104167
 41
0.0104167
  0
VERTEX
  8
0
 10
2.55083
 20
1.53267
 30
0.0
 40
0.0104167
 41
0.0104167
  0
VERTEX
  8
0
 10
2.57314
 20
1.56429
 30
0.0
 40
0.0104167
 41
0.0104167
  0
VERTEX
  8
0
 10
2.57129
 20
1.59289
 30
0.0
 40
0.0104167
 41
0.0104167
  0
VERTEX
  8
0
 10
2.56711
 20
1.61051
 30
0.0
 40
0.0104167
 41
0.0104167
  0
VERTEX
  8
0
 10
2.55599
 20
1.63693
 30
0.0
 40
0.0104167
 41
0.0104167
  0
VERTEX
  8
0
 10
2.52186
 20
1.65517
 30
0.0
 40
0.0104167
 41
0.0104167
  0
VERTEX
  8
0
 10
2.48856
 20
1.67117
 30
0.0
 40
0.0104167
 41
0.0104167
  0
VERTEX
  8
0
 10
2.45622
 20
1.685
 30
0.0
 40
0.0104167
 41
0.0104167
  0
VERTEX
  8
0
 10
2.42497
 20
1.69678
 30
0.0
 40
0.0104167
 41
0.0104167
  0
VERTEX
  8
0
 10
2.39492
 20
1.70665
 30
0.0
 40
0.0104167
 41
0.0104167
  0
VERTEX
  8
0
 10
2.36615
 20
1.71468
 30
0.0
 40
0.0104167
 41
0.0104167
  0
VERTEX
  8
0
 10
2.33882
 20
1.72108
 30
0.0
 40
0.0104167
 41
0.0104167
  0
VERTEX
  8
0
 10
2.31293
 20
1.72597
 30
0.0
 40
0.0104167
 41
0.0104167
  0
VERTEX
  8
0
 10
2.28863
 20
1.72944
 30
0.0
 40
0.0104167
 41
0.0104167
  0
VERTEX
  8
0
 10
2.26594
 20
1.73167
 30
0.0
 40
0.0104167
 41
0.0104167
  0
VERTEX
  8
0
 10
2.24496
 20
1.73286
 30
0.0
 40
0.0104167
 41
0.0104167
  0
VERTEX
  8
0
 10
2.22569
 20
1.73307
 30
0.0
 40
0.0104167
 41
0.0104167
  0
VERTEX
  8
0
 10
2.20822
 20
1.73247
 30
0.0
 40
0.0104167
 41
0.0104167
  0
VERTEX
  8
0
 10
2.19254
 20
1.73133
 30
0.0
 40
0.0104167
 41
0.0104167
  0
VERTEX
  8
0
 10
2.17865
 20
1.72965
 30
0.0
 40
0.0104167
 41
0.0104167
  0
VERTEX
  8
0
 10
2.16667
 20
1.72771
 30
0.0
 40
0.0104167
 41
0.0104167
  0
VERTEX
  8
0
 10
2.15647
 20
1.72553
 30
0.0
 40
0.0104167
 41
0.0104167
  0
VERTEX
  8
0
 10
2.14806
 20
1.72342
 30
0.0
 40
0.0104167
 41
0.0104167
  0
VERTEX
  8
0
 10
2.14144
 20
1.7214
 30
0.0
 40
0.0104167
 41
0.0104167
  0
VERTEX
  8
0
 10
2.13661
 20
1.71972
 30
0.0
 40
0.0104167
 41
0.0104167
  0
VERTEX
  8
0
 10
2.13351
 20
1.71847
 30
0.0
 40
0.0104167
 41
0.0104167
  0
VERTEX
  8
0
 10
2.13206
 20
1.71783
 30
0.0
 40
0.0104167
 41
0.0104167
  0
VERTEX
  8
0
 10
1.96565
 20
1.6345
 30
0.0
 40
0.0104167
 41
0.0104167
  0
VERTEX
  8
0
 10
1.82688
 20
1.82688
 30
0.0
 40
0.0104167
 41
0.0104167
  0
VERTEX
  8
0
 10
1.9585
 20
1.9585
 30
0.0
 40
0.0104167
 41
0.0104167
  0
VERTEX
  8
0
 10
1.95953
 20
1.95964
 30
0.0
 40
0.0104167
 41
0.0104167
  0
VERTEX
  8
0
 10
1.96169
 20
1.96218
 30
0.0
 40
0.0104167
 41
0.0104167
  0
VERTEX
  8
0
 10
1.96485
 20
1.96625
 30
0.0
 40
0.0104167
 41
0.0104167
  0
VERTEX
  8
0
 10
1.96881
 20
1.9719
 30
0.0
 40
0.0104167
 41
0.0104167
  0
VERTEX
  8
0
 10
1.97347
 20
1.97917
 30
0.0
 40
0.0104167
 41
0.0104167
  0
VERTEX
  8
0
 10
1.97874
 20
1.98817
 30
0.0
 40
0.0104167
 41
0.0104167
  0
VERTEX
  8
0
 10
1.98443
 20
1.99897
 30
0.0
 40
0.0104167
 41
0.0104167
  0
VERTEX
  8
0
 10
1.99035
 20
2.01161
 30
0.0
 40
0.0104167
 41
0.0104167
  0
VERTEX
  8
0
 10
1.99642
 20
2.0261
 30
0.0
 40
0.0104167
 41
0.0104167
  0
VERTEX
  8
0
 10
2.0025
 20
2.04253
 30
0.0
 40
0.0104167
 41
0.0104167
  0
VERTEX
  8
0
 10
2.00836
 20
2.06087
 30
0.0
 40
0.0104167
 41
0.0104167
  0
VERTEX
  8
0
 10
2.01389
 20
2.08117
 30
0.0
 40
0.0104167
 41
0.0104167
  0
VERTEX
  8
0
 10
2.01887
 20
2.1034
 30
0.0
 40
0.0104167
 41
0.0104167
  0
VERTEX
  8
0
 10
2.02328
 20
2.12756
 30
0.0
 40
0.0104167
 41
0.0104167
  0
VERTEX
  8
0
 10
2.02681
 20
2.15364
 30
0.0
 40
0.0104167
 41
0.0104167
  0
VERTEX
  8
0
 10
2.02935
 20
2.18164
 30
0.0
 40
0.0104167
 41
0.0104167
  0
VERTEX
  8
0
 10
2.03082
 20
2.21143
 30
0.0
 40
0.0104167
 41
0.0104167
  0
VERTEX
  8
0
 10
2.03093
 20
2.24306
 30
0.0
 40
0.0104167
 41
0.0104167
  0
VERTEX
  8
0
 10
2.02962
 20
2.27642
 30
0.0
 40
0.0104167
 41
0.0104167
  0
VERTEX
  8
0
 10
2.02669
 20
2.31147
 30
0.0
 40
0.0104167
 41
0.0104167
  0
VERTEX
  8
0
 10
2.02203
 20
2.34814
 30
0.0
 40
0.0104167
 41
0.0104167
  0
VERTEX
  8
0
 10
2.01546
 20
2.38624
 30
0.0
 40
0.0104167
 41
0.0104167
  0
VERTEX
  8
0
 10
1.99392
 20
2.40517
 30
0.0
 40
0.0104167
 41
0.0104167
  0
VERTEX
  8
0
 10
1.97851
 20
2.41471
 30
0.0
 40
0.0104167
 41
0.0104167
  0
VERTEX
  8
0
 10
1.95193
 20
2.42546
 30
0.0
 40
0.0104167
 41
0.0104167
  0
VERTEX
  8
0
 10
1.91493
 20
2.41428
 30
0.0
 40
0.0104167
 41
0.0104167
  0
VERTEX
  8
0
 10
1.88004
 20
2.40201
 30
0.0
 40
0.0104167
 41
0.0104167
  0
VERTEX
  8
0
 10
1.84744
 20
2.38894
 30
0.0
 40
0.0104167
 41
0.0104167
  0
VERTEX
  8
0
 10
1.817
 20
2.37517
 30
0.0
 40
0.0104167
 41
0.0104167
  0
VERTEX
  8
0
 10
1.78879
 20
2.36089
 30
0.0
 40
0.0104167
 41
0.0104167
  0
VERTEX
  8
0
 10
1.76275
 20
2.34625
 30
0.0
 40
0.0104167
 41
0.0104167
  0
VERTEX
  8
0
 10
1.73887
 20
2.33143
 30
0.0
 40
0.0104167
 41
0.0104167
  0
VERTEX
  8
0
 10
1.71718
 20
2.31657
 30
0.0
 40
0.0104167
 41
0.0104167
  0
VERTEX
  8
0
 10
1.69749
 20
2.30186
 30
0.0
 40
0.0104167
 41
0.0104167
  0
VERTEX
  8
0
 10
1.67985
 20
2.28743
 30
0.0
 40
0.0104167
 41
0.0104167
  0
VERTEX
  8
0
 10
1.66422
 20
2.27339
 30
0.0
 40
0.0104167
 41
0.0104167
  0
VERTEX
  8
0
 10
1.65044
 20
2.25993
 30
0.0
 40
0.0104167
 41
0.0104167
  0
VERTEX
  8
0
 10
1.63846
 20
2.24718
 30
0.0
 40
0.0104167
 41
0.0104167
  0
VERTEX
  8
0
 10
1.62819
 20
2.23525
 30
0.0
 40
0.0104167
 41
0.0104167
  0
VERTEX
  8
0
 10
1.61957
 20
2.22428
 30
0.0
 40
0.0104167
 41
0.0104167
  0
VERTEX
  8
0
 10
1.61247
 20
2.21436
 30
0.0
 40
0.0104167
 41
0.0104167
  0
VERTEX
  8
0
 10
1.60678
 20
2.20562
 30
0.0
 40
0.0104167
 41
0.0104167
  0
VERTEX
  8
0
 10
1.60238
 20
2.19819
 30
0.0
 40
0.0104167
 41
0.0104167
  0
VERTEX
  8
0
 10
1.59913
 20
2.19211
 30
0.0
 40
0.0104167
 41
0.0104167
  0
VERTEX
  8
0
 10
1.5969
 20
2.1875
 30
0.0
 40
0.0104167
 41
0.0104167
  0
VERTEX
  8
0
 10
1.59554
 20
2.1844
 30
0.0
 40
0.0104167
 41
0.0104167
  0
VERTEX
  8
0
 10
1.595
 20
2.18294
 30
0.0
 40
0.0104167
 41
0.0104167
  0
VERTEX
  8
0
 10
1.53629
 20
2.00635
 30
0.0
 40
0.0104167
 41
0.0104167
  0
VERTEX
  8
0
 10
1.30208
 20
2.04428
 30
0.0
 40
0.0104167
 41
0.0104167
  0
VERTEX
  8
0
 10
1.30208
 20
2.23036
 30
0.0
 40
0.0104167
 41
0.0104167
  0
VERTEX
  8
0
 10
1.30203
 20
2.23193
 30
0.0
 40
0.0104167
 41
0.0104167
  0
VERTEX
  8
0
 10
1.3017
 20
2.23529
 30
0.0
 40
0.0104167
 41
0.0104167
  0
VERTEX
  8
0
 10
1.30105
 20
2.2404
 30
0.0
 40
0.0104167
 41
0.0104167
  0
VERTEX
  8
0
 10
1.29991
 20
2.24718
 30
0.0
 40
0.0104167
 41
0.0104167
  0
VERTEX
  8
0
 10
1.29807
 20
2.25564
 30
0.0
 40
0.0104167
 41
0.0104167
  0
VERTEX
  8
0
 10
1.29541
 20
2.26568
 30
0.0
 40
0.0104167
 41
0.0104167
  0
VERTEX
  8
0
 10
1.29177
 20
2.27735
 30
0.0
 40
0.0104167
 41
0.0104167
  0
VERTEX
  8
0
 10
1.28706
 20
2.29047
 30
0.0
 40
0.0104167
 41
0.0104167
  0
VERTEX
  8
0
 10
1.28109
 20
2.30501
 30
0.0
 40
0.0104167
 41
0.0104167
  0
VERTEX
  8
0
 10
1.27376
 20
2.3209
 30
0.0
 40
0.0104167
 41
0.0104167
  0
VERTEX
  8
0
 10
1.26492
 20
2.33806
 30
0.0
 40
0.0104167
 41
0.0104167
  0
VERTEX
  8
0
 10
1.2545
 20
2.35628
 30
0.0
 40
0.0104167
 41
0.0104167
  0
VERTEX
  8
0
 10
1.24235
 20
2.37554
 30
0.0
 40
0.0104167
 41
0.0104167
  0
VERTEX
  8
0
 10
1.22835
 20
2.39572
 30
0.0
 40
0.0104167
 41
0.0104167
  0
VERTEX
  8
0
 10
1.2124
 20
2.41667
 30
0.0
 40
0.0104167
 41
0.0104167
  0
VERTEX
  8
0
 10
1.19444
 20
2.43826
 30
0.0
 40
0.0104167
 41
0.0104167
  0
VERTEX
  8
0
 10
1.17432
 20
2.46039
 30
0.0
 40
0.0104167
 41
0.0104167
  0
VERTEX
  8
0
 10
1.15207
 20
2.48286
 30
0.0
 40
0.0104167
 41
0.0104167
  0
VERTEX
  8
0
 10
1.12755
 20
2.50549
 30
0.0
 40
0.0104167
 41
0.0104167
  0
VERTEX
  8
0
 10
1.10069
 20
2.52821
 30
0.0
 40
0.0104167
 41
0.0104167
  0
VERTEX
  8
0
 10
1.07151
 20
2.55083
 30
0.0
 40
0.0104167
 41
0.0104167
  0
VERTEX
  8
0
 10
1.03988
 20
2.57314
 30
0.0
 40
0.0104167
 41
0.0104167
  0
VERTEX
  8
0
 10
1.01128
 20
2.57129
 30
0.0
 40
0.0104167
 41
0.0104167
  0
VERTEX
  8
0
 10
0.993653
 20
2.56711
 30
0.0
 40
0.0104167
 41
0.0104167
  0
VERTEX
  8
0
 10
0.967231
 20
2.55599
 30
0.0
 40
0.0104167
 41
0.0104167
  0
VERTEX
  8
0
 10
0.949001
 20
2.52186
 30
0.0
 40
0.0104167
 41
0.0104167
  0
VERTEX
  8
0
 10
0.932997
 20
2.48856
 30
0.0
 40
0.0104167
 41
0.0104167
  0
VERTEX
  8
0
 10
0.919163
 20
2.45622
 30
0.0
 40
0.0104167
 41
0.0104167
  0
VERTEX
  8
0
 10
0.907389
 20
2.42497
 30
0.0
 40
0.0104167
 41
0.0104167
  0
VERTEX
  8
0
 10
0.897515
 20
2.39492
 30
0.0
 40
0.0104167
 41
0.0104167
  0
VERTEX
  8
0
 10
0.889486
 20
2.36615
 30
0.0
 40
0.0104167
 41
0.0104167
  0
VERTEX
  8
0
 10
0.883083
 20
2.33882
 30
0.0
 40
0.0104167
 41
0.0104167
  0
VERTEX
  8
0
 10
0.878201
 20
2.31293
 30
0.0
 40
0.0104167
 41
0.0104167
  0
VERTEX
  8
0
 10
0.874729
 20
2.28863
 30
0.0
 40
0.0104167
 41
0.0104167
  0
VERTEX
  8
0
 10
0.872504
 20
2.26594
 30
0.0
 40
0.0104167
 41
0.0104167
  0
VERTEX
  8
0
 10
0.871311
 20
2.24496
 30
0.0
 40
0.0104167
 41
0.0104167
  0
VERTEX
  8
0
 10
0.871094
 20
2.22569
 30
0.0
 40
0.0104167
 41
0.0104167
  0
VERTEX
  8
0
 10
0.87169
 20
2.20822
 30
0.0
 40
0.0104167
 41
0.0104167
  0
VERTEX
  8
0
 10
0.872831
 20
2.19254
 30
0.0
 40
0.0104167
 41
0.0104167
  0
VERTEX
  8
0
 10
0.874511
 20
2.17865
 30
0.0
 40
0.0104167
 41
0.0104167
  0
VERTEX
  8
0
 10
0.876465
 20
2.16667
 30
0.0
 40
0.0104167
 41
0.0104167
  0
VERTEX
  8
0
 10
0.878635
 20
2.15647
 30
0.0
 40
0.0104167
 41
0.0104167
  0
VERTEX
  8
0
 10
0.880751
 20
2.14806
 30
0.0
 40
0.0104167
 41
0.0104167
  0
VERTEX
  8
0
 10
0.882758
 20
2.14144
 30
0.0
 40
0.0104167
 41
0.0104167
  0
VERTEX
  8
0
 10
0.88444
 20
2.13661
 30
0.0
 40
0.0104167
 41
0.0104167
  0
VERTEX
  8
0
 10
0.885688
 20
2.13351
 30
0.0
 40
0.0104167
 41
0.0104167
  0
VERTEX
  8
0
 10
0.886339
 20
2.13206
 30
0.0
 40
0.0104167
 41
0.0104167
  0
VERTEX
  8
0
 10
0.969672
 20
1.96565
 30
0.0
 40
0.0104167
 41
0.0104167
  0
VERTEX
  8
0
 10
0.777289
 20
1.82688
 30
0.0
 40
0.0104167
 41
0.0104167
  0
VERTEX
  8
0
 10
0.645671
 20
1.9585
 30
0.0
 40
0.0104167
 41
0.0104167
  0
VERTEX
  8
0
 10
0.644531
 20
1.95953
 30
0.0
 40
0.0104167
 41
0.0104167
  0
VERTEX
  8
0
 10
0.641982
 20
1.96169
 30
0.0
 40
0.0104167
 41
0.0104167
  0
VERTEX
  8
0
 10
0.637912
 20
1.96485
 30
0.0
 40
0.0104167
 41
0.0104167
  0
VERTEX
  8
0
 10
0.632269
 20
1.96881
 30
0.0
 40
0.0104167
 41
0.0104167
  0
VERTEX
  8
0
 10
0.625
 20
1.97347
 30
0.0
 40
0.0104167
 41
0.0104167
  0
VERTEX
  8
0
 10
0.615994
 20
1.97874
 30
0.0
 40
0.0104167
 41
0.0104167
  0
VERTEX
  8
0
 10
0.605197
 20
1.98443
 30
0.0
 40
0.0104167
 41
0.0104167
  0
VERTEX
  8
0
 10
0.592557
 20
1.99035
 30
0.0
 40
0.0104167
 41
0.0104167
  0
VERTEX
  8
0
 10
0.578071
 20
1.99642
 30
0.0
 40
0.0104167
 41
0.0104167
  0
VERTEX
  8
0
 10
0.561632
 20
2.0025
 30
0.0
 40
0.0104167
 41
0.0104167
  0
VERTEX
  8
0
 10
0.543294
 20
2.00836
 30
0.0
 40
0.0104167
 41
0.0104167
  0
VERTEX
  8
0
 10
0.523003
 20
2.01389
 30
0.0
 40
0.0104167
 41
0.0104167
  0
VERTEX
  8
0
 10
0.50076
 20
2.01887
 30
0.0
 40
0.0104167
 41
0.0104167
  0
VERTEX
  8
0
 10
0.476617
 20
2.02328
 30
0.0
 40
0.0104167
 41
0.0104167
  0
VERTEX
  8
0
 10
0.450521
 20
2.02681
 30
0.0
 40
0.0104167
 41
0.0104167
  0
VERTEX
  8
0
 10
0.422526
 20
2.02935
 30
0.0
 40
0.0104167
 41
0.0104167
  0
VERTEX
  8
0
 10
0.39274
 20
2.03082
 30
0.0
 40
0.0104167
 41
0.0104167
  0
VERTEX
  8
0
 10
0.361111
 20
2.03093
 30
0.0
 40
0.0104167
 41
0.0104167
  0
VERTEX
  8
0
 10
0.327746
 20
2.02962
 30
0.0
 40
0.0104167
 41
0.0104167
  0
VERTEX
  8
0
 10
0.292697
 20
2.02669
 30
0.0
 40
0.0104167
 41
0.0104167
  0
VERTEX
  8
0
 10
0.256022
 20
2.02203
 30
0.0
 40
0.0104167
 41
0.0104167
  0
VERTEX
  8
0
 10
0.217936
 20
2.01546
 30
0.0
 40
0.0104167
 41
0.0104167
  0
VERTEX
  8
0
 10
0.199001
 20
1.99392
 30
0.0
 40
0.0104167
 41
0.0104167
  0
VERTEX
  8
0
 10
0.189453
 20
1.97851
 30
0.0
 40
0.0104167
 41
0.0104167
  0
VERTEX
  8
0
 10
0.178711
 20
1.95193
 30
0.0
 40
0.0104167
 41
0.0104167
  0
VERTEX
  8
0
 10
0.189887
 20
1.91493
 30
0.0
 40
0.0104167
 41
0.0104167
  0
VERTEX
  8
0
 10
0.202149
 20
1.88004
 30
0.0
 40
0.0104167
 41
0.0104167
  0
VERTEX
  8
0
 10
0.215224
 20
1.84744
 30
0.0
 40
0.0104167
 41
0.0104167
  0
VERTEX
  8
0
 10
0.229004
 20
1.817
 30
0.0
 40
0.0104167
 41
0.0104167
  0
VERTEX
  8
0
 10
0.243272
 20
1.78879
 30
0.0
 40
0.0104167
 41
0.0104167
  0
VERTEX
  8
0
 10
0.257921
 20
1.76275
 30
0.0
 40
0.0104167
 41
0.0104167
  0
VERTEX
  8
0
 10
0.272732
 20
1.73887
 30
0.0
 40
0.0104167
 41
0.0104167
  0
VERTEX
  8
0
 10
0.287597
 20
1.71718
 30
0.0
 40
0.0104167
 41
0.0104167
  0
VERTEX
  8
0
 10
0.3023
 20
1.69749
 30
0.0
 40
0.0104167
 41
0.0104167
  0
VERTEX
  8
0
 10
0.316732
 20
1.67985
 30
0.0
 40
0.0104167
 41
0.0104167
  0
VERTEX
  8
0
 10
0.330783
 20
1.66422
 30
0.0
 40
0.0104167
 41
0.0104167
  0
VERTEX
  8
0
 10
0.344239
 20
1.65044
 30
0.0
 40
0.0104167
 41
0.0104167
  0
VERTEX
  8
0
 10
0.356988
 20
1.63846
 30
0.0
 40
0.0104167
 41
0.0104167
  0
VERTEX
  8
0
 10
0.368924
 20
1.62819
 30
0.0
 40
0.0104167
 41
0.0104167
  0
VERTEX
  8
0
 10
0.379883
 20
1.61957
 30
0.0
 40
0.0104167
 41
0.0104167
  0
VERTEX
  8
0
 10
0.389811
 20
1.61247
 30
0.0
 40
0.0104167
 41
0.0104167
  0
VERTEX
  8
0
 10
0.398546
 20
1.60678
 30
0.0
 40
0.0104167
 41
0.0104167
  0
VERTEX
  8
0
 10
0.405979
 20
1.60238
 30
0.0
 40
0.0104167
 41
0.0104167
  0
VERTEX
  8
0
 10
0.412056
 20
1.59913
 30
0.0
 40
0.0104167
 41
0.0104167
  0
VERTEX
  8
0
 10
0.416667
 20
1.5969
 30
0.0
 40
0.0104167
 41
0.0104167
  0
VERTEX
  8
0
 10
0.41976
 20
1.59554
 30
0.0
 40
0.0104167
 41
0.0104167
  0
VERTEX
  8
0
 10
0.421224
 20
1.595
 30
0.0
 40
0.0104167
 41
0.0104167
  0
VERTEX
  8
0
 10
0.597819
 20
1.53629
 30
0.0
 40
0.0104167
 41
0.0104167
  0
VERTEX
  8
0
 10
0.559896
 20
1.30208
 30
0.0
 40
0.0104167
 41
0.0104167
  0
VERTEX
  8
0
 10
0.373807
 20
1.30208
 30
0.0
 40
0.0104167
 41
0.0104167
  0
VERTEX
  8
0
 10
0.372233
 20
1.30203
 30
0.0
 40
0.0104167
 41
0.0104167
  0
VERTEX
  8
0
 10
0.368869
 20
1.3017
 30
0.0
 40
0.0104167
 41
0.0104167
  0
VERTEX
  8
0
 10
0.363769
 20
1.30105
 30
0.0
 40
0.0104167
 41
0.0104167
  0
VERTEX
  8
0
 10
0.356988
 20
1.29991
 30
0.0
 40
0.0104167
 41
0.0104167
  0
VERTEX
  8
0
 10
0.348525
 20
1.29807
 30
0.0
 40
0.0104167
 41
0.0104167
  0
VERTEX
  8
0
 10
0.338487
 20
1.29541
 30
0.0
 40
0.0104167
 41
0.0104167
  0
VERTEX
  8
0
 10
0.326822
 20
1.29177
 30
0.0
 40
0.0104167
 41
0.0104167
  0
VERTEX
  8
0
 10
0.313693
 20
1.28706
 30
0.0
 40
0.0104167
 41
0.0104167
  0
VERTEX
  8
0
 10
0.299154
 20
1.28109
 30
0.0
 40
0.0104167
 41
0.0104167
  0
VERTEX
  8
0
 10
0.283257
 20
1.27376
 30
0.0
 40
0.0104167
 41
0.0104167
  0
VERTEX
  8
0
 10
0.266114
 20
1.26492
 30
0.0
 40
0.0104167
 41
0.0104167
  0
VERTEX
  8
0
 10
0.247885
 20
1.2545
 30
0.0
 40
0.0104167
 41
0.0104167
  0
VERTEX
  8
0
 10
0.228624
 20
1.24235
 30
0.0
 40
0.0104167
 41
0.0104167
  0
VERTEX
  8
0
 10
0.208442
 20
1.22835
 30
0.0
 40
0.0104167
 41
0.0104167
  0
VERTEX
  8
0
 10
0.1875
 20
1.2124
 30
0.0
 40
0.0104167
 41
0.0104167
  0
VERTEX
  8
0
 10
0.165907
 20
1.19444
 30
0.0
 40
0.0104167
 41
0.0104167
  0
VERTEX
  8
0
 10
0.143772
 20
1.17432
 30
0.0
 40
0.0104167
 41
0.0104167
  0
VERTEX
  8
0
 10
0.121311
 20
1.15207
 30
0.0
 40
0.0104167
 41
0.0104167
  0
VERTEX
  8
0
 10
0.0986871
 20
1.12755
 30
0.0
 40
0.0104167
 41
0.0104167
  0
VERTEX
  8
0
 10
0.0759549
 20
1.10069
 30
0.0
 40
0.0104167
 41
0.0104167
  0
VERTEX
  8
0
 10
0.0533311
 20
1.07151
 30
0.0
 40
0.0104167
 41
0.0104167
  0
VERTEX
  8
0
 10
0.0310331
 20
1.03988
 30
0.0
 40
0.0104167
 41
0.0104167
  0
VERTEX
  8
0
 10
0.0328776
 20
1.01128
 30
0.0
 40
0.0104167
 41
0.0104167
  0
VERTEX
  8
0
 10
0.0370551
 20
0.993653
 30
0.0
 40
0.0104167
 41
0.0104167
  0
VERTEX
  8
0
 10
0.0481771
 20
0.967231
 30
0.0
 40
0.0104167
 41
0.0104167
  0
VERTEX
  8
0
 10
0.0823025
 20
0.949001
 30
0.0
 40
0.0104167
 41
0.0104167
  0
VERTEX
  8
0
 10
0.115614
 20
0.932997
 30
0.0
 40
0.0104167
 41
0.0104167
  0
VERTEX
  8
0
 10
0.147949
 20
0.919163
 30
0.0
 40
0.0104167
 41
0.0104167
  0
VERTEX
  8
0
 10
0.179199
 20
0.907389
 30
0.0
 40
0.0104167
 41
0.0104167
  0
VERTEX
  8
0
 10
0.209256
 20
0.897515
 30
0.0
 40
0.0104167
 41
0.0104167
  0
VERTEX
  8
0
 10
0.23801
 20
0.889486
 30
0.0
 40
0.0104167
 41
0.0104167
  0
VERTEX
  8
0
 10
0.265354
 20
0.883083
 30
0.0
 40
0.0104167
 41
0.0104167
  0
VERTEX
  8
0
 10
0.291233
 20
0.878201
 30
0.0
 40
0.0104167
 41
0.0104167
  0
VERTEX
  8
0
 10
0.315539
 20
0.874729
 30
0.0
 40
0.0104167
 41
0.0104167
  0
VERTEX
  8
0
 10
0.338217
 20
0.872504
 30
0.0
 40
0.0104167
 41
0.0104167
  0
VERTEX
  8
0
 10
0.359213
 20
0.871311
 30
0.0
 40
0.0104167
 41
0.0104167
  0
VERTEX
  8
0
 10
0.378472
 20
0.871094
 30
0.0
 40
0.0104167
 41
0.0104167
  0
VERTEX
  8
0
 10
0.395942
 20
0.87169
 30
0.0
 40
0.0104167
 41
0.0104167
  0
VERTEX
  8
0
 10
0.411621
 20
0.872831
 30
0.0
 40
0.0104167
 41
0.0104167
  0
VERTEX
  8
0
 10
0.42551
 20
0.874511
 30
0.0
 40
0.0104167
 41
0.0104167
  0
VERTEX
  8
0
 10
0.4375
 20
0.876465
 30
0.0
 40
0.0104167
 41
0.0104167
  0
VERTEX
  8
0
 10
0.4477
 20
0.878635
 30
0.0
 40
0.0104167
 41
0.0104167
  0
VERTEX
  8
0
 10
0.456108
 20
0.880751
 30
0.0
 40
0.0104167
 41
0.0104167
  0
VERTEX
  8
0
 10
0.462728
 20
0.882758
 30
0.0
 40
0.0104167
 41
0.0104167
  0
VERTEX
  8
0
 10
0.467557
 20
0.88444
 30
0.0
 40
0.0104167
 41
0.0104167
  0
VERTEX
  8
0
 10
0.470649
 20
0.885688
 30
0.0
 40
0.0104167
 41
0.0104167
  0
VERTEX
  8
0
 10
0.472114
 20
0.886339
 30
0.0
 40
0.0104167
 41
0.0104167
  0
VERTEX
  8
0
 10
0.63851
 20
0.969672
 30
0.0
 40
0.0104167
 41
0.0104167
  0
VERTEX
  8
0
 10
0.777289
 20
0.777289
 30
0.0
 40
0.0104167
 41
0.0104167
  0
VERTEX
  8
0
 10
0.645671
 20
0.645671
 30
0.0
 40
0.0104167
 41
0.0104167
  0
VERTEX
  8
0
 10
0.64464
 20
0.644531
 30
0.0
 40
0.0104167
 41
0.0104167
  0
VERTEX
  8
0
 10
0.642469
 20
0.641982
 30
0.0
 40
0.0104167
 41
0.0104167
  0
VERTEX
  8
0
 10
0.639322
 20
0.637912
 30
0.0
 40
0.0104167
 41
0.0104167
  0
VERTEX
  8
0
 10
0.635363
 20
0.632269
 30
0.0
 40
0.0104167
 41
0.0104167
  0
VERTEX
  8
0
 10
0.630697
 20
0.625
 30
0.0
 40
0.0104167
 41
0.0104167
  0
VERTEX
  8
0
 10
0.625433
 20
0.615994
 30
0.0
 40
0.0104167
 41
0.0104167
  0
VERTEX
  8
0
 10
0.619738
 20
0.605197
 30
0.0
 40
0.0104167
 41
0.0104167
  0
VERTEX
  8
0
 10
0.613824
 20
0.592557
 30
0.0
 40
0.0104167
 41
0.0104167
  0
VERTEX
  8
0
 10
0.607747
 20
0.578071
 30
0.0
 40
0.0104167
 41
0.0104167
  0
VERTEX
  8
0
 10
0.601671
 20
0.561632
 30
0.0
 40
0.0104167
 41
0.0104167
  0
VERTEX
  8
0
 10
0.595811
 20
0.543294
 30
0.0
 40
0.0104167
 41
0.0104167
  0
VERTEX
  8
0
 10
0.590278
 20
0.523003
 30
0.0
 40
0.0104167
 41
0.0104167
  0
VERTEX
  8
0
 10
0.585286
 20
0.50076
 30
0.0
 40
0.0104167
 41
0.0104167
  0
VERTEX
  8
0
 10
0.580892
 20
0.476617
 30
0.0
 40
0.0104167
 41
0.0104167
  0
VERTEX
  8
0
 10
0.577365
 20
0.450521
 30
0.0
 40
0.0104167
 41
0.0104167
  0
VERTEX
  8
0
 10
0.574815
 20
0.422526
 30
0.0
 40
0.0104167
 41
0.0104167
  0
VERTEX
  8
0
 10
0.57335
 20
0.39274
 30
0.0
 40
0.0104167
 41
0.0104167
  0
VERTEX
  8
0
 10
0.573242
 20
0.361111
 30
0.0
 40
0.0104167
 41
0.0104167
  0
VERTEX
  8
0
 10
0.574544
 20
0.327746
 30
0.0
 40
0.0104167
 41
0.0104167
  0
VERTEX
  8
0
 10
0.577474
 20
0.292697
 30
0.0
 40
0.0104167
 41
0.0104167
  0
VERTEX
  8
0
 10
0.58214
 20
0.256022
 30
0.0
 40
0.0104167
 41
0.0104167
  0
VERTEX
  8
0
 10
0.588704
 20
0.217936
 30
0.0
 40
0.0104167
 41
0.0104167
  0
VERTEX
  8
0
 10
0.610243
 20
0.199001
 30
0.0
 40
0.0104167
 41
0.0104167
  0
VERTEX
  8
0
 10
0.625651
 20
0.189453
 30
0.0
 40
0.0104167
 41
0.0104167
  0
VERTEX
  8
0
 10
0.652235
 20
0.178711
 30
0.0
 40
0.0104167
 41
0.0104167
  0
VERTEX
  8
0
 10
0.689236
 20
0.189887
 30
0.0
 40
0.0104167
 41
0.0104167
  0
VERTEX
  8
0
 10
0.724121
 20
0.202149
 30
0.0
 40
0.0104167
 41
0.0104167
  0
VERTEX
  8
0
 10
0.756728
 20
0.215224
 30
0.0
 40
0.0104167
 41
0.0104167
  0
VERTEX
  8
0
 10
0.787164
 20
0.229004
 30
0.0
 40
0.0104167
 41
0.0104167
  0
VERTEX
  8
0
 10
0.815375
 20
0.243272
 30
0.0
 40
0.0104167
 41
0.0104167
  0
VERTEX
  8
0
 10
0.841417
 20
0.257921
 30
0.0
 40
0.0104167
 41
0.0104167
  0
VERTEX
  8
0
 10
0.865289
 20
0.272732
 30
0.0
 40
0.0104167
 41
0.0104167
  0
VERTEX
  8
0
 10
0.88699
 20
0.287597
 30
0.0
 40
0.0104167
 41
0.0104167
  0
VERTEX
  8
0
 10
0.906683
 20
0.3023
 30
0.0
 40
0.0104167
 41
0.0104167
  0
VERTEX
  8
0
 10
0.924317
 20
0.316732
 30
0.0
 40
0.0104167
 41
0.0104167
  0
VERTEX
  8
0
 10
0.939942
 20
0.330783
 30
0.0
 40
0.0104167
 41
0.0104167
  0
VERTEX
  8
0
 10
0.953722
 20
0.344239
 30
0.0
 40
0.0104167
 41
0.0104167
  0
VERTEX
  8
0
 10
0.965711
 20
0.356988
 30
0.0
 40
0.0104167
 41
0.0104167
  0
VERTEX
  8
0
 10
0.975965
 20
0.368924
 30
0.0
 40
0.0104167
 41
0.0104167
  0
VERTEX
  8
0
 10
0.984592
 20
0.379883
 30
0.0
 40
0.0104167
 41
0.0104167
  0
VERTEX
  8
0
 10
0.991699
 20
0.389811
 30
0.0
 40
0.0104167
 41
0.0104167
  0
VERTEX
  8
0
 10
0.997396
 20
0.398546
 30
0.0
 40
0.0104167
 41
0.0104167
  0
VERTEX
  8
0
 10
1.00179
 20
0.405979
 30
0.0
 40
0.0104167
 41
0.0104167
  0
VERTEX
  8
0
 10
1.00505
 20
0.412056
 30
0.0
 40
0.0104167
 41
0.0104167
  0
VERTEX
  8
0
 10
1.00727
 20
0.416667
 30
0.0
 40
0.0104167
 41
0.0104167
  0
VERTEX
  8
0
 10
1.00863
 20
0.41976
 30
0.0
 40
0.0104167
 41
0.0104167
  0
VERTEX
  8
0
 10
1.00917
 20
0.421224
 30
0.0
 40
0.0104167
 41
0.0104167
  0
VERTEX
  8
0
 10
1.06787
 20
0.597819
 30
0.0
 40
0.0104167
 41
0.0104167
  0
VERTEX
  8
0
 10
1.30208
 20
0.559896
 30
0.0
 40
0.0104167
 41
0.0104167
  0
VERTEX
  8
0
 10
1.30208
 20
0.373807
 30
0.0
 40
0.0104167
 41
0.0104167
  0
VERTEX
  8
0
 10
1.30214
 20
0.372233
 30
0.0
 40
0.0104167
 41
0.0104167
  0
VERTEX
  8
0
 10
1.30246
 20
0.368869
 30
0.0
 40
0.0104167
 41
0.0104167
  0
VERTEX
  8
0
 10
1.30311
 20
0.363769
 30
0.0
 40
0.0104167
 41
0.0104167
  0
VERTEX
  8
0
 10
1.30425
 20
0.356988
 30
0.0
 40
0.0104167
 41
0.0104167
  0
VERTEX
  8
0
 10
1.3061
 20
0.348525
 30
0.0
 40
0.0104167
 41
0.0104167
  0
VERTEX
  8
0
 10
1.30876
 20
0.338487
 30
0.0
 40
0.0104167
 41
0.0104167
  0
VERTEX
  8
0
 10
1.31239
 20
0.326822
 30
0.0
 40
0.0104167
 41
0.0104167
  0
VERTEX
  8
0
 10
1.31711
 20
0.313693
 30
0.0
 40
0.0104167
 41
0.0104167
  0
VERTEX
  8
0
 10
1.32308
 20
0.299154
 30
0.0
 40
0.0104167
 41
0.0104167
  0
VERTEX
  8
0
 10
1.3304
 20
0.283257
 30
0.0
 40
0.0104167
 41
0.0104167
  0
VERTEX
  8
0
 10
1.33925
 20
0.266114
 30
0.0
 40
0.0104167
 41
0.0104167
  0
VERTEX
  8
0
 10
1.34966
 20
0.247885
 30
0.0
 40
0.0104167
 41
0.0104167
  0
VERTEX
  8
0
 10
1.36182
 20
0.228624
 30
0.0
 40
0.0104167
 41
0.0104167
  0
VERTEX
  8
0
 10
1.37581
 20
0.208442
 30
0.0
 40
0.0104167
 41
0.0104167
  0
VERTEX
  8
0
 10
1.39176
 20
0.1875
 30
0.0
 40
0.0104167
 41
0.0104167
  0
VERTEX
  8
0
 10
1.40972
 20
0.165907
 30
0.0
 40
0.0104167
 41
0.0104167
  0
VERTEX
  8
0
 10
1.42985
 20
0.143772
 30
0.0
 40
0.0104167
 41
0.0104167
  0
VERTEX
  8
0
 10
1.4521
 20
0.121311
 30
0.0
 40
0.0104167
 41
0.0104167
  0
VERTEX
  8
0
 10
1.47661
 20
0.0986871
 30
0.0
 40
0.0104167
 41
0.0104167
  0
VERTEX
  8
0
 10
1.50347
 20
0.0759549
 30
0.0
 40
0.0104167
 41
0.0104167
  0
VERTEX
  8
0
 10
1.53267
 20
0.0533311
 30
0.0
 40
0.0104167
 41
0.0104167
  0
VERTEX
  8
0
 10
1.56429
 20
0.0310331
 30
0.0
 40
0.0104167
 41
0.0104167
  0
VERTEX
  8
0
 10
1.59289
 20
0.0328776
 30
0.0
 40
0.0104167
 41
0.0104167
  0
VERTEX
  8
0
 10
1.61051
 20
0.0370551
 30
0.0
 40
0.0104167
 41
0.0104167
  0
VERTEX
  8
0
 10
1.63693
 20
0.0481771
 30
0.0
 40
0.0104167
 41
0.0104167
  0
VERTEX
  8
0
 10
1.65517
 20
0.0823025
 30
0.0
 40
0.0104167
 41
0.0104167
  0
VERTEX
  8
0
 10
1.67117
 20
0.115614
 30
0.0
 40
0.0104167
 41
0.0104167
  0
VERTEX
  8
0
 10
1.685
 20
0.147949
 30
0.0
 40
0.0104167
 41
0.0104167
  0
VERTEX
  8
0
 10
1.69678
 20
0.179199
 30
0.0
 40
0.0104167
 41
0.0104167
  0
VERTEX
  8
0
 10
1.70665
 20
0.209256
 30
0.0
 40
0.0104167
 41
0.0104167
  0
VERTEX
  8
0
 10
1.71468
 20
0.23801
 30
0.0
 40
0.0104167
 41
0.0104167
  0
VERTEX
  8
0
 10
1.72108
 20
0.265354
 30
0.0
 40
0.0104167
 41
0.0104167
  0
VERTEX
  8
0
 10
1.72597
 20
0.291233
 30
0.0
 40
0.0104167
 41
0.0104167
  0
VERTEX
  8
0
 10
1.72944
 20
0.315539
 30
0.0
 40
0.0104167
 41
0.0104167
  0
VERTEX
  8
0
 10
1.73167
 20
0.338217
 30
0.0
 40
0.0104167
 41
0.0104167
  0
VERTEX
  8
0
 10
1.73286
 20
0.359213
 30
0.0
 40
0.0104167
 41
0.0104167
  0
VERTEX
  8
0
 10
1.73307
 20
0.378472
 30
0.0
 40
0.0104167
 41
0.0104167
  0
VERTEX
  8
0
 10
1.73247
 20
0.395942
 30
0.0
 40
0.0104167
 41
0.0104167
  0
VERTEX
  8
0
 10
1.73133
 20
0.411621
 30
0.0
 40
0.0104167
 41
0.0104167
  0
VERTEX
  8
0
 10
1.72965
 20
0.42551
 30
0.0
 40
0.0104167
 41
0.0104167
  0
VERTEX
  8
0
 10
1.72771
 20
0.4375
 30
0.0
 40
0.0104167
 41
0.0104167
  0
VERTEX
  8
0
 10
1.72553
 20
0.4477
 30
0.0
 40
0.0104167
 41
0.0104167
  0
VERTEX
  8
0
 10
1.72342
 20
0.456108
 30
0.0
 40
0.0104167
 41
0.0104167
  0
VERTEX
  8
0
 10
1.7214
 20
0.462728
 30
0.0
 40
0.0104167
 41
0.0104167
  0
VERTEX
  8
0
 10
1.71972
 20
0.467557
 30
0.0
 40
0.0104167
 41
0.0104167
  0
VERTEX
  8
0
 10
1.71847
 20
0.470649
 30
0.0
 40
0.0104167
 41
0.0104167
  0
VERTEX
  8
0
 10
1.71783
 20
0.472114
 30
0.0
 40
0.0104167
 41
0.0104167
  0
VERTEX
  8
0
 10
1.6345
 20
0.63851
 30
0.0
 40
0.0104167
 41
0.0104167
  0
VERTEX
  8
0
 10
1.82688
 20
0.777289
 30
0.0
 40
0.0104167
 41
0.0104167
  0
VERTEX
  8
0
 10
1.9585
 20
0.645671
 30
0.0
 40
0.0104167
 41
0.0104167
  0
VERTEX
  8
0
 10
1.95964
 20
0.64464
 30
0.0
 40
0.0104167
 41
0.0104167
  0
VERTEX
  8
0
 10
1.96218
 20
0.642469
 30
0.0
 40
0.0104167
 41
0.0104167
  0
VERTEX
  8
0
 10
1.96625
 20
0.639322
 30
0.0
 40
0.0104167
 41
0.0104167
  0
VERTEX
  8
0
 10
1.9719
 20
0.635363
 30
0.0
 40
0.0104167
 41
0.0104167
  0
VERTEX
  8
0
 10
1.97917
 20
0.630697
 30
0.0
 40
0.0104167
 41
0.0104167
  0
VERTEX
  8
0
 10
1.98817
 20
0.625433
 30
0.0
 40
0.0104167
 41
0.0104167
  0
VERTEX
  8
0
 10
1.99897
 20
0.619738
 30
0.0
 40
0.0104167
 41
0.0104167
  0
VERTEX
  8
0
 10
2.01161
 20
0.613824
 30
0.0
 40
0.0104167
 41
0.0104167
  0
VERTEX
  8
0
 10
2.0261
 20
0.607747
 30
0.0
 40
0.0104167
 41
0.0104167
  0
VERTEX
  8
0
 10
2.04253
 20
0.601671
 30
0.0
 40
0.0104167
 41
0.0104167
  0
VERTEX
  8
0
 10
2.06087
 20
0.595811
 30
0.0
 40
0.0104167
 41
0.0104167
  0
VERTEX
  8
0
 10
2.08117
 20
0.590278
 30
0.0
 40
0.0104167
 41
0.0104167
  0
VERTEX
  8
0
 10
2.1034
 20
0.585286
 30
0.0
 40
0.0104167
 41
0.0104167
  0
VERTEX
  8
0
 10
2.12756
 20
0.580892
 30
0.0
 40
0.0104167
 41
0.0104167
  0
VERTEX
  8
0
 10
2.15364
 20
0.577365
 30
0.0
 40
0.0104167
 41
0.0104167
  0
VERTEX
  8
0
 10
2.18164
 20
0.574815
 30
0.0
 40
0.0104167
 41
0.0104167
  0
VERTEX
  8
0
 10
2.21143
 20
0.57335
 30
0.0
 40
0.0104167
 41
0.0104167
  0
VERTEX
  8
0
 10
2.24306
 20
0.573242
 30
0.0
 40
0.0104167
 41
0.0104167
  0
VERTEX
  8
0
 10
2.27642
 20
0.574544
 30
0.0
 40
0.0104167
 41
0.0104167
  0
VERTEX
  8
0
 10
2.31147
 20
0.577474
 30
0.0
 40
0.0104167
 41
0.0104167
  0
VERTEX
  8
0
 10
2.34814
 20
0.58214
 30
0.0
 40
0.0104167
 41
0.0104167
  0
VERTEX
  8
0
 10
2.38624
 20
0.588704
 30
0.0
 40
0.0104167
 41
0.0104167
  0
VERTEX
  8
0
 10
2.40517
 20
0.610243
 30
0.0
 40
0.0104167
 41
0.0104167
  0
VERTEX
  8
0
 10
2.41471
 20
0.625651
 30
0.0
 40
0.0104167
 41
0.0104167
  0
VERTEX
  8
0
 10
2.42546
 20
0.652235
 30
0.0
 40
0.0104167
 41
0.0104167
  0
VERTEX
  8
0
 10
2.41428
 20
0.689236
 30
0.0
 40
0.0104167
 41
0.0104167
  0
VERTEX
  8
0
 10
2.40201
 20
0.724121
 30
0.0
 40
0.0104167
 41
0.0104167
  0
VERTEX
  8
0
 10
2.38894
 20
0.756728
 30
0.0
 40
0.0104167
 41
0.0104167
  0
VERTEX
  8
0
 10
2.37517
 20
0.787164
 30
0.0
 40
0.0104167
 41
0.0104167
  0
VERTEX
  8
0
 10
2.36089
 20
0.815375
 30
0.0
 40
0.0104167
 41
0.0104167
  0
VERTEX
  8
0
 10
2.34625
 20
0.841417
 30
0.0
 40
0.0104167
 41
0.0104167
  0
VERTEX
  8
0
 10
2.33143
 20
0.865289
 30
0.0
 40
0.0104167
 41
0.0104167
  0
VERTEX
  8
0
 10
2.31657
 20
0.88699
 30
0.0
 40
0.0104167
 41
0.0104167
  0
VERTEX
  8
0
 10
2.30186
 20
0.906683
 30
0.0
 40
0.0104167
 41
0.0104167
  0
VERTEX
  8
0
 10
2.28743
 20
0.924317
 30
0.0
 40
0.0104167
 41
0.0104167
  0
VERTEX
  8
0
 10
2.27339
 20
0.939942
 30
0.0
 40
0.0104167
 41
0.0104167
  0
VERTEX
  8
0
 10
2.25993
 20
0.953722
 30
0.0
 40
0.0104167
 41
0.0104167
  0
VERTEX
  8
0
 10
2.24718
 20
0.965711
 30
0.0
 40
0.0104167
 41
0.0104167
  0
VERTEX
  8
0
 10
2.23525
 20
0.975965
 30
0.0
 40
0.0104167
 41
0.0104167
  0
VERTEX
  8
0
 10
2.22428
 20
0.984592
 30
0.0
 40
0.0104167
 41
0.0104167
  0
VERTEX
  8
0
 10
2.21436
 20
0.991699
 30
0.0
 40
0.0104167
 41
0.0104167
  0
VERTEX
  8
0
 10
2.20562
 20
0.997396
 30
0.0
 40
0.0104167
 41
0.0104167
  0
VERTEX
  8
0
 10
2.19819
 20
1.00179
 30
0.0
 40
0.0104167
 41
0.0104167
  0
VERTEX
  8
0
 10
2.19211
 20
1.00505
 30
0.0
 40
0.0104167
 41
0.0104167
  0
VERTEX
  8
0
 10
2.1875
 20
1.00727
 30
0.0
 40
0.0104167
 41
0.0104167
  0
VERTEX
  8
0
 10
2.1844
 20
1.00863
 30
0.0
 40
0.0104167
 41
0.0104167
  0
VERTEX
  8
0
 10
2.18294
 20
1.00917
 30
0.0
 40
0.0104167
 41
0.0104167
  0
VERTEX
  8
0
 10
2.00635
 20
1.06787
 30
0.0
 40
0.0104167
 41
0.0104167
  0
VERTEX
  8
0
 10
2.04428
 20
1.30208
 30
0.0
 40
0.0104167
 41
0.0104167
  0
SEQEND
 8
0
  0
POLYLINE
  8
0
 62
     8
 66
     1
 10
0
 20
0
 30
0.0
 40
0.375
 41
0.375
  0
VERTEX
  8
0
 10
1.40625
 20
1.30208
 30
0.0
 40
0.00520833
 41
0.00520833
  0
VERTEX
  8
0
 10
1.19792
 20
1.30208
 30
0.0
 40
0.00520833
 41
0.00520833
  0
SEQEND
 8
0
  0
POLYLINE
  8
0
 62
     8
 66
     1
 10
0
 20
0
 30
0.0
 40
0.375
 41
0.375
  0
VERTEX
  8
0
 10
1.30208
 20
1.19792
 30
0.0
 40
0.00520833
 41
0.00520833
  0
VERTEX
  8
0
 10
1.30208
 20
1.40625
 30
0.0
 40
0.00520833
 41
0.00520833
  0
SEQEND
 8
0
  0
POLYLINE
  8
0
 62
     12
 66
     1
 10
0
 20
0
 30
0.0
 70
     1
 40
0
 41
0
  0
VERTEX
  8
0
 10
2.41803
 20
1.54178
 30
0.0
 40
0
 41
0
  0
VERTEX
  8
0
 10
2.40994
 20
1.50201
 30
0.0
 40
0
 41
0
  0
VERTEX
  8
0
 10
2.38807
 20
1.46951
 30
0.0
 40
0
 41
0
  0
VERTEX
  8
0
 10
2.35558
 20
1.44764
 30
0.0
 40
0
 41
0
  0
VERTEX
  8
0
 10
2.31581
 20
1.43956
 30
0.0
 40
0
 41
0
  0
VERTEX
  8
0
 10
2.27599
 20
1.44764
 30
0.0
 40
0
 41
0
  0
VERTEX
  8
0
 10
2.24349
 20
1.46951
 30
0.0
 40
0
 41
0
  0
VERTEX
  8
0
 10
2.22157
 20
1.50201
 30
0.0
 40
0
 41
0
  0
VERTEX
  8
0
 10
2.2136
 20
1.54178
 30
0.0
 40
0
 41
0
  0
VERTEX
  8
0
 10
2.22157
 20
1.5816
 30
0.0
 40
0
 41
0
  0
VERTEX
  8
0
 10
2.24349
 20
1.6141
 30
0.0
 40
0
 41
0
  0
VERTEX
  8
0
 10
2.27599
 20
1.63601
 30
0.0
 40
0
 41
0
  0
VERTEX
  8
0
 10
2.31581
 20
1.64399
 30
0.0
 40
0
 41
0
  0
VERTEX
  8
0
 10
2.35558
 20
1.63601
 30
0.0
 40
0
 41
0
  0
VERTEX
  8
0
 10
2.38807
 20
1.6141
 30
0.0
 40
0
 41
0
  0
VERTEX
  8
0
 10
2.40994
 20
1.5816
 30
0.0
 40
0
 41
0
  0
VERTEX
  8
0
 10
2.41803
 20
1.54178
 30
0.0
 40
0
 41
0
  0
SEQEND
 8
0
  0
POLYLINE
  8
0
 62
     8
 66
     1
 10
0
 20
0
 30
0.0
 40
0.375
 41
0.375
  0
VERTEX
  8
0
 10
0.996961
 20
1.77821
 30
0.0
 40
0.00520833
 41
0.00520833
  0
VERTEX
  8
0
 10
0.982314
 20
1.76844
 30
0.0
 40
0.00520833
 41
0.00520833
  0
VERTEX
  8
0
 10
0.967936
 20
1.75825
 30
0.0
 40
0.00520833
 41
0.00520833
  0
VERTEX
  8
0
 10
0.953776
 20
1.74761
 30
0.0
 40
0.00520833
 41
0.00520833
  0
VERTEX
  8
0
 10
0.939996
 20
1.73643
 30
0.0
 40
0.00520833
 41
0.00520833
  0
SEQEND
 8
0
  0
POLYLINE
  8
0
 62
     8
 66
     1
 10
0
 20
0
 30
0.0
 40
0.375
 41
0.375
  0
VERTEX
  8
0
 10
0.988769
 20
1.72971
 30
0.0
 40
0.00520833
 41
0.00520833
  0
VERTEX
  8
0
 10
0.946994
 20
1.78678
 30
0.0
 40
0.00520833
 41
0.00520833
  0
SEQEND
 8
0
  0
POLYLINE
  8
0
 62
     8
 66
     1
 10
0
 20
0
 30
0.0
 40
0.375
 41
0.375
  0
VERTEX
  8
0
 10
0.977919
 20
1.80794
 30
0.0
 40
0.00520833
 41
0.00520833
  0
VERTEX
  8
0
 10
0.972276
 20
1.78304
 30
0.0
 40
0.00520833
 41
0.00520833
  0
VERTEX
  8
0
 10
0.967936
 20
1.75825
 30
0.0
 40
0.00520833
 41
0.00520833
  0
VERTEX
  8
0
 10
0.964681
 20
1.73367
 30
0.0
 40
0.00520833
 41
0.00520833
  0
VERTEX
  8
0
 10
0.962728
 20
1.70925
 30
0.0
 40
0.00520833
 41
0.00520833
  0
SEQEND
 8
0
  0
POLYLINE
  8
0
 62
     8
 66
     1
 10
0
 20
0
 30
0.0
 40
0.375
 41
0.375
  0
VERTEX
  8
0
 10
1.01606
 20
1.74843
 30
0.0
 40
0.00520833
 41
0.00520833
  0
VERTEX
  8
0
 10
0.992296
 20
1.75385
 30
0.0
 40
0.00520833
 41
0.00520833
  0
VERTEX
  8
0
 10
0.967936
 20
1.75825
 30
0.0
 40
0.00520833
 41
0.00520833
  0
VERTEX
  8
0
 10
0.942925
 20
1.76144
 30
0.0
 40
0.00520833
 41
0.00520833
  0
VERTEX
  8
0
 10
0.917372
 20
1.76367
 30
0.0
 40
0.00520833
 41
0.00520833
  0
SEQEND
 8
0
  0
POLYLINE
  8
0
 62
     8
 66
     1
 10
0
 20
0
 30
0.0
 70
     1
 40
0.375
 41
0.375
  0
VERTEX
  8
0
 10
1.08908
 20
1.78749
 30
0.0
 40
0.00520833
 41
0.00520833
  0
VERTEX
  8
0
 10
1.08154
 20
1.76471
 30
0.0
 40
0.00520833
 41
0.00520833
  0
VERTEX
  8
0
 10
1.06717
 20
1.7576
 30
0.0
 40
0.00520833
 41
0.00520833
  0
VERTEX
  8
0
 10
1.04449
 20
1.7654
 30
0.0
 40
0.00520833
 41
0.00520833
  0
VERTEX
  8
0
 10
1.0102
 20
1.82721
 30
0.0
 40
0.00520833
 41
0.00520833
  0
VERTEX
  8
0
 10
1.01866
 20
1.85178
 30
0.0
 40
0.00520833
 41
0.00520833
  0
VERTEX
  8
0
 10
1.03592
 20
1.8604
 30
0.0
 40
0.00520833
 41
0.00520833
  0
VERTEX
  8
0
 10
1.0606
 20
1.85226
 30
0.0
 40
0.00520833
 41
0.00520833
  0
VERTEX
  8
0
 10
1.08908
 20
1.78749
 30
0.0
 40
0.00520833
 41
0.00520833
  0
SEQEND
 8
0
  0
POLYLINE
  8
0
 62
     8
 66
     1
 10
0
 20
0
 30
0.0
 40
0.375
 41
0.375
  0
VERTEX
  8
0
 10
1.25895
 20
1.91906
 30
0.0
 40
0.00520833
 41
0.00520833
  0
VERTEX
  8
0
 10
1.26633
 20
1.81332
 30
0.0
 40
0.00520833
 41
0.00520833
  0
VERTEX
  8
0
 10
1.24772
 20
1.83832
 30
0.0
 40
0.00520833
 41
0.00520833
  0
VERTEX
  8
0
 10
1.22748
 20
1.86262
 30
0.0
 40
0.00520833
 41
0.00520833
  0
VERTEX
  8
0
 10
1.20573
 20
1.88612
 30
0.0
 40
0.00520833
 41
0.00520833
  0
VERTEX
  8
0
 10
1.1824
 20
1.90886
 30
0.0
 40
0.00520833
 41
0.00520833
  0
VERTEX
  8
0
 10
1.20291
 20
1.8049
 30
0.0
 40
0.00520833
 41
0.00520833
  0
SEQEND
 8
0
  0
POLYLINE
  8
0
 62
     8
 66
     1
 10
0
 20
0
 30
0.0
 40
0.375
 41
0.375
  0
VERTEX
  8
0
 10
1.3705
 20
1.88124
 30
0.0
 40
0.00520833
 41
0.00520833
  0
VERTEX
  8
0
 10
1.35238
 20
1.88303
 30
0.0
 40
0.00520833
 41
0.00520833
  0
VERTEX
  8
0
 10
1.33426
 20
1.88439
 30
0.0
 40
0.00520833
 41
0.00520833
  0
VERTEX
  8
0
 10
1.31603
 20
1.8851
 30
0.0
 40
0.00520833
 41
0.00520833
  0
VERTEX
  8
0
 10
1.2978
 20
1.88519
 30
0.0
 40
0.00520833
 41
0.00520833
  0
SEQEND
 8
0
  0
POLYLINE
  8
0
 62
     8
 66
     1
 10
0
 20
0
 30
0.0
 40
0.375
 41
0.375
  0
VERTEX
  8
0
 10
1.36637
 20
1.84614
 30
0.0
 40
0.00520833
 41
0.00520833
  0
VERTEX
  8
0
 10
1.34939
 20
1.84782
 30
0.0
 40
0.00520833
 41
0.00520833
  0
VERTEX
  8
0
 10
1.3323
 20
1.84907
 30
0.0
 40
0.00520833
 41
0.00520833
  0
VERTEX
  8
0
 10
1.31521
 20
1.84967
 30
0.0
 40
0.00520833
 41
0.00520833
  0
VERTEX
  8
0
 10
1.29801
 20
1.84987
 30
0.0
 40
0.00520833
 41
0.00520833
  0
SEQEND
 8
0
  0
POLYLINE
  8
0
 62
     8
 66
     1
 10
0
 20
0
 30
0.0
 40
0.375
 41
0.375
  0
VERTEX
  8
0
 10
1.42074
 20
1.85499
 30
0.0
 40
0.00520833
 41
0.00520833
  0
VERTEX
  8
0
 10
1.40022
 20
1.84104
 30
0.0
 40
0.00520833
 41
0.00520833
  0
VERTEX
  8
0
 10
1.39708
 20
1.82362
 30
0.0
 40
0.00520833
 41
0.00520833
  0
VERTEX
  8
0
 10
1.40956
 20
1.80311
 30
0.0
 40
0.00520833
 41
0.00520833
  0
VERTEX
  8
0
 10
1.42518
 20
1.79947
 30
0.0
 40
0.00520833
 41
0.00520833
  0
VERTEX
  8
0
 10
1.44075
 20
1.79542
 30
0.0
 40
0.00520833
 41
0.00520833
  0
VERTEX
  8
0
 10
1.46138
 20
1.80772
 30
0.0
 40
0.00520833
 41
0.00520833
  0
VERTEX
  8
0
 10
1.46669
 20
1.8246
 30
0.0
 40
0.00520833
 41
0.00520833
  0
VERTEX
  8
0
 10
1.45503
 20
1.84646
 30
0.0
 40
0.00520833
 41
0.00520833
  0
VERTEX
  8
0
 10
1.43793
 20
1.85101
 30
0.0
 40
0.00520833
 41
0.00520833
  0
VERTEX
  8
0
 10
1.42074
 20
1.85499
 30
0.0
 40
0.00520833
 41
0.00520833
  0
VERTEX
  8
0
 10
1.40657
 20
1.87582
 30
0.0
 40
0.00520833
 41
0.00520833
  0
VERTEX
  8
0
 10
1.40978
 20
1.89312
 30
0.0
 40
0.00520833
 41
0.00520833
  0
VERTEX
  8
0
 10
1.43186
 20
1.90679
 30
0.0
 40
0.00520833
 41
0.00520833
  0
VERTEX
  8
0
 10
1.45074
 20
1.9025
 30
0.0
 40
0.00520833
 41
0.00520833
  0
VERTEX
  8
0
 10
1.4694
 20
1.89751
 30
0.0
 40
0.00520833
 41
0.00520833
  0
VERTEX
  8
0
 10
1.48258
 20
1.87511
 30
0.0
 40
0.00520833
 41
0.00520833
  0
VERTEX
  8
0
 10
1.47726
 20
1.85835
 30
0.0
 40
0.00520833
 41
0.00520833
  0
VERTEX
  8
0
 10
1.45503
 20
1.84646
 30
0.0
 40
0.00520833
 41
0.00520833
  0
SEQEND
 8
0
  0
POLYLINE
  8
0
 62
     8
 66
     1
 10
0
 20
0
 30
0.0
 40
0.375
 41
0.375
  0
VERTEX
  8
0
 10
1.58501
 20
1.79167
 30
0.0
 40
0.00520833
 41
0.00520833
  0
VERTEX
  8
0
 10
1.6001
 20
1.78261
 30
0.0
 40
0.00520833
 41
0.00520833
  0
VERTEX
  8
0
 10
1.61501
 20
1.77311
 30
0.0
 40
0.00520833
 41
0.00520833
  0
VERTEX
  8
0
 10
1.62956
 20
1.76313
 30
0.0
 40
0.00520833
 41
0.00520833
  0
VERTEX
  8
0
 10
1.65446
 20
1.76665
 30
0.0
 40
0.00520833
 41
0.00520833
  0
VERTEX
  8
0
 10
1.66521
 20
1.78071
 30
0.0
 40
0.00520833
 41
0.00520833
  0
VERTEX
  8
0
 10
1.66032
 20
1.80626
 30
0.0
 40
0.00520833
 41
0.00520833
  0
VERTEX
  8
0
 10
1.64437
 20
1.81728
 30
0.0
 40
0.00520833
 41
0.00520833
  0
VERTEX
  8
0
 10
1.62815
 20
1.82769
 30
0.0
 40
0.00520833
 41
0.00520833
  0
VERTEX
  8
0
 10
1.61143
 20
1.83763
 30
0.0
 40
0.00520833
 41
0.00520833
  0
VERTEX
  8
0
 10
1.55843
 20
1.74582
 30
0.0
 40
0.00520833
 41
0.00520833
  0
SEQEND
 8
0
  0
POLYLINE
  8
0
 62
     8
 66
     1
 10
0
 20
0
 30
0.0
 40
0.375
 41
0.375
  0
VERTEX
  8
0
 10
1.63667
 20
1.69021
 30
0.0
 40
0.00520833
 41
0.00520833
  0
VERTEX
  8
0
 10
1.68283
 20
1.74376
 30
0.0
 40
0.00520833
 41
0.00520833
  0
SEQEND
 8
0
  0
POLYLINE
  8
0
 62
     8
 66
     1
 10
0
 20
0
 30
0.0
 40
0.375
 41
0.375
  0
VERTEX
  8
0
 10
1.69439
 20
1.75717
 30
0.0
 40
0.00520833
 41
0.00520833
  0
VERTEX
  8
0
 10
1.70594
 20
1.77051
 30
0.0
 40
0.00520833
 41
0.00520833
  0
SEQEND
 8
0
  0
POLYLINE
  8
0
 62
     8
 66
     1
 10
0
 20
0
 30
0.0
 40
0.375
 41
0.375
  0
VERTEX
  8
0
 10
1.71696
 20
1.63211
 30
0.0
 40
0.00520833
 41
0.00520833
  0
VERTEX
  8
0
 10
1.69303
 20
1.63346
 30
0.0
 40
0.00520833
 41
0.00520833
  0
VERTEX
  8
0
 10
1.69564
 20
1.65728
 30
0.0
 40
0.00520833
 41
0.00520833
  0
VERTEX
  8
0
 10
1.76113
 20
1.71658
 30
0.0
 40
0.00520833
 41
0.00520833
  0
SEQEND
 8
0
  0
POLYLINE
  8
0
 62
     8
 66
     1
 10
0
 20
0
 30
0.0
 40
0.375
 41
0.375
  0
VERTEX
  8
0
 10
1.75846
 20
1.6651
 30
0.0
 40
0.00520833
 41
0.00520833
  0
VERTEX
  8
0
 10
1.74685
 20
1.67914
 30
0.0
 40
0.00520833
 41
0.00520833
  0
VERTEX
  8
0
 10
1.73492
 20
1.69282
 30
0.0
 40
0.00520833
 41
0.00520833
  0
VERTEX
  8
0
 10
1.7225
 20
1.70617
 30
0.0
 40
0.00520833
 41
0.00520833
  0
VERTEX
  8
0
 10
1.70969
 20
1.71918
 30
0.0
 40
0.00520833
 41
0.00520833
  0
SEQEND
 8
0
  0
POLYLINE
  8
0
 62
     8
 66
     1
 10
0
 20
0
 30
0.0
 40
0.375
 41
0.375
  0
VERTEX
  8
0
 10
1.75564
 20
1.54075
 30
0.0
 40
0.00520833
 41
0.00520833
  0
VERTEX
  8
0
 10
1.74794
 20
1.55479
 30
0.0
 40
0.00520833
 41
0.00520833
  0
VERTEX
  8
0
 10
1.73981
 20
1.56853
 30
0.0
 40
0.00520833
 41
0.00520833
  0
VERTEX
  8
0
 10
1.73122
 20
1.58208
 30
0.0
 40
0.00520833
 41
0.00520833
  0
VERTEX
  8
0
 10
1.73676
 20
1.60553
 30
0.0
 40
0.00520833
 41
0.00520833
  0
VERTEX
  8
0
 10
1.76574
 20
1.62571
 30
0.0
 40
0.00520833
 41
0.00520833
  0
VERTEX
  8
0
 10
1.79042
 20
1.62071
 30
0.0
 40
0.00520833
 41
0.00520833
  0
VERTEX
  8
0
 10
1.80018
 20
1.60531
 30
0.0
 40
0.00520833
 41
0.00520833
  0
VERTEX
  8
0
 10
1.80935
 20
1.58957
 30
0.0
 40
0.00520833
 41
0.00520833
  0
VERTEX
  8
0
 10
1.81814
 20
1.57363
 30
0.0
 40
0.00520833
 41
0.00520833
  0
SEQEND
 8
0
  0
POLYLINE
  8
0
 62
     8
 66
     1
 10
0
 20
0
 30
0.0
 40
0.375
 41
0.375
  0
VERTEX
  8
0
 10
1.80186
 20
1.52636
 30
0.0
 40
0.00520833
 41
0.00520833
  0
VERTEX
  8
0
 10
1.82497
 20
1.51742
 30
0.0
 40
0.00520833
 41
0.00520833
  0
VERTEX
  8
0
 10
1.84804
 20
1.50717
 30
0.0
 40
0.00520833
 41
0.00520833
  0
VERTEX
  8
0
 10
1.85417
 20
1.49001
 30
0.0
 40
0.00520833
 41
0.00520833
  0
VERTEX
  8
0
 10
1.84283
 20
1.4675
 30
0.0
 40
0.00520833
 41
0.00520833
  0
VERTEX
  8
0
 10
1.7921
 20
1.45199
 30
0.0
 40
0.00520833
 41
0.00520833
  0
SEQEND
 8
0
  0
POLYLINE
  8
0
 62
     8
 66
     1
 10
0
 20
0
 30
0.0
 40
0.375
 41
0.375
  0
VERTEX
  8
0
 10
1.76958
 20
1.51188
 30
0.0
 40
0.00520833
 41
0.00520833
  0
VERTEX
  8
0
 10
1.86637
 20
1.55533
 30
0.0
 40
0.00520833
 41
0.00520833
  0
SEQEND
 8
0
  0
POLYLINE
  8
0
 62
     8
 66
     1
 10
0
 20
0
 30
0.0
 40
0.375
 41
0.375
  0
VERTEX
  8
0
 10
1.81304
 20
1.34207
 30
0.0
 40
0.00520833
 41
0.00520833
  0
VERTEX
  8
0
 10
1.81396
 20
1.32617
 30
0.0
 40
0.00520833
 41
0.00520833
  0
VERTEX
  8
0
 10
1.81446
 20
1.31011
 30
0.0
 40
0.00520833
 41
0.00520833
  0
VERTEX
  8
0
 10
1.81446
 20
1.29405
 30
0.0
 40
0.00520833
 41
0.00520833
  0
VERTEX
  8
0
 10
1.83165
 20
1.27729
 30
0.0
 40
0.00520833
 41
0.00520833
  0
VERTEX
  8
0
 10
1.90229
 20
1.27398
 30
0.0
 40
0.00520833
 41
0.00520833
  0
VERTEX
  8
0
 10
1.92051
 20
1.29237
 30
0.0
 40
0.00520833
 41
0.00520833
  0
VERTEX
  8
0
 10
1.92051
 20
1.31179
 30
0.0
 40
0.00520833
 41
0.00520833
  0
VERTEX
  8
0
 10
1.91992
 20
1.33105
 30
0.0
 40
0.00520833
 41
0.00520833
  0
VERTEX
  8
0
 10
1.91863
 20
1.35032
 30
0.0
 40
0.00520833
 41
0.00520833
  0
SEQEND
 8
0
  0
POLYLINE
  8
0
 62
     8
 66
     1
 10
0
 20
0
 30
0.0
 40
0.375
 41
0.375
  0
VERTEX
  8
0
 10
1.91992
 20
1.33105
 30
0.0
 40
0.00520833
 41
0.00520833
  0
VERTEX
  8
0
 10
1.81396
 20
1.32617
 30
0.0
 40
0.00520833
 41
0.00520833
  0
SEQEND
 8
0
  0
POLYLINE
  8
0
 62
     8
 66
     1
 10
0
 20
0
 30
0.0
 40
0.375
 41
0.375
  0
VERTEX
  8
0
 10
1.86925
 20
1.16667
 30
0.0
 40
0.00520833
 41
0.00520833
  0
VERTEX
  8
0
 10
1.87321
 20
1.18446
 30
0.0
 40
0.00520833
 41
0.00520833
  0
VERTEX
  8
0
 10
1.87668
 20
1.20242
 30
0.0
 40
0.00520833
 41
0.00520833
  0
VERTEX
  8
0
 10
1.8795
 20
1.22032
 30
0.0
 40
0.00520833
 41
0.00520833
  0
VERTEX
  8
0
 10
1.88178
 20
1.23844
 30
0.0
 40
0.00520833
 41
0.00520833
  0
SEQEND
 8
0
  0
POLYLINE
  8
0
 62
     8
 66
     1
 10
0
 20
0
 30
0.0
 40
0.375
 41
0.375
  0
VERTEX
  8
0
 10
1.8349
 20
1.17491
 30
0.0
 40
0.00520833
 41
0.00520833
  0
VERTEX
  8
0
 10
1.83865
 20
1.19157
 30
0.0
 40
0.00520833
 41
0.00520833
  0
VERTEX
  8
0
 10
1.84179
 20
1.20844
 30
0.0
 40
0.00520833
 41
0.00520833
  0
VERTEX
  8
0
 10
1.84446
 20
1.22532
 30
0.0
 40
0.00520833
 41
0.00520833
  0
VERTEX
  8
0
 10
1.84668
 20
1.2423
 30
0.0
 40
0.00520833
 41
0.00520833
  0
SEQEND
 8
0
  0
POLYLINE
  8
0
 62
     8
 66
     1
 10
0
 20
0
 30
0.0
 40
0.375
 41
0.375
  0
VERTEX
  8
0
 10
1.76958
 20
1.09228
 30
0.0
 40
0.00520833
 41
0.00520833
  0
VERTEX
  8
0
 10
1.77593
 20
1.10699
 30
0.0
 40
0.00520833
 41
0.00520833
  0
VERTEX
  8
0
 10
1.78179
 20
1.12185
 30
0.0
 40
0.00520833
 41
0.00520833
  0
VERTEX
  8
0
 10
1.78717
 20
1.13699
 30
0.0
 40
0.00520833
 41
0.00520833
  0
VERTEX
  8
0
 10
1.7921
 20
1.15218
 30
0.0
 40
0.00520833
 41
0.00520833
  0
VERTEX
  8
0
 10
1.82596
 20
1.14187
 30
0.0
 40
0.00520833
 41
0.00520833
  0
VERTEX
  8
0
 10
1.8374
 20
1.1199
 30
0.0
 40
0.00520833
 41
0.00520833
  0
VERTEX
  8
0
 10
1.83143
 20
1.10324
 30
0.0
 40
0.00520833
 41
0.00520833
  0
VERTEX
  8
0
 10
1.82497
 20
1.08675
 30
0.0
 40
0.00520833
 41
0.00520833
  0
VERTEX
  8
0
 10
1.83404
 20
1.06331
 30
0.0
 40
0.00520833
 41
0.00520833
  0
VERTEX
  8
0
 10
1.85021
 20
1.05604
 30
0.0
 40
0.00520833
 41
0.00520833
  0
VERTEX
  8
0
 10
1.87397
 20
1.06657
 30
0.0
 40
0.00520833
 41
0.00520833
  0
VERTEX
  8
0
 10
1.88103
 20
1.08458
 30
0.0
 40
0.00520833
 41
0.00520833
  0
VERTEX
  8
0
 10
1.88758
 20
1.10281
 30
0.0
 40
0.00520833
 41
0.00520833
  0
VERTEX
  8
0
 10
1.87668
 20
1.12636
 30
0.0
 40
0.00520833
 41
0.00520833
  0
SEQEND
 8
0
  0
POLYLINE
  8
0
 62
     8
 66
     1
 10
0
 20
0
 30
0.0
 40
0.375
 41
0.375
  0
VERTEX
  8
0
 10
1.75543
 20
0.964085
 30
0.0
 40
0.00520833
 41
0.00520833
  0
VERTEX
  8
0
 10
1.74468
 20
0.950086
 30
0.0
 40
0.00520833
 41
0.00520833
  0
VERTEX
  8
0
 10
1.73346
 20
0.936469
 30
0.0
 40
0.00520833
 41
0.00520833
  0
VERTEX
  8
0
 10
1.72179
 20
0.923122
 30
0.0
 40
0.00520833
 41
0.00520833
  0
VERTEX
  8
0
 10
1.7225
 20
0.898003
 30
0.0
 40
0.00520833
 41
0.00520833
  0
VERTEX
  8
0
 10
1.73519
 20
0.885742
 30
0.0
 40
0.00520833
 41
0.00520833
  0
VERTEX
  8
0
 10
1.76113
 20
0.887586
 30
0.0
 40
0.00520833
 41
0.00520833
  0
VERTEX
  8
0
 10
1.77388
 20
0.902181
 30
0.0
 40
0.00520833
 41
0.00520833
  0
VERTEX
  8
0
 10
1.78614
 20
0.9171
 30
0.0
 40
0.00520833
 41
0.00520833
  0
VERTEX
  8
0
 10
1.7979
 20
0.9324
 30
0.0
 40
0.00520833
 41
0.00520833
  0
VERTEX
  8
0
 10
1.71289
 20
0.995822
 30
0.0
 40
0.00520833
 41
0.00520833
  0
SEQEND
 8
0
  0
POLYLINE
  8
0
 62
     8
 66
     1
 10
0
 20
0
 30
0.0
 40
0.375
 41
0.375
  0
VERTEX
  8
0
 10
1.63981
 20
0.82666
 30
0.0
 40
0.00520833
 41
0.00520833
  0
VERTEX
  8
0
 10
1.65446
 20
0.837511
 30
0.0
 40
0.00520833
 41
0.00520833
  0
VERTEX
  8
0
 10
1.66883
 20
0.848742
 30
0.0
 40
0.00520833
 41
0.00520833
  0
VERTEX
  8
0
 10
1.68283
 20
0.860406
 30
0.0
 40
0.00520833
 41
0.00520833
  0
VERTEX
  8
0
 10
1.69646
 20
0.872504
 30
0.0
 40
0.00520833
 41
0.00520833
  0
SEQEND
 8
0
  0
POLYLINE
  8
0
 62
     8
 66
     1
 10
0
 20
0
 30
0.0
 40
0.375
 41
0.375
  0
VERTEX
  8
0
 10
1.61936
 20
0.855524
 30
0.0
 40
0.00520833
 41
0.00520833
  0
VERTEX
  8
0
 10
1.63314
 20
0.865614
 30
0.0
 40
0.00520833
 41
0.00520833
  0
VERTEX
  8
0
 10
1.64654
 20
0.876139
 30
0.0
 40
0.00520833
 41
0.00520833
  0
VERTEX
  8
0
 10
1.65978
 20
0.887207
 30
0.0
 40
0.00520833
 41
0.00520833
  0
VERTEX
  8
0
 10
1.67253
 20
0.898546
 30
0.0
 40
0.00520833
 41
0.00520833
  0
SEQEND
 8
0
  0
POLYLINE
  8
0
 62
     8
 66
     1
 10
0
 20
0
 30
0.0
 40
0.375
 41
0.375
  0
VERTEX
  8
0
 10
1.53054
 20
0.804144
 30
0.0
 40
0.00520833
 41
0.00520833
  0
VERTEX
  8
0
 10
1.54596
 20
0.811578
 30
0.0
 40
0.00520833
 41
0.00520833
  0
VERTEX
  8
0
 10
1.56114
 20
0.819499
 30
0.0
 40
0.00520833
 41
0.00520833
  0
VERTEX
  8
0
 10
1.57617
 20
0.827692
 30
0.0
 40
0.00520833
 41
0.00520833
  0
VERTEX
  8
0
 10
1.59082
 20
0.836589
 30
0.0
 40
0.00520833
 41
0.00520833
  0
VERTEX
  8
0
 10
1.58789
 20
0.8074
 30
0.0
 40
0.00520833
 41
0.00520833
  0
VERTEX
  8
0
 10
1.58344
 20
0.77794
 30
0.0
 40
0.00520833
 41
0.00520833
  0
VERTEX
  8
0
 10
1.57747
 20
0.74821
 30
0.0
 40
0.00520833
 41
0.00520833
  0
VERTEX
  8
0
 10
1.53022
 20
0.843207
 30
0.0
 40
0.00520833
 41
0.00520833
  0
SEQEND
 8
0
  0
POLYLINE
  8
0
 62
     8
 66
     1
 10
0
 20
0
 30
0.0
 40
0.375
 41
0.375
  0
VERTEX
  8
0
 10
1.42074
 20
0.749186
 30
0.0
 40
0.00520833
 41
0.00520833
  0
VERTEX
  8
0
 10
1.40343
 20
0.745714
 30
0.0
 40
0.00520833
 41
0.00520833
  0
VERTEX
  8
0
 10
1.38596
 20
0.742893
 30
0.0
 40
0.00520833
 41
0.00520833
  0
VERTEX
  8
0
 10
1.36843
 20
0.740506
 30
0.0
 40
0.00520833
 41
0.00520833
  0
VERTEX
  8
0
 10
1.35238
 20
0.721138
 30
0.0
 40
0.00520833
 41
0.00520833
  0
VERTEX
  8
0
 10
1.35395
 20
0.703558
 30
0.0
 40
0.00520833
 41
0.00520833
  0
VERTEX
  8
0
 10
1.37468
 20
0.687933
 30
0.0
 40
0.00520833
 41
0.00520833
  0
VERTEX
  8
0
 10
1.39388
 20
0.690429
 30
0.0
 40
0.00520833
 41
0.00520833
  0
VERTEX
  8
0
 10
1.41292
 20
0.693631
 30
0.0
 40
0.00520833
 41
0.00520833
  0
VERTEX
  8
0
 10
1.43186
 20
0.697374
 30
0.0
 40
0.00520833
 41
0.00520833
  0
VERTEX
  8
0
 10
1.40956
 20
0.801053
 30
0.0
 40
0.00520833
 41
0.00520833
  0
SEQEND
 8
0
  0
POLYLINE
  8
0
 62
     8
 66
     1
 10
0
 20
0
 30
0.0
 40
0.375
 41
0.375
  0
VERTEX
  8
0
 10
1.3144
 20
0.789768
 30
0.0
 40
0.00520833
 41
0.00520833
  0
VERTEX
  8
0
 10
1.31521
 20
0.754503
 30
0.0
 40
0.00520833
 41
0.00520833
  0
VERTEX
  8
0
 10
1.2978
 20
0.718967
 30
0.0
 40
0.00520833
 41
0.00520833
  0
VERTEX
  8
0
 10
1.27821
 20
0.684082
 30
0.0
 40
0.00520833
 41
0.00520833
  0
VERTEX
  8
0
 10
1.26134
 20
0.720324
 30
0.0
 40
0.00520833
 41
0.00520833
  0
VERTEX
  8
0
 10
1.24674
 20
0.757107
 30
0.0
 40
0.00520833
 41
0.00520833
  0
VERTEX
  8
0
 10
1.25043
 20
0.79221
 30
0.0
 40
0.00520833
 41
0.00520833
  0
SEQEND
 8
0
  0
POLYLINE
  8
0
 62
     8
 66
     1
 10
0
 20
0
 30
0.0
 40
0.375
 41
0.375
  0
VERTEX
  8
0
 10
1.31521
 20
0.754503
 30
0.0
 40
0.00520833
 41
0.00520833
  0
VERTEX
  8
0
 10
1.29801
 20
0.754286
 30
0.0
 40
0.00520833
 41
0.00520833
  0
VERTEX
  8
0
 10
1.28093
 20
0.754665
 30
0.0
 40
0.00520833
 41
0.00520833
  0
VERTEX
  8
0
 10
1.26383
 20
0.755642
 30
0.0
 40
0.00520833
 41
0.00520833
  0
VERTEX
  8
0
 10
1.24674
 20
0.757107
 30
0.0
 40
0.00520833
 41
0.00520833
  0
SEQEND
 8
0
  0
POLYLINE
  8
0
 62
     8
 66
     1
 10
0
 20
0
 30
0.0
 40
0.375
 41
0.375
  0
VERTEX
  8
0
 10
1.13612
 20
0.743001
 30
0.0
 40
0.00520833
 41
0.00520833
  0
VERTEX
  8
0
 10
1.15365
 20
0.738118
 30
0.0
 40
0.00520833
 41
0.00520833
  0
VERTEX
  8
0
 10
1.17133
 20
0.733724
 30
0.0
 40
0.00520833
 41
0.00520833
  0
VERTEX
  8
0
 10
1.18918
 20
0.729981
 30
0.0
 40
0.00520833
 41
0.00520833
  0
VERTEX
  8
0
 10
1.20709
 20
0.726779
 30
0.0
 40
0.00520833
 41
0.00520833
  0
SEQEND
 8
0
  0
POLYLINE
  8
0
 62
     8
 66
     1
 10
0
 20
0
 30
0.0
 40
0.375
 41
0.375
  0
VERTEX
  8
0
 10
1.14616
 20
0.776964
 30
0.0
 40
0.00520833
 41
0.00520833
  0
VERTEX
  8
0
 10
1.16271
 20
0.772299
 30
0.0
 40
0.00520833
 41
0.00520833
  0
VERTEX
  8
0
 10
1.17925
 20
0.768229
 30
0.0
 40
0.00520833
 41
0.00520833
  0
VERTEX
  8
0
 10
1.19602
 20
0.764703
 30
0.0
 40
0.00520833
 41
0.00520833
  0
VERTEX
  8
0
 10
1.21289
 20
0.761556
 30
0.0
 40
0.00520833
 41
0.00520833
  0
SEQEND
 8
0
  0
POLYLINE
  8
0
 62
     8
 66
     1
 10
0
 20
0
 30
0.0
 40
0.375
 41
0.375
  0
VERTEX
  8
0
 10
1.06717
 20
0.846571
 30
0.0
 40
0.00520833
 41
0.00520833
  0
VERTEX
  8
0
 10
1.08154
 20
0.839464
 30
0.0
 40
0.00520833
 41
0.00520833
  0
VERTEX
  8
0
 10
1.09614
 20
0.83279
 30
0.0
 40
0.00520833
 41
0.00520833
  0
VERTEX
  8
0
 10
1.11095
 20
0.82666
 30
0.0
 40
0.00520833
 41
0.00520833
  0
VERTEX
  8
0
 10
1.12581
 20
0.820856
 30
0.0
 40
0.00520833
 41
0.00520833
  0
VERTEX
  8
0
 10
1.11366
 20
0.787706
 30
0.0
 40
0.00520833
 41
0.00520833
  0
VERTEX
  8
0
 10
1.09115
 20
0.777399
 30
0.0
 40
0.00520833
 41
0.00520833
  0
VERTEX
  8
0
 10
1.07482
 20
0.784289
 30
0.0
 40
0.00520833
 41
0.00520833
  0
VERTEX
  8
0
 10
1.05876
 20
0.791667
 30
0.0
 40
0.00520833
 41
0.00520833
  0
VERTEX
  8
0
 10
1.03478
 20
0.783746
 30
0.0
 40
0.00520833
 41
0.00520833
  0
VERTEX
  8
0
 10
1.02675
 20
0.768121
 30
0.0
 40
0.00520833
 41
0.00520833
  0
VERTEX
  8
0
 10
1.03592
 20
0.743761
 30
0.0
 40
0.00520833
 41
0.00520833
  0
VERTEX
  8
0
 10
1.05355
 20
0.735732
 30
0.0
 40
0.00520833
 41
0.00520833
  0
VERTEX
  8
0
 10
1.07134
 20
0.728244
 30
0.0
 40
0.00520833
 41
0.00520833
  0
VERTEX
  8
0
 10
1.09543
 20
0.737901
 30
0.0
 40
0.00520833
 41
0.00520833
  0
SEQEND
 8
0
  0
POLYLINE
  8
0
 62
     8
 66
     1
 10
0
 20
0
 30
0.0
 40
0.375
 41
0.375
  0
VERTEX
  8
0
 10
0.984918
 20
0.771158
 30
0.0
 40
0.00520833
 41
0.00520833
  0
VERTEX
  8
0
 10
0.968425
 20
0.781358
 30
0.0
 40
0.00520833
 41
0.00520833
  0
VERTEX
  8
0
 10
0.952311
 20
0.791992
 30
0.0
 40
0.00520833
 41
0.00520833
  0
VERTEX
  8
0
 10
0.936578
 20
0.803114
 30
0.0
 40
0.00520833
 41
0.00520833
  0
VERTEX
  8
0
 10
0.921169
 20
0.814779
 30
0.0
 40
0.00520833
 41
0.00520833
  0
VERTEX
  8
0
 10
0.967936
 20
0.845919
 30
0.0
 40
0.00520833
 41
0.00520833
  0
VERTEX
  8
0
 10
1.01232
 20
0.879503
 30
0.0
 40
0.00520833
 41
0.00520833
  0
SEQEND
 8
0
  0
ENDSEC
  0
EOF
